<svg width="170" height="130" viewBox="0 0 170 130" fill="none" xmlns="http://www.w3.org/2000/svg">
<g clip-path="url(#clip0)">
<path opacity="0.1" d="M166.336 29.6001C164.607 26.2399 162.339 23.1855 159.623 20.558L66.4981 19.7823L143.171 10.6789C138.154 9.00024 132.905 8.11996 127.615 8.07017C120.234 3.03101 110.747 0.00750732 100.399 0.00750732C91.1144 0.00750732 82.5291 2.44697 75.5296 6.58613C69.5815 3.99541 62.8007 2.52634 55.5961 2.52634C34.9048 2.52634 17.6638 14.6413 13.7957 30.7082L166.336 29.6001Z" fill="#00BAFC"/>
<path opacity="0.1" d="M169.61 43.0748C169.604 38.6724 168.612 34.3272 166.708 30.3578L5.31079 44.6801C3.67259 47.1775 2.39933 49.896 1.52955 52.7533L51.5094 59.0519L0.389931 63.6433C1.92789 81.8322 20.3714 96.1934 42.9016 96.1934C54.2424 96.1934 64.5468 92.5545 72.1827 86.6198C79.8425 92.6668 90.2458 96.3851 101.709 96.3851C118.717 96.3851 133.397 88.1982 140.233 76.3617C153.947 72.6808 164.601 63.4411 168.247 51.8817L105.041 43.5944H169.61C169.61 43.4207 169.61 43.2485 169.61 43.0748Z" fill="#00BAFC"/>
<path opacity="0.1" d="M75.2631 129.999C99.2462 129.999 118.688 129.131 118.688 128.061C118.688 126.991 99.2462 126.123 75.2631 126.123C51.28 126.123 31.8379 126.991 31.8379 128.061C31.8379 129.131 51.28 129.999 75.2631 129.999Z" fill="#00BAFC"/>
<path d="M101.037 124.652V125.823H66.4068V124.872C68.5187 124.09 70.3511 122.699 71.6718 120.874C72.9925 119.05 73.7423 116.875 73.8261 114.624C73.91 112.373 73.3242 110.148 72.1429 108.231C70.9616 106.313 69.2379 104.789 67.19 103.852H100.802C98.8 104.768 97.1069 106.246 95.9279 108.106C94.7489 109.965 94.1346 112.127 94.1595 114.328C94.1843 116.53 94.8473 118.677 96.0681 120.51C97.2888 122.342 99.0149 123.781 101.037 124.652Z" fill="#C8CAD7"/>
<path opacity="0.1" d="M100.802 103.852C99.2572 104.561 97.8907 105.607 96.8024 106.912C95.7141 108.218 94.9317 109.751 94.5123 111.398H73.4811C73.0615 109.751 72.279 108.218 71.1907 106.913C70.1025 105.607 68.7361 104.561 67.1915 103.852H100.802Z" fill="black"/>
<path d="M26.7463 97.8857V104.46C26.7463 108.09 29.4029 111.032 32.681 111.032H134.576C137.854 111.032 140.51 108.09 140.51 104.46V97.8857H26.7463Z" fill="#C8CAD7"/>
<path opacity="0.1" d="M101.037 124.652V125.823H66.4068V124.872C67.3561 124.519 68.2541 124.041 69.0769 123.45H98.9135C99.5765 123.925 100.288 124.328 101.037 124.652Z" fill="black"/>
<path d="M111.058 123.815H56.3853C55.5996 123.815 54.9626 124.452 54.9626 125.238V125.862C54.9626 126.648 55.5996 127.285 56.3853 127.285H111.058C111.844 127.285 112.481 126.648 112.481 125.862V125.238C112.481 124.452 111.844 123.815 111.058 123.815Z" fill="#C8CAD7"/>
<path d="M140.51 25.8503C140.508 24.2777 139.882 22.7703 138.769 21.6592C137.656 20.5481 136.148 19.9242 134.576 19.9246H32.6855C31.1122 19.923 29.6027 20.5463 28.4889 21.6576C27.3751 22.7688 26.7483 24.2769 26.7463 25.8503V99.1645H140.51V25.8503Z" fill="#474157"/>
<path d="M137.413 28.4979V91.4942C137.414 91.878 137.338 92.258 137.191 92.6125C137.045 92.9671 136.829 93.2893 136.558 93.5606C136.287 93.8319 135.965 94.0471 135.61 94.1939C135.255 94.3407 134.875 94.4161 134.492 94.4159H32.7769C32.3931 94.4161 32.0131 94.3407 31.6585 94.1939C31.304 94.0471 30.9818 93.8319 30.7105 93.5606C30.4391 93.2893 30.2239 92.9671 30.0772 92.6125C29.9304 92.258 29.855 91.878 29.8552 91.4942V28.4979C29.8552 27.723 30.163 26.9799 30.7109 26.432C31.2588 25.8841 32.002 25.5762 32.7769 25.5762H134.484C134.868 25.5753 135.249 25.6501 135.605 25.7965C135.96 25.9429 136.283 26.1579 136.555 26.4293C136.827 26.7007 137.043 27.0231 137.19 27.3781C137.337 27.7331 137.413 28.1136 137.413 28.4979Z" fill="#4C4C78"/>
<path d="M83.6298 24.1161C84.3865 24.1161 85 23.5027 85 22.7459C85 21.9891 84.3865 21.3757 83.6298 21.3757C82.873 21.3757 82.2595 21.9891 82.2595 22.7459C82.2595 23.5027 82.873 24.1161 83.6298 24.1161Z" fill="white"/>
<path d="M83.6298 108.112C85.4956 108.112 87.0082 106.6 87.0082 104.734C87.0082 102.868 85.4956 101.355 83.6298 101.355C81.7639 101.355 80.2514 102.868 80.2514 104.734C80.2514 106.6 81.7639 108.112 83.6298 108.112Z" fill="white"/>
<path d="M52.5831 27.0378V94.4159H32.7769C32.3931 94.4161 32.0131 94.3406 31.6585 94.1939C31.304 94.0471 30.9818 93.8319 30.7105 93.5606C30.4391 93.2892 30.2239 92.9671 30.0772 92.6125C29.9304 92.258 29.855 91.878 29.8552 91.4942V28.4979L29.9615 28.1011L30.246 27.0378H52.5831Z" fill="white"/>
<path d="M55.1244 28.101V34.166H29.8552V28.4979L29.9615 28.101H55.1244Z" fill="#4C4C78"/>
<path d="M137.413 28.4979H29.8552C29.8552 28.1142 29.9308 27.7344 30.0776 27.38C30.2245 27.0256 30.4397 26.7036 30.711 26.4325C30.9823 26.1613 31.3044 25.9462 31.6589 25.7995C32.0134 25.6529 32.3932 25.5775 32.7769 25.5777H134.484C134.868 25.5765 135.249 25.6512 135.604 25.7974C135.96 25.9436 136.283 26.1585 136.555 26.4298C136.827 26.7011 137.043 27.0234 137.19 27.3783C137.337 27.7332 137.413 28.1136 137.413 28.4979Z" fill="#C8CAD7"/>
<path d="M32.7768 27.7686C33.1805 27.7686 33.5076 27.4414 33.5076 27.0378C33.5076 26.6342 33.1805 26.307 32.7768 26.307C32.3732 26.307 32.0461 26.6342 32.0461 27.0378C32.0461 27.4414 32.3732 27.7686 32.7768 27.7686Z" fill="#EDEDF4"/>
<path d="M34.9677 27.7686C35.3713 27.7686 35.6985 27.4414 35.6985 27.0378C35.6985 26.6342 35.3713 26.307 34.9677 26.307C34.5641 26.307 34.2369 26.6342 34.2369 27.0378C34.2369 27.4414 34.5641 27.7686 34.9677 27.7686Z" fill="#EDEDF4"/>
<path d="M37.1586 27.7686C37.5622 27.7686 37.8894 27.4414 37.8894 27.0378C37.8894 26.6342 37.5622 26.307 37.1586 26.307C36.755 26.307 36.4278 26.6342 36.4278 27.0378C36.4278 27.4414 36.755 27.7686 37.1586 27.7686Z" fill="#EDEDF4"/>
<path d="M48.8064 30.7711H33.632V32.1683H48.8064V30.7711Z" fill="#00BAFC"/>
<path opacity="0.5" d="M48.8064 37.5848H33.632V38.982H48.8064V37.5848Z" fill="#00BAFC"/>
<path opacity="0.5" d="M48.8064 42.4023H33.632V43.7995H48.8064V42.4023Z" fill="#00BAFC"/>
<path opacity="0.5" d="M48.8064 47.2198H33.632V48.617H48.8064V47.2198Z" fill="#00BAFC"/>
<path opacity="0.5" d="M48.8064 52.0359H33.632V53.4331H48.8064V52.0359Z" fill="#00BAFC"/>
<path opacity="0.5" d="M48.8064 56.8535H33.632V58.2506H48.8064V56.8535Z" fill="#00BAFC"/>
<path opacity="0.5" d="M48.8064 61.671H33.632V63.0681H48.8064V61.671Z" fill="#00BAFC"/>
<path opacity="0.5" d="M48.8064 66.4871H33.632V67.8843H48.8064V66.4871Z" fill="#00BAFC"/>
<path opacity="0.5" d="M132.247 35.9091H65.0066V36.1337H132.247V35.9091Z" fill="#DCE0ED"/>
<path opacity="0.5" d="M132.247 41.125H65.0066V41.3496H132.247V41.125Z" fill="#DCE0ED"/>
<path opacity="0.5" d="M132.247 46.3424H65.0066V46.567H132.247V46.3424Z" fill="#DCE0ED"/>
<path opacity="0.5" d="M132.247 51.5582H65.0066V51.7829H132.247V51.5582Z" fill="#DCE0ED"/>
<path opacity="0.5" d="M132.247 56.7741H65.0066V56.9987H132.247V56.7741Z" fill="#DCE0ED"/>
<path opacity="0.5" d="M132.248 56.9972H64.9243V46.7392L71.0986 49.7821L77.4885 50.6477L83.0952 48.957L89.8595 43.7112L93.2619 41.7464L95.7493 41.2672L98.1289 41.3945L102.043 43.3278L107.363 46.7167L111.538 47.2543L114.849 46.1132L121.865 40.3657L125.447 39.0883L129.195 39.6679L132.248 41.4304V56.9972Z" fill="#00BAFC"/>
<path d="M76.6589 50.6508C70.5969 50.6508 64.9932 46.9429 64.9243 46.895L65.0905 46.6464C65.1774 46.7048 73.8001 52.4103 81.1275 49.5516C83.8021 48.5108 85.7009 46.889 87.5459 45.3226C89.4672 43.6858 91.2822 42.1388 93.7546 41.4679C96.5999 40.6997 99.6923 41.3961 102.048 43.3309C104.061 44.9856 108.071 47.6437 112.307 46.8485C114.467 46.4442 116.288 44.8658 118.215 43.1961C121.905 39.9914 125.733 36.6834 132.335 41.4335L132.16 41.6761C125.743 37.0652 122.013 40.2969 118.407 43.4222C116.448 45.1204 114.597 46.7168 112.358 47.1436C108.001 47.9597 103.906 45.2507 101.853 43.563C99.5725 41.6881 96.5729 41.0172 93.8295 41.7585C91.42 42.4114 89.6364 43.9359 87.7361 45.5502C85.8776 47.1331 83.9548 48.7714 81.2368 49.8316C79.7751 50.3872 78.2225 50.665 76.6589 50.6508Z" fill="#00BAFC"/>
<path d="M97.3621 42.904C98.2826 42.904 99.0288 42.1578 99.0288 41.2373C99.0288 40.3168 98.2826 39.5706 97.3621 39.5706C96.4415 39.5706 95.6953 40.3168 95.6953 41.2373C95.6953 42.1578 96.4415 42.904 97.3621 42.904Z" fill="#00BAFC"/>
<path d="M55.5916 77.4578C53.3139 76.146 52.4468 75.821 52.4468 75.8195L52.4004 75.7866C52.1516 75.5958 51.954 75.3462 51.8253 75.0603C51.8253 75.0079 51.8253 74.9555 51.8253 74.9105V74.9255C51.8628 74.2307 52.3555 73.6002 52.8242 73.0491C53.2235 72.5789 53.6229 72.1092 54.0222 71.6399C54.1599 71.4974 54.2651 71.3268 54.3307 71.1398C54.3551 71.0419 54.3662 70.9411 54.3637 70.8403C54.3637 70.7983 54.3637 70.7579 54.3637 70.7175C54.3637 70.367 54.3472 70.0166 54.3352 69.6692C54.3232 69.3622 54.2453 68.9773 53.9384 68.9204C53.7796 68.8875 53.57 68.9444 53.4891 68.8081C53.4597 68.7525 53.4522 68.6878 53.4681 68.6269C53.4681 68.6269 53.4681 68.6359 53.4681 68.6404C53.4675 68.6349 53.4675 68.6294 53.4681 68.6239C53.5272 68.3876 53.5653 68.1466 53.5819 67.9036C53.5873 67.7803 53.5706 67.6571 53.5325 67.5397C53.3543 67.0321 52.7448 66.8239 52.2057 66.7281C51.6666 66.6322 51.0616 66.5499 50.7232 66.129C50.6304 65.9887 50.5304 65.8533 50.4237 65.7232C50.2669 65.585 50.0762 65.491 49.8711 65.4507C49.2023 65.285 48.4973 65.3466 47.8674 65.6259C47.6068 65.7427 47.3448 65.8984 47.0587 65.882C46.7727 65.8655 46.5076 65.6573 46.2141 65.6079C45.7409 65.527 45.2872 65.876 45.0535 66.2878C44.915 66.5322 44.8413 66.808 44.8394 67.089C44.8394 67.1039 44.8394 67.1204 44.8394 67.1354C44.8335 67.4374 44.9439 67.7302 45.1479 67.953C45.3515 68.1657 45.6555 68.3109 45.7469 68.5895C45.7813 68.7033 45.7739 68.8261 45.8038 68.9399C45.8038 68.9549 45.8128 68.9684 45.8173 68.9833L45.8008 69.0028C45.3144 69.6288 45.0508 70.3994 45.052 71.1922C45.0567 71.9619 45.3058 72.7103 45.7634 73.3294C46.221 73.9484 46.8633 74.4061 47.5978 74.6365C47.5978 74.6709 47.5978 74.7069 47.5978 74.7443C47.608 74.9691 47.569 75.1934 47.4837 75.4016C47.3984 75.6098 47.2687 75.7968 47.1037 75.9498L43.872 77.2467C43.872 77.2467 41.9252 77.016 41.2244 79.8598C41.112 80.3318 41.0716 80.818 41.1046 81.302C41.13 81.7317 41.0701 82.4865 40.5715 83.4629C39.7733 85.0263 39.9545 88.6129 41.5868 88.9678C43.1277 89.3032 43.7312 89.164 43.7941 89.1475V89.2104C43.7687 89.8843 43.5246 95.6887 42.6365 96.3985C42.3894 96.5917 42.4359 96.7235 42.6365 96.8118C42.6365 96.8118 42.6365 96.8493 42.6365 96.9166C42.6096 97.3419 42.4718 98.9578 41.8773 99.8787C41.1944 100.94 41.2723 107.08 41.2723 107.08L40.8021 110.703C40.8021 110.703 41.0911 112.94 40.8021 113.331C40.543 113.68 40.2031 121.958 40.1252 123.752H40.0952C39.9531 123.761 39.8151 123.804 39.6935 123.878C39.5718 123.952 39.4702 124.055 39.3974 124.178C39.011 124.798 37.6782 125.94 37.6782 125.94C37.3892 126.352 36.317 126.746 35.7509 126.932C35.6752 126.956 35.602 126.987 35.5323 127.026C35.3203 127.141 35.1501 127.32 35.0456 127.538C35.0088 127.602 34.9853 127.673 34.9765 127.746C34.9678 127.82 34.974 127.894 34.9947 127.965C35.1444 128.32 38.15 128.564 38.9107 128.213C39.5097 127.935 41.8818 127.566 42.8672 127.423C43.046 127.4 43.2122 127.319 43.3396 127.191C43.4671 127.064 43.5485 126.898 43.571 126.719C43.5804 126.657 43.5773 126.594 43.5619 126.534C43.5465 126.473 43.519 126.417 43.4811 126.367C43.2925 126.133 43.1951 125.495 43.1517 125.079C43.2317 125.046 43.3063 125.002 43.3733 124.947C43.2925 123.657 43.4775 122.363 43.9169 121.147C44.6417 119.23 44.8604 115.678 44.6792 113.368C44.6792 113.368 46.891 103.849 48.6326 102.961C48.6596 102.994 49.5042 104.078 49.612 107.435C49.7198 110.845 50.9523 113.082 50.9523 113.082C50.9523 113.082 50.4087 118.872 50.9523 121.039L50.238 124.452C50.2082 124.427 50.1797 124.401 50.1526 124.374C50.1526 124.374 50.1736 124.47 50.2035 124.621L50.1886 124.693L50.2185 124.7C50.2994 125.127 50.4192 125.871 50.3683 126.309C50.3398 126.559 50.2709 126.899 50.2185 127.234C50.1436 127.76 50.1227 128.27 50.3997 128.381C50.849 128.564 53.519 128.814 53.9728 128.231C54.0745 128.112 54.1407 127.966 54.164 127.811C54.1873 127.656 54.1667 127.498 54.1046 127.354C54.0717 127.273 54.0273 127.198 53.9728 127.131C53.9728 127.131 53.2645 125.973 53.4651 125.157C53.4835 125.077 53.4854 124.995 53.4707 124.915C53.4561 124.834 53.4251 124.758 53.3798 124.69C53.4836 123.398 53.6915 122.116 54.0012 120.858C54.4505 119.149 55.4119 115.402 54.7081 112.937C54.6811 112.841 54.6512 112.745 54.6182 112.653C54.2116 111.307 54.0757 109.895 54.2184 108.497C53.9564 107.304 53.9564 106.068 54.2184 104.874C54.6497 102.887 54.9537 100.94 54.9537 100.94C54.9537 100.94 55.1933 98.3123 54.9836 96.701L54.9701 96.5977L55.084 96.5722C55.084 96.5722 54.4685 93.8377 54.2498 92.0976C54.1989 91.6858 54.1315 91.1662 54.0582 90.6106C54.2589 90.5761 54.4567 90.526 54.6497 90.4608C56.6084 89.7854 57.2239 83.6755 57.2239 83.6755V81.7377C57.2239 81.7377 57.8768 78.7771 55.5916 77.4578ZM41.0012 124.63L40.9054 124.579L41.0012 124.63Z" fill="url(#paint0_linear)"/>
<path d="M54.4102 112.711C55.2592 115.154 54.2604 119.118 53.8111 120.888C53.5086 122.168 53.3083 123.469 53.2121 124.781C52.1787 124.956 51.1215 124.931 50.0973 124.709L50.846 121.064C50.3159 118.905 50.846 113.135 50.846 113.135C50.846 113.135 49.648 110.904 49.5372 107.506C49.4324 104.162 48.6087 103.081 48.5818 103.046C46.8701 103.936 44.7167 113.419 44.7167 113.419C44.8934 115.72 44.6807 119.26 43.9679 121.172C43.5383 122.386 43.3575 123.674 43.4363 124.959C43.1892 125.168 42.8448 125.203 42.4734 125.144C41.4626 124.98 40.2511 124.109 40.2511 124.109C40.2511 124.109 40.6404 113.776 40.9235 113.384C41.2065 112.991 40.9235 110.764 40.9235 110.764L41.3832 107.154C41.3832 107.154 41.3128 101.03 41.9822 99.9657C42.5632 99.0477 42.6965 97.4364 42.7235 97.0141C42.7235 96.9467 42.7235 96.9092 42.7235 96.9092L43.7478 95.6828C43.7478 95.6828 53.6599 94.934 54.4027 95.6828C54.5854 95.8655 54.7022 96.2818 54.7651 96.8029C54.9687 98.4083 54.7351 101.027 54.7351 101.027C54.7351 101.027 54.4356 102.974 54.0133 104.955C53.7577 106.145 53.7577 107.376 54.0133 108.566C53.875 109.96 54.0098 111.368 54.4102 112.711Z" fill="#65617D"/>
<path d="M53.7901 128.233C53.3483 128.817 50.7471 128.57 50.3039 128.383C50.0328 128.27 50.0538 127.763 50.1271 127.239C50.1736 126.905 50.241 126.565 50.2679 126.318C50.3398 125.68 50.0568 124.387 50.0568 124.387C50.0568 124.387 50.6408 125.007 50.7816 124.387C50.8141 124.269 50.8783 124.162 50.9672 124.077C51.0562 123.993 51.1665 123.934 51.2862 123.908C51.5896 123.816 51.9159 123.837 52.2057 123.965C52.6654 124.164 53.4322 124.589 53.2944 125.163C53.0997 125.976 53.7901 127.129 53.7901 127.129C53.8436 127.197 53.887 127.272 53.9189 127.352C53.981 127.497 54.0018 127.655 53.9791 127.811C53.9563 127.966 53.8909 128.112 53.7901 128.233Z" fill="#A27772"/>
<path opacity="0.1" d="M53.7901 128.233C53.3484 128.817 50.7472 128.57 50.3039 128.383C50.0328 128.27 50.0538 127.763 50.1272 127.239C50.4057 127.369 50.8759 127.478 51.6726 127.405C51.8577 127.387 52.0438 127.381 52.2297 127.387C52.7929 127.413 53.3572 127.402 53.9189 127.354C53.9807 127.498 54.0014 127.657 53.9787 127.812C53.9559 127.967 53.8907 128.113 53.7901 128.233Z" fill="black"/>
<path opacity="0.1" d="M44.7166 113.419C44.8933 115.72 44.6807 119.26 43.9678 121.172C43.5382 122.386 43.3574 123.674 43.4362 124.959C43.1891 125.167 42.8447 125.203 42.4733 125.143C42.6875 123.646 43.5965 117.217 44.1805 112.136C44.8439 106.348 47.9497 102.366 47.9497 102.366L48.5697 103.048C46.87 103.936 44.7166 113.419 44.7166 113.419Z" fill="black"/>
<path d="M52.7283 76.2165L52.2955 78.3399L50.1796 81.8981L47.5694 80.7824C47.5694 80.7824 44.0203 77.0656 46.2501 76.5354C46.5174 76.4783 46.7698 76.3661 46.9913 76.206C47.4286 75.875 47.5664 75.3958 47.5694 74.9256C47.5517 74.3988 47.4285 73.8809 47.207 73.4026L51.7729 71.9695C51.584 72.5692 51.4738 73.1909 51.445 73.8189C51.4105 75.0619 51.8717 75.6758 52.2506 75.9679C52.3916 76.0818 52.5541 76.1663 52.7283 76.2165Z" fill="#FBBEBE"/>
<path opacity="0.1" d="M51.7729 71.9695C51.584 72.5692 51.4738 73.1909 51.445 73.8189C50.9823 74.368 50.3664 74.7666 49.6761 74.9637C48.9857 75.1608 48.2522 75.1476 47.5694 74.9256C47.5518 74.3988 47.4285 73.8809 47.207 73.4026L51.7729 71.9695Z" fill="black"/>
<path d="M52.2956 71.3854C52.2956 72.0995 52.0838 72.7976 51.6871 73.3913C51.2904 73.9851 50.7265 74.4479 50.0667 74.7211C49.407 74.9944 48.681 75.0659 47.9807 74.9266C47.2803 74.7873 46.6369 74.4434 46.132 73.9385C45.6271 73.4335 45.2832 72.7902 45.1439 72.0898C45.0046 71.3894 45.0761 70.6635 45.3493 70.0038C45.6226 69.344 46.0854 68.7801 46.6791 68.3834C47.2729 67.9867 47.9709 67.7749 48.685 67.7749C49.1595 67.7737 49.6295 67.8663 50.0681 68.0473C50.5067 68.2284 50.9052 68.4943 51.2407 68.8298C51.5762 69.1653 51.8421 69.5638 52.0231 70.0024C52.2042 70.4409 52.2968 70.911 52.2956 71.3854Z" fill="#FBBEBE"/>
<path opacity="0.1" d="M52.7283 76.2164L52.2955 78.3399L50.1796 81.898L47.5694 80.7824C47.5694 80.7824 44.0203 77.0655 46.2501 76.5354C46.5174 76.4783 46.7698 76.3661 46.9913 76.2059C46.5885 77.3126 48.2507 79.6143 48.2507 79.6143C48.4439 79.8988 48.8887 79.7206 48.8887 79.7206C49.9579 79.5589 51.9302 76.48 52.2506 75.9678C52.3916 76.0818 52.5541 76.1663 52.7283 76.2164Z" fill="black"/>
<path opacity="0.1" d="M54.7725 96.8058C54.1436 96.9556 50.6663 97.7178 49.3485 97.5261C47.8974 97.3135 45.0746 97.1727 45.0746 97.1727C45.0746 97.1727 43.2775 97.2686 42.7264 97.023C42.7264 96.9556 42.7264 96.9181 42.7264 96.9181L43.7507 95.6917C43.7507 95.6917 53.6629 94.9429 54.4056 95.6917C54.6003 95.8684 54.7051 96.2832 54.7725 96.8058Z" fill="black"/>
<path d="M48.2508 79.7207C48.2508 79.7207 46.3834 77.1345 47.0872 76.1266L43.9319 77.4205C43.9319 77.4205 42.0331 77.1899 41.3487 80.0232C41.239 80.4945 41.1992 80.9794 41.2304 81.4623C41.2559 81.8891 41.1975 82.6408 40.7108 83.6142C39.9321 85.1716 40.1118 88.7477 41.7021 89.1011C43.2925 89.4546 43.8616 89.2778 43.8616 89.2778C43.8616 89.2778 43.6489 95.7561 42.7294 96.4989C41.81 97.2417 45.0761 97.065 45.0761 97.065C45.0761 97.065 47.8974 97.2147 49.3485 97.4199C50.7996 97.625 54.8699 96.6711 54.8699 96.6711C54.8699 96.6711 54.2708 93.9456 54.0552 92.2115C53.8396 90.4774 53.3484 86.7845 53.3484 86.7845L56.9589 81.8936C56.9589 81.8936 57.5953 78.9375 55.3655 77.6286C53.1357 76.3198 52.2956 75.9963 52.2956 75.9963C52.2956 75.9963 50.0493 79.6458 48.8873 79.8225C48.8873 79.8255 48.444 80.0052 48.2508 79.7207Z" fill="#FF748E"/>
<path opacity="0.1" d="M44.1087 80.7479C44.1087 80.7479 44.0742 81.916 44.2869 82.3757C44.4995 82.8355 45.2767 85.3843 45.2767 85.3843H43.5082C43.5082 85.3843 44.4636 84.3585 44.3932 83.8628C44.3228 83.3671 44.1087 80.7479 44.1087 80.7479Z" fill="black"/>
<path d="M49.3485 89.5594C49.3485 89.5594 45.4399 88.604 45.076 87.7909C44.7121 86.9777 43.7073 85.1537 43.7073 85.1537L44.1191 84.5981L46.021 86.0957C46.021 86.0957 48.2867 87.8927 49.3485 88.0784C50.4102 88.2641 49.3485 89.5594 49.3485 89.5594Z" fill="#FBBEBE"/>
<path opacity="0.05" d="M49.3485 89.5594C49.3485 89.5594 45.4399 88.604 45.076 87.7909C44.7121 86.9777 43.7073 85.1537 43.7073 85.1537L44.1191 84.5981L46.021 86.0957C46.021 86.0957 48.2867 87.8927 49.3485 88.0784C50.4102 88.2641 49.3485 89.5594 49.3485 89.5594Z" fill="black"/>
<path d="M52.7284 84.9604V87.0809H52.387C50.7029 87.0809 49.0465 87.5097 47.5739 88.3268L46.936 88.6802L46.7638 88.7761L45.6661 86.3052L46.6934 85.3842H46.7458C46.9974 85.4082 48.0831 85.498 48.5428 85.3438C49.0026 85.1895 49.5237 84.7238 50.8101 85.0533C51.445 85.215 51.9856 85.9263 52.6071 85.7047L52.7284 84.9604Z" fill="#FBBEBE"/>
<path opacity="0.1" d="M56.1442 81.1014L56.8525 81.898V83.8268C56.8525 83.8268 56.2535 89.9158 54.3397 90.5882C52.4258 91.2606 49.016 90.1988 49.016 90.1988C49.016 90.1988 48.1339 87.8627 48.5457 87.7204C48.9576 87.5781 52.1907 86.7261 52.1907 86.7261C52.1907 86.7261 52.1443 83.1545 52.8526 82.0927C52.8526 82.0927 52.3929 78.7652 53.9848 78.6948C55.5766 78.6244 56.1442 81.1014 56.1442 81.1014Z" fill="black"/>
<path d="M56.2476 81.1014L56.9559 81.898V83.8268C56.9559 83.8268 56.3569 89.9158 54.4415 90.5882C52.5262 91.2606 49.1193 90.1988 49.1193 90.1988C49.1193 90.1988 48.2373 87.8627 48.6491 87.7204C49.0609 87.5781 52.2926 86.7261 52.2926 86.7261C52.2926 86.7261 52.2477 83.1545 52.956 82.0927C52.956 82.0927 52.4947 78.7652 54.0881 78.6948C55.6815 78.6244 56.2476 81.1014 56.2476 81.1014Z" fill="#FF748E"/>
<path opacity="0.1" d="M51.3057 72.9189C51.3372 72.6861 51.3094 72.4491 51.2248 72.23C51.1805 72.1217 51.1014 72.0312 51 71.9726C50.8987 71.9141 50.7808 71.8908 50.6648 71.9065C50.3653 71.9769 50.2305 72.3708 49.934 72.4651C49.6839 72.5445 49.4098 72.3678 49.29 72.1342C49.1898 71.8906 49.1477 71.6271 49.1672 71.3644C49.1672 71.0649 49.1672 70.7729 49.1672 70.4764C49.1672 70.1544 49.1568 69.807 48.9576 69.5539C48.7105 69.2394 48.131 69.1046 47.7446 69.1151C47.4867 69.1178 47.2393 69.2172 47.0512 69.3937C46.9568 69.4887 46.8423 69.5615 46.7161 69.6066C46.5899 69.6516 46.4552 69.6679 46.3219 69.6542C46.2044 69.6362 46.0944 69.5853 46.0046 69.5074C45.9147 69.4295 45.8488 69.3278 45.8143 69.214C45.8136 69.21 45.8136 69.2059 45.8143 69.202C46.1152 68.8042 46.4952 68.473 46.9304 68.2294C47.3657 67.9858 47.8466 67.835 48.343 67.7866C48.8394 67.7381 49.3405 67.793 49.8146 67.9478C50.2888 68.1026 50.7257 68.354 51.0978 68.6861C51.47 69.0182 51.7693 69.4238 51.9768 69.8773C52.1844 70.3308 52.2958 70.8224 52.3039 71.3211C52.3121 71.8198 52.2168 72.3148 52.0241 72.7749C51.8314 73.2349 51.5455 73.65 51.1844 73.9941C51.2442 73.6381 51.2847 73.2792 51.3057 72.9189Z" fill="black"/>
<path d="M46.3205 69.548C46.2029 69.5297 46.0928 69.4788 46.0027 69.4009C45.9127 69.3231 45.8464 69.2215 45.8113 69.1078C45.7829 68.994 45.7903 68.8712 45.7559 68.7589C45.6735 68.4803 45.377 68.335 45.1779 68.1239C44.7795 67.7016 44.805 67.0053 45.0865 66.4961C45.3156 66.0858 45.7574 65.7398 46.2201 65.8192C46.5062 65.8701 46.7533 66.0738 47.0438 66.0918C47.3343 66.1097 47.5784 65.954 47.833 65.8372C48.4464 65.5593 49.136 65.4981 49.7887 65.6635C49.9896 65.7034 50.176 65.7971 50.3278 65.9345C50.4309 66.064 50.5269 66.199 50.6154 66.3389C50.9448 66.7597 51.5363 66.842 52.062 66.9379C52.5876 67.0337 53.1836 67.2374 53.3558 67.748C53.4711 68.0835 53.3558 68.4474 53.2944 68.7963C53.2715 68.8678 53.2764 68.9453 53.3079 69.0134C53.3903 69.1497 53.5954 69.0928 53.7572 69.1242C54.0567 69.1871 54.1315 69.5735 54.142 69.873C54.156 70.2204 54.1655 70.5699 54.1705 70.9213C54.1793 71.0513 54.1692 71.182 54.1405 71.3091C54.0759 71.4906 53.9739 71.6564 53.841 71.7958L52.6715 73.2005C52.1533 73.8235 51.6037 74.5483 51.7071 75.3524C51.4615 75.4618 51.1709 75.2506 51.0901 74.993C51.0092 74.7354 51.0736 74.4599 51.129 74.1963C51.2232 73.7406 51.2847 73.2787 51.3132 72.8141C51.3448 72.5809 51.317 72.3434 51.2323 72.1238C51.1877 72.0153 51.1084 71.9248 51.0067 71.8662C50.9051 71.8077 50.787 71.7845 50.6708 71.8003C50.3713 71.8707 50.238 72.2645 49.9415 72.3589C49.6914 72.4398 49.4173 72.2615 49.2975 72.0279C49.198 71.7842 49.1559 71.5208 49.1747 71.2582V70.3702C49.1747 70.0482 49.1643 69.7008 48.9651 69.4477C48.7195 69.1332 48.1385 68.9985 47.7521 69.0089C47.4942 69.0116 47.2468 69.111 47.0588 69.2875C46.9633 69.3838 46.8473 69.4573 46.7195 69.5024C46.5916 69.5475 46.4552 69.5631 46.3205 69.548Z" fill="#7C5C5C"/>
<path opacity="0.1" d="M47.1351 80.6596L48.2448 85.2121C48.2448 85.2121 49.1178 85.2076 47.1351 80.6596Z" fill="black"/>
<path opacity="0.1" d="M50.9238 79.8973C50.9238 79.8973 49.4713 82.2754 50.0388 84.7328L50.3084 84.7523C50.3084 84.7523 49.8262 83.6141 50.9238 79.8973Z" fill="black"/>
<path opacity="0.1" d="M51.8434 93.3497C51.8434 93.3497 53.6254 92.7597 53.7557 94.1284C53.7557 94.1284 53.4188 93.1894 51.8434 93.3497Z" fill="black"/>
<path opacity="0.1" d="M46.6934 85.4906C46.6934 85.4906 46.3399 87.969 46.9764 88.9604C45.9778 89.3122 44.9178 89.4564 43.8615 89.3842L43.6489 85.4906H46.6934Z" fill="black"/>
<path opacity="0.1" d="M46.936 88.6804L46.7638 88.7762L45.6661 86.3053L46.6934 85.3843H46.7458C46.7293 85.5041 46.4433 87.6321 46.936 88.6804Z" fill="black"/>
<path d="M46.6933 85.3843C46.6933 85.3843 46.3399 87.8627 46.9764 88.8541C45.9777 89.2059 44.9178 89.3501 43.8615 89.2779L42.6231 85.3843H46.6933Z" fill="#FF748E"/>
<path d="M43.6309 126.726C43.6105 126.903 43.5319 127.068 43.4074 127.195C43.2829 127.322 43.1197 127.403 42.9435 127.427C41.9836 127.577 39.6669 127.936 39.0829 128.215C38.3341 128.57 35.402 128.321 35.2597 127.968C35.2398 127.897 35.234 127.823 35.2427 127.749C35.2515 127.676 35.2745 127.605 35.3106 127.541C35.3791 127.4 35.4753 127.275 35.5934 127.172C35.7115 127.069 35.8491 126.991 35.998 126.942C36.5521 126.756 37.5974 126.365 37.8789 125.955C37.8789 125.955 39.1817 124.814 39.5531 124.199C39.6228 124.077 39.7216 123.975 39.8405 123.901C39.9594 123.827 40.0947 123.784 40.2345 123.775C40.5445 123.76 40.8889 123.917 41.0312 124.595C41.0312 124.595 42.7294 125.564 43.1891 124.715C43.1891 124.715 43.2595 126.02 43.541 126.377C43.5783 126.427 43.6054 126.483 43.6208 126.543C43.6362 126.603 43.6397 126.665 43.6309 126.726Z" fill="#A27772"/>
<path opacity="0.1" d="M43.6309 126.726C43.6105 126.903 43.5319 127.068 43.4074 127.195C43.2829 127.322 43.1197 127.403 42.9435 127.427C41.9836 127.577 39.6669 127.936 39.0829 128.215C38.3341 128.57 35.402 128.321 35.2597 127.968C35.2398 127.897 35.234 127.823 35.2427 127.749C35.2515 127.676 35.2745 127.605 35.3106 127.541C35.4116 127.326 35.5776 127.148 35.7853 127.032C36.2646 127.349 37.3278 127.661 39.6669 127.295C41.8982 126.947 43.0019 126.605 43.541 126.373C43.5789 126.423 43.6063 126.48 43.6217 126.541C43.6372 126.601 43.6403 126.664 43.6309 126.726Z" fill="black"/>
<g opacity="0.1">
<path opacity="0.1" d="M53.2899 68.8442C53.2906 68.8382 53.2906 68.8322 53.2899 68.8262C53.3599 68.5643 53.3967 68.2946 53.3992 68.0236C53.3767 68.2403 53.3401 68.4554 53.2899 68.6675C53.2765 68.7256 53.2765 68.786 53.2899 68.8442Z" fill="black"/>
<path opacity="0.1" d="M51.2248 72.1567C51.2804 72.2844 51.3099 72.4219 51.3117 72.5611C51.3278 72.3692 51.298 72.1762 51.2248 71.998C51.1802 71.8894 51.101 71.7987 50.9994 71.7399C50.8978 71.6811 50.7796 71.6576 50.6633 71.673C50.3638 71.7434 50.2305 72.1388 49.934 72.2331C49.6839 72.3125 49.4098 72.1343 49.29 71.9007C49.1891 71.6573 49.147 71.3936 49.1672 71.1309C49.1672 70.8314 49.1672 70.5394 49.1672 70.2444C49.1672 69.9224 49.1568 69.575 48.9576 69.3219C48.7105 69.0059 48.131 68.8727 47.7431 68.8816C47.4854 68.8845 47.2383 68.9845 47.0512 69.1617C46.9567 69.2565 46.8421 69.3289 46.7159 69.3738C46.5897 69.4186 46.4551 69.4346 46.3219 69.4207C46.204 69.4033 46.0935 69.3526 46.0033 69.2747C45.9132 69.1967 45.8471 69.0946 45.8128 68.9805C45.7828 68.8667 45.7918 68.7454 45.7574 68.6316C45.675 68.353 45.3785 68.2092 45.1793 67.9981C44.9935 67.7921 44.8873 67.5266 44.8798 67.2493C44.8656 67.413 44.8848 67.5779 44.9363 67.7339C44.9878 67.8899 45.0705 68.0338 45.1793 68.1568C45.3785 68.368 45.675 68.5132 45.7574 68.7918C45.7918 68.9041 45.7828 69.0269 45.8128 69.1407C45.8477 69.2545 45.914 69.3562 46.004 69.4341C46.0941 69.5119 46.2043 69.5629 46.3219 69.581C46.4552 69.5947 46.5899 69.5784 46.7161 69.5333C46.8423 69.4882 46.9568 69.4155 47.0512 69.3204C47.2392 69.1459 47.4852 69.0472 47.7416 69.0434C48.1295 69.0314 48.709 69.1692 48.9561 69.4836C49.1553 69.7367 49.1642 70.0827 49.1657 70.4061C49.1657 70.7056 49.1657 70.9977 49.1657 71.2927C49.1454 71.5558 49.1874 71.8201 49.2885 72.0639C49.4083 72.2975 49.6824 72.4742 49.9325 72.3948C50.232 72.3005 50.3593 71.9067 50.6618 71.8348C50.7779 71.8193 50.896 71.8424 50.9977 71.9006C51.0994 71.9588 51.1792 72.0488 51.2248 72.1567Z" fill="black"/>
<path opacity="0.1" d="M54.1345 71.1819C54.0695 71.3636 53.9675 71.5299 53.835 71.6701C53.4436 72.1373 53.0537 72.605 52.6654 73.0733C52.1742 73.6648 51.6531 74.3491 51.6905 75.1039C51.7265 74.412 52.2086 73.7831 52.6654 73.2335L53.835 71.8288C53.9675 71.6891 54.0695 71.5234 54.1345 71.3421C54.1633 71.2145 54.1734 71.0833 54.1644 70.9528C54.1636 71.0301 54.1535 71.107 54.1345 71.1819Z" fill="black"/>
<path opacity="0.1" d="M51.0825 74.8673C51.0632 74.8055 51.0511 74.7417 51.0466 74.6771C51.0367 74.7947 51.0489 74.913 51.0825 75.026C51.1619 75.2836 51.4539 75.4948 51.6995 75.3854C51.6995 75.333 51.689 75.2806 51.6875 75.2357C51.4449 75.333 51.1559 75.1189 51.0825 74.8673Z" fill="black"/>
</g>
<path opacity="0.1" d="M39.3255 124.515C39.3255 124.515 39.6954 125.165 41.0372 124.591L39.3255 124.515Z" fill="black"/>
<path opacity="0.1" d="M50.6543 124.67C50.6543 124.67 51.8119 126.032 53.269 125.12L50.6543 124.67Z" fill="black"/>
<path opacity="0.1" d="M54.0208 108.569C54.0208 108.569 53.2031 109.08 53.1762 109.372C53.1492 109.664 53.5985 109.159 53.5985 109.159L54.0208 108.569Z" fill="black"/>
<path opacity="0.1" d="M54.3427 112.483C54.0589 112.72 53.7056 112.858 53.3363 112.876C52.7254 112.903 52.7763 113.699 53.1761 113.46C53.5759 113.22 54.3427 112.483 54.3427 112.483Z" fill="black"/>
<path opacity="0.1" d="M54.4984 112.994C54.4984 112.994 54.106 114.92 53.787 114.548L54.4984 112.994Z" fill="black"/>
<g opacity="0.5">
<path opacity="0.5" d="M80.8324 68.6839H70.9487V70.7805H80.8324V68.6839Z" fill="#DCE0ED"/>
<path opacity="0.5" d="M103.527 68.6839H93.6437V70.7805H103.527V68.6839Z" fill="#DCE0ED"/>
<path opacity="0.5" d="M126.222 68.6839H116.339V70.7805H126.222V68.6839Z" fill="#DCE0ED"/>
</g>
<path opacity="0.1" d="M143.063 120.676C145.291 120.676 147.096 120.371 147.096 119.995C147.096 119.619 145.291 119.314 143.063 119.314C140.836 119.314 139.031 119.619 139.031 119.995C139.031 120.371 140.836 120.676 143.063 120.676Z" fill="#00BAFC"/>
<path opacity="0.1" d="M17.6444 129.28C19.8716 129.28 21.6772 128.975 21.6772 128.598C21.6772 128.222 19.8716 127.917 17.6444 127.917C15.4171 127.917 13.6115 128.222 13.6115 128.598C13.6115 128.975 15.4171 129.28 17.6444 129.28Z" fill="#00BAFC"/>
<path d="M134.237 128.315C137.563 128.315 140.259 127.859 140.259 127.297C140.259 126.735 137.563 126.279 134.237 126.279C130.911 126.279 128.216 126.735 128.216 127.297C128.216 127.859 130.911 128.315 134.237 128.315Z" fill="#00BAFC"/>
<path d="M136.726 125.633C137.001 125.409 137.201 125.107 137.3 124.766C137.374 124.422 137.228 124.01 136.9 123.884C136.531 123.743 136.137 123.998 135.838 124.257C135.538 124.516 135.198 124.808 134.808 124.754C135.008 124.572 135.158 124.341 135.243 124.083C135.328 123.826 135.345 123.551 135.293 123.285C135.276 123.175 135.229 123.071 135.158 122.986C134.953 122.767 134.583 122.86 134.337 123.032C133.559 123.58 133.342 124.637 133.337 125.59C133.259 125.247 133.325 124.889 133.324 124.541C133.322 124.194 133.225 123.793 132.928 123.608C132.744 123.51 132.538 123.462 132.329 123.468C131.979 123.454 131.588 123.489 131.35 123.745C131.05 124.064 131.13 124.597 131.387 124.943C131.645 125.289 132.04 125.512 132.401 125.754C132.691 125.928 132.939 126.164 133.126 126.445C133.147 126.485 133.165 126.526 133.178 126.569H135.374C135.864 126.319 136.319 126.004 136.726 125.633Z" fill="#00BAFC"/>
<path d="M17.8286 118.49C17.8286 118.49 18.6522 119.567 17.4497 121.186C16.2472 122.804 15.2558 124.181 15.6527 125.194C15.6527 125.194 17.4677 122.177 18.9472 122.135C20.4268 122.093 19.4534 120.305 17.8286 118.49Z" fill="#00BAFC"/>
<path opacity="0.1" d="M17.8286 118.49C17.9006 118.594 17.9576 118.708 17.9978 118.828C19.4384 120.521 20.2051 122.101 18.8199 122.14C17.5306 122.177 15.9836 124.483 15.6122 125.066C15.6244 125.111 15.6389 125.155 15.6557 125.199C15.6557 125.199 17.4707 122.181 18.9502 122.14C20.4298 122.098 19.4534 120.305 17.8286 118.49Z" fill="black"/>
<path d="M19.3575 119.862C19.3575 120.241 19.3156 120.548 19.2632 120.548C19.2108 120.548 19.1688 120.248 19.1688 119.862C19.1688 119.475 19.2213 119.661 19.2737 119.661C19.3261 119.661 19.3575 119.483 19.3575 119.862Z" fill="#FFD037"/>
<path d="M19.8831 120.314C19.5507 120.495 19.2602 120.605 19.2362 120.558C19.2123 120.512 19.4593 120.327 19.7918 120.146C20.1242 119.965 19.994 120.097 20.0179 120.146C20.0419 120.196 20.2156 120.133 19.8831 120.314Z" fill="#FFD037"/>
<path d="M13.4843 118.49C13.4843 118.49 12.6607 119.567 13.8632 121.186C15.0657 122.804 16.0571 124.181 15.6602 125.194C15.6602 125.194 13.8467 122.177 12.3657 122.135C10.8846 122.093 11.8595 120.305 13.4843 118.49Z" fill="#00BAFC"/>
<path opacity="0.1" d="M13.4843 118.49C13.4123 118.594 13.3553 118.708 13.3151 118.828C11.8745 120.521 11.1077 122.101 12.4929 122.14C13.7823 122.177 15.3292 124.483 15.7006 125.066C15.6886 125.111 15.6736 125.156 15.6557 125.199C15.6557 125.199 13.8422 122.181 12.3612 122.14C10.8801 122.098 11.8595 120.305 13.4843 118.49Z" fill="black"/>
<path d="M11.9538 119.862C11.9538 120.241 11.9973 120.548 12.0497 120.548C12.1021 120.548 12.144 120.248 12.144 119.862C12.144 119.475 12.0916 119.661 12.0392 119.661C11.9868 119.661 11.9538 119.483 11.9538 119.862Z" fill="#FFD037"/>
<path d="M11.4297 120.314C11.7622 120.495 12.0512 120.605 12.0766 120.558C12.1021 120.512 11.8535 120.327 11.521 120.146C11.1886 119.965 11.3189 120.097 11.2934 120.146C11.268 120.196 11.0972 120.133 11.4297 120.314Z" fill="#FFD037"/>
<path d="M12.2204 125.058C12.2204 125.058 14.5206 124.986 15.2154 124.494C15.9103 124.001 18.7541 123.409 18.9263 124.202C19.0985 124.994 22.3826 128.139 19.7859 128.16C17.1892 128.18 13.7523 127.755 13.0605 127.334C12.3686 126.914 12.2204 125.058 12.2204 125.058Z" fill="#A8A8A8"/>
<path opacity="0.2" d="M19.8263 127.884C17.2296 127.905 13.7913 127.48 13.0994 127.059C12.5738 126.737 12.3626 125.585 12.2938 125.055H12.2159C12.2159 125.055 12.3656 126.909 13.0545 127.331C13.7434 127.754 17.1832 128.177 19.7799 128.156C20.5287 128.156 20.7877 127.884 20.7742 127.489C20.6694 127.731 20.3834 127.879 19.8263 127.884Z" fill="black"/>
<path d="M70.2494 83.3252C70.2494 80.2643 72.7398 77.9131 75.8023 77.9131H75.8457V76.5204H75.8023C71.9716 76.5204 68.8568 79.496 68.8568 83.3252C68.8566 84.3158 69.069 85.295 69.4795 86.1966C69.89 87.0981 70.4891 87.9012 71.2363 88.5516L72.2232 87.5647C71.605 87.0446 71.1081 86.3957 70.7671 85.6634C70.4262 84.931 70.2495 84.133 70.2494 83.3252Z" fill="#00BAFC"/>
<path opacity="0.5" d="M75.9849 76.522V77.9147C76.8767 77.9206 77.7539 78.1413 78.5424 78.5581C79.3308 78.9749 80.0072 79.5756 80.5143 80.3092C81.0214 81.0428 81.3443 81.8877 81.4557 82.7726C81.5671 83.6574 81.4637 84.556 81.1542 85.3924C80.8446 86.2288 80.3382 86.9783 79.6777 87.5775C79.0171 88.1767 78.222 88.6079 77.3594 88.8347C76.4969 89.0615 75.5925 89.0771 74.7227 88.8803C73.8529 88.6834 73.0432 88.28 72.3624 87.7039L71.3725 88.6908C72.216 89.4283 73.2254 89.9507 74.3145 90.2133C75.4037 90.476 76.5402 90.4712 77.6271 90.1993C78.714 89.9274 79.7189 89.3965 80.5561 88.652C81.3932 87.9074 82.0378 86.9713 82.4347 85.9236C82.8315 84.8758 82.9689 83.7476 82.8351 82.6353C82.7013 81.5229 82.3003 80.4595 81.6663 79.5357C81.0323 78.612 80.1842 77.8554 79.1943 77.3306C78.2044 76.8058 77.1023 76.5284 75.9819 76.522H75.9849Z" fill="#00BAFC"/>
<path opacity="0.5" d="M121.51 77.8428C124.571 77.8428 126.922 80.3332 126.922 83.3956C126.922 83.4091 126.922 83.424 126.922 83.439H128.314C128.314 83.424 128.314 83.4091 128.314 83.3956C128.314 79.5664 125.339 76.4501 121.51 76.4501C120.519 76.4498 119.54 76.662 118.638 77.0725C117.737 77.483 116.933 78.0822 116.283 78.8296L117.27 79.8165C117.79 79.1984 118.439 78.7014 119.171 78.3605C119.904 78.0195 120.702 77.8428 121.51 77.8428Z" fill="#00BAFC"/>
<path d="M128.313 83.5782H126.92C126.914 84.47 126.694 85.3473 126.277 86.1357C125.86 86.9241 125.259 87.6005 124.526 88.1076C123.792 88.6148 122.947 88.9377 122.062 89.0491C121.177 89.1604 120.279 89.057 119.442 88.7475C118.606 88.438 117.857 87.9315 117.257 87.271C116.658 86.6105 116.227 85.8153 116 84.9528C115.773 84.0903 115.758 83.1858 115.955 82.316C116.151 81.4462 116.555 80.6366 117.131 79.9557L116.148 78.9689C115.411 79.8123 114.889 80.8217 114.626 81.9108C114.363 83 114.368 84.1365 114.64 85.2234C114.912 86.3103 115.443 87.3152 116.187 88.1524C116.932 88.9896 117.868 89.6341 118.916 90.031C119.963 90.4279 121.092 90.5653 122.204 90.4315C123.316 90.2977 124.38 89.8966 125.304 89.2626C126.227 88.6286 126.984 87.7805 127.509 86.7906C128.034 85.8008 128.311 84.6986 128.317 83.5782H128.313Z" fill="#00BAFC"/>
<path opacity="0.5" d="M101.323 76.9293L101.046 78.316C103.084 79.1381 104.387 81.1358 104.387 83.4644C104.387 84.4651 104.117 85.4473 103.605 86.307C103.093 87.1668 102.358 87.8721 101.478 88.3484C100.598 88.8246 99.6052 89.0542 98.6054 89.0127C97.6055 88.9712 96.6355 88.6602 95.7979 88.1126C94.9603 87.565 94.2863 86.8012 93.8473 85.902C93.4082 85.0028 93.2203 84.0016 93.3035 83.0044C93.3868 82.0071 93.738 81.0509 94.3201 80.237C94.9022 79.423 95.6935 78.7815 96.6103 78.3804L95.9933 77.1299C94.8552 77.6423 93.8762 78.4519 93.1595 79.4737C92.4427 80.4955 92.0147 81.6917 91.9204 82.9362C91.8261 84.1808 92.0691 85.4277 92.6238 86.5458C93.1785 87.6639 94.0243 88.6118 95.0723 89.2898C96.1202 89.9677 97.3316 90.3505 98.5788 90.3981C99.826 90.4456 101.063 90.156 102.159 89.5598C103.256 88.9635 104.172 88.0827 104.81 87.0101C105.448 85.9374 105.785 84.7126 105.786 83.4644C105.786 80.4589 104.007 77.8952 101.323 76.9293Z" fill="#00BAFC"/>
<path d="M99.0153 77.8323C99.6805 77.832 100.339 77.9686 100.949 78.2336L101.226 76.8484C100.52 76.5769 99.771 76.4383 99.0153 76.4396C98.0342 76.4396 97.0643 76.6483 96.17 77.0521L96.793 78.2995C97.4932 77.9907 98.2501 77.8316 99.0153 77.8323Z" fill="#00BAFC"/>
</g>
<defs>
<linearGradient id="paint0_linear" x1="46.1392" y1="128.598" x2="46.1392" y2="65.3548" gradientUnits="userSpaceOnUse">
<stop stop-color="#808080" stop-opacity="0.25"/>
<stop offset="0.54" stop-color="#808080" stop-opacity="0.12"/>
<stop offset="1" stop-color="#808080" stop-opacity="0.1"/>
</linearGradient>
<clipPath id="clip0">
<rect width="169.22" height="130" fill="white" transform="translate(0.389931)"/>
</clipPath>
</defs>
</svg>
