<svg width="300" height="172" viewBox="0 0 300 172" fill="none" xmlns="http://www.w3.org/2000/svg">
<g clip-path="url(#clip0)">
<path opacity="0.1" d="M180.346 123.829C186.142 123.498 193.332 119.567 198.923 117.829C205.54 115.776 212.184 113.802 218.853 111.905C242.072 105.298 265.539 99.6688 289.256 95.0167C291.469 94.5814 293.686 94.1566 295.906 93.7423C292.448 86.269 287.09 79.8336 280.366 75.0788C280.538 73.4428 280.626 71.799 280.628 70.154C280.628 44.1557 259.851 23.0797 234.212 23.0797C226.319 23.0713 218.558 25.1087 211.686 28.9931C193.539 17.0561 169.854 9.83142 143.94 9.83142C107.116 9.83142 74.7902 24.4197 56.4729 46.3874L142.56 60.9311L195.359 69.8472C135.168 71.6435 74.7902 73.4293 14.7718 69.2125C6.84911 76.8785 1.83458 87.0579 0.585228 98.0113C-0.66412 108.965 1.92927 120.012 7.92218 129.265C7.92218 130.206 7.96151 131.14 8.03232 132.066C9.56116 132.504 11.0376 132.928 12.3619 133.206C33.6224 137.698 55.0192 141.456 76.5524 144.483C60.6844 154.267 41.3601 155.651 23.0559 159.795C31.9196 167.111 43.9563 171.595 57.2203 171.595H254.717C276.102 171.595 293.436 156.708 293.436 138.341C296.645 133.049 298.784 127.178 299.73 121.062C260.158 124.883 220.094 121.566 180.346 123.829Z" fill="#00BAFC"/>
<path opacity="0.1" d="M300 113.24C300.021 105.67 298.222 98.206 294.753 91.4778C291.284 84.7495 286.248 78.9541 280.07 74.5805C280.241 72.9453 280.328 71.3024 280.332 69.6583C280.332 43.6601 259.545 22.5919 233.916 22.5919C226.022 22.5834 218.26 24.6198 211.387 28.5027C193.24 16.5604 169.552 9.33313 143.638 9.33313C101.486 9.33313 65.2028 28.4634 49.1119 55.8961C48.2177 55.8436 47.3182 55.8148 46.4109 55.8148C20.7797 55.8148 -0.00522705 76.8908 -0.00522705 102.889C-0.0231923 112.072 2.63001 121.062 7.63114 128.764C7.63114 152.156 29.7089 171.118 56.9318 171.118H254.434C275.816 171.118 293.15 156.228 293.15 137.861C297.648 130.437 300.017 121.92 300 113.24Z" fill="#00BAFC"/>
<path d="M245.004 84.3988C244.629 84.1109 244.19 83.9184 243.724 83.8376C243.233 83.7248 242.733 83.654 242.234 83.5753L235.778 82.6444C235.126 82.5234 234.462 82.4882 233.801 82.5395C233.469 82.5667 233.146 82.6595 232.851 82.8126C232.556 82.9657 232.294 83.1759 232.08 83.4311C231.888 83.6686 231.783 83.9647 231.781 84.2703C231.817 84.5778 231.917 84.8744 232.075 85.1409C232.138 85.2654 232.191 85.3942 232.235 85.5264C232.297 85.823 232.374 86.1162 232.466 86.4049C232.494 86.4674 232.532 86.5256 232.576 86.578C232.577 86.5928 232.577 86.6077 232.576 86.6226C232.505 86.9844 232.733 87.3621 232.631 87.7108C232.542 88.0098 232.251 88.1907 232.067 88.4399C231.945 88.6166 231.877 88.8254 231.872 89.0404C231.868 89.2553 231.926 89.4669 232.041 89.6488C232.238 89.953 232.594 90.1601 232.697 90.5089C232.83 90.9678 232.469 91.411 232.146 91.765C231.553 92.4168 231.004 93.108 230.504 93.8341C230.364 94.0127 230.273 94.2253 230.242 94.4503C230.213 94.9066 230.651 95.3079 230.575 95.7615C230.515 96.1182 230.166 96.3358 229.865 96.5482C228.75 97.2825 227.856 98.4626 227.767 99.7974C227.48 97.6737 226.601 95.6739 225.228 94.0281C224.853 93.5771 224.441 93.1234 224.287 92.5518C224.229 92.3236 224.219 92.0797 224.14 91.8594C223.878 91.1645 223.044 90.8656 222.679 90.2257C222.417 89.7747 222.417 89.1951 222.092 88.7991C221.767 88.4031 221.255 88.314 220.975 87.9311C220.835 87.6718 220.715 87.4017 220.618 87.1234C220.5 86.8965 220.335 86.6979 220.133 86.5413C220.094 86.5103 220.054 86.4814 220.012 86.4547C220.056 86.4158 220.091 86.3681 220.115 86.3148C220.139 86.2615 220.151 86.2037 220.151 86.1453C220.151 85.8385 219.847 85.6365 219.582 85.4844C219.241 85.2904 218.908 85.0806 218.583 84.8629C218.938 84.6978 219.245 84.4462 219.477 84.1313C219.768 83.6616 219.889 83.1059 219.818 82.5579C219.8 82.1155 219.635 81.6919 219.349 81.3542C219.184 81.1785 218.976 81.0526 218.803 80.8874C218.355 80.4495 218.203 79.8018 218.017 79.2038C217.77 78.4171 217.385 77.5911 216.666 77.1741C216.32 76.9722 215.916 76.8778 215.578 76.6654C215.24 76.453 214.956 76.0518 215.074 75.6663C215.153 75.404 215.397 75.2231 215.562 75.0002C215.759 74.7119 215.835 74.3576 215.773 74.0139C215.71 73.6703 215.515 73.3651 215.229 73.1645C215.035 73.0413 214.796 72.9337 214.757 72.7082C214.605 72.6688 214.468 72.5873 214.36 72.4732C214.252 72.3591 214.179 72.217 214.149 72.0631C214.09 71.7547 214.09 71.4379 214.149 71.1295C214.217 70.6418 214.284 70.1558 214.351 69.6715C214.466 69.7195 214.59 69.7443 214.715 69.7443C214.84 69.7443 214.964 69.7195 215.08 69.6715C215.306 70.0398 215.57 70.3842 215.866 70.6995C216.665 71.6425 217.287 72.7218 217.702 73.8857C217.851 74.3052 218.004 74.7747 218.392 74.9976C218.525 75.0736 218.677 75.1129 218.809 75.1942C218.97 75.3069 219.109 75.4493 219.218 75.6138C219.532 76.0308 219.847 76.4451 220.159 76.8621L220.175 76.925C220.183 76.9619 220.197 76.9973 220.217 77.0299C220.275 77.0953 220.355 77.1364 220.442 77.1453C221.407 77.3682 222.49 77.5727 223.327 77.0456C224.082 76.5736 224.413 75.64 225.052 75.0159C225.506 74.5727 226.149 74.2292 226.277 73.6051C226.124 73.5578 225.973 73.5027 225.826 73.4399C225.957 73.3087 226.088 73.1566 226.267 72.9836C226.526 72.7299 226.759 72.4515 226.964 72.1523C227.186 71.7831 227.362 71.3887 227.489 70.9775C227.994 69.5369 228.501 68.0955 229.01 66.6531C229.251 65.9713 229.492 65.2843 229.796 64.6208C230.111 63.9023 230.483 63.2126 230.827 62.5072C231.714 60.6726 232.398 58.7469 232.867 56.7642C232.95 56.4937 232.978 56.2091 232.948 55.9276C232.875 55.474 232.531 55.1173 232.204 54.7948C231.874 54.4379 231.498 54.1266 231.087 53.8691C230.88 53.7405 230.649 53.6543 230.409 53.6156C230.169 53.5769 229.923 53.5864 229.686 53.6435C229.015 53.8402 228.593 54.5273 228.438 55.217C228.283 55.9066 228.341 56.6173 228.275 57.3149C228.181 58.3245 227.835 59.3 227.751 60.3122C227.706 60.897 227.751 61.4897 227.68 62.0745C227.551 62.8398 227.285 63.5754 226.893 64.2458C226.043 65.8446 224.892 67.2639 223.503 68.4259C223.343 68.5596 223.177 68.6881 223.02 68.8323C223.02 68.7196 223.038 68.6042 223.054 68.4914C222.94 68.5211 222.829 68.5606 222.721 68.6094C222.734 68.477 222.721 68.3433 222.682 68.2161C222.472 67.5893 221.538 67.4294 221.371 66.7921C221.343 66.6345 221.328 66.4749 221.326 66.3149C221.271 65.7563 220.891 65.2843 220.76 64.7414C220.639 64.2406 220.731 63.6925 220.497 63.2283C220.299 62.9381 220.064 62.6738 219.8 62.4416C219.485 62.0817 219.258 61.6535 219.136 61.1907C219.102 61.0622 219.071 60.9285 219.034 60.8C219.074 60.509 219.042 60.2127 218.94 59.9372C218.701 59.3446 218.085 58.9643 217.862 58.3638C217.689 57.897 217.765 57.3149 217.437 56.953C217.263 56.7801 217.05 56.6515 216.816 56.578C215.615 56.1106 214.356 55.8131 213.073 55.6942C212.355 55.6287 211.563 55.592 211.049 55.0858C210.448 54.4984 210.42 53.4416 209.717 52.9879C209.098 52.5867 208.222 52.883 207.742 53.4469C207.67 53.5298 207.603 53.6174 207.543 53.7091C207.455 53.3576 207.437 52.9925 207.488 52.6339C207.488 52.5448 207.506 52.453 207.514 52.3717C208.698 51.9848 209.706 51.189 210.357 50.1269C210.357 50.1269 210.357 50.1269 210.357 50.1427L210.388 50.224C210.464 50.4154 210.585 50.599 210.763 50.6199C210.882 50.6185 210.996 50.5769 211.088 50.5019C211.247 50.392 211.392 50.2654 211.524 50.1243C211.59 50.0509 211.653 49.9748 211.712 49.8962C211.833 49.7324 211.937 49.5566 212.022 49.3717C212.152 49.0934 212.241 48.7973 212.284 48.4932C212.331 48.189 212.337 47.8769 212.389 47.5727C212.438 47.3373 212.502 47.1051 212.58 46.8778C212.607 46.8017 212.633 46.7257 212.656 46.6497C212.68 46.5736 212.714 46.4713 212.74 46.3874C212.905 45.8481 212.993 45.2885 213.003 44.7248C213.003 44.6304 213.003 44.536 213.003 44.4416C212.993 44.0737 212.91 43.7115 212.759 43.376C212.608 43.0405 212.391 42.7386 212.122 42.4879C211.67 42.1182 211.073 41.9635 210.742 41.4626C210.527 41.1269 210.48 40.6942 210.354 40.3009C210.218 39.8301 209.953 39.4069 209.588 39.0792C209.224 38.7515 208.775 38.5325 208.293 38.4469C207.712 38.3831 207.128 38.5435 206.662 38.8953L206.625 38.9241C206.365 39.1227 206.144 39.3682 205.975 39.6479C205.628 39.5525 205.311 39.3722 205.052 39.1234C204.789 38.8795 204.587 38.5727 204.323 38.3367C204.075 38.11 203.771 37.954 203.443 37.8848C203.114 37.8156 202.773 37.8358 202.455 37.9434C202.128 38.0745 201.836 38.2815 201.604 38.5473C201.372 38.813 201.206 39.13 201.121 39.4722C200.976 40.0124 201.003 40.6339 200.701 41.085C200.468 41.4364 200.085 41.6094 199.817 41.9294C199.651 42.132 199.538 42.3725 199.487 42.6295C199.455 42.7733 199.44 42.9203 199.442 43.0675C199.442 43.133 199.442 43.1986 199.458 43.2615C199.458 43.2615 199.458 43.2825 199.458 43.293C199.467 43.3649 199.482 43.4359 199.503 43.5054C199.577 43.7713 199.711 44.0169 199.893 44.224C200.066 44.4223 200.283 44.5784 200.525 44.6803C200.625 44.7189 200.726 44.7513 200.83 44.7773L201.142 44.8481L201.252 44.8743C200.875 45.5814 200.666 46.3655 200.641 47.1662C200.615 47.9669 200.774 48.7627 201.105 49.4923C201.105 49.5657 201.087 49.6392 201.079 49.7126C201.036 50.7452 201.082 51.7795 201.215 52.8044C201.252 53.2108 201.273 53.6593 201.024 53.9818C200.91 54.1087 200.783 54.2222 200.643 54.3201C200.785 54.1365 200.929 53.9556 201.076 53.7747C200.706 53.4023 200.122 53.3551 199.597 53.3918C198.582 53.4676 197.597 53.7686 196.712 54.2729C196.125 54.6112 195.522 55.0596 194.851 54.9809C194.455 54.9364 194.064 54.7187 193.678 54.8236C193.462 54.9123 193.259 55.0324 193.078 55.1802C192.934 55.2831 192.761 55.3365 192.585 55.3323C192.173 54.8262 191.536 54.4827 191.043 54.071C190.482 53.5715 189.968 53.0211 189.509 52.4267C188.659 51.4014 187.812 50.3734 186.978 49.3376C186.275 48.467 185.554 47.5255 185.431 46.411C185.418 46.3004 185.412 46.1893 185.413 46.078C185.43 45.5484 185.496 45.0216 185.612 44.5045C185.643 44.3797 185.643 44.2491 185.612 44.1243C185.533 43.8621 185.232 43.765 184.972 43.7073C185.006 43.5054 185.03 43.2983 185.043 43.1016C185.19 40.8463 185.03 38.5544 185.507 36.3463C185.688 35.4967 185.984 34.6365 186.595 34.0203C187.552 33.0526 189.155 32.8192 189.889 31.6733C190.503 30.7187 190.259 29.3682 189.488 28.5264C188.717 27.6846 187.529 27.3411 186.399 27.383C186.081 27.3722 185.768 27.4562 185.499 27.6243C185.248 27.8477 185.059 28.1336 184.954 28.453L183.829 31.1881C183.503 31.9002 183.227 32.6346 183.005 33.3857C182.691 34.5343 182.62 35.7458 182.371 36.9049C182.371 37.7965 181.796 38.9084 181.482 39.7292C181.13 40.6523 180.75 41.5649 180.433 42.5063C180.354 42.7423 180.079 43.4425 179.908 44.0797C179.844 44.1172 179.784 44.1621 179.73 44.2135C179.593 44.3889 179.469 44.5738 179.358 44.7668C179.119 45.0815 178.731 45.2493 178.469 45.5535C178.206 45.8577 178.151 46.4163 178.516 46.5684C178.59 46.5932 178.666 46.6099 178.744 46.6182C178.792 46.6222 178.839 46.6301 178.886 46.6418C179.279 46.7519 179.434 47.2476 179.376 47.6566C179.318 48.0657 179.114 48.4434 179.08 48.8525C179.009 49.5762 179.434 50.2502 179.843 50.8586C180.266 51.5181 180.734 52.148 181.243 52.7441C181.613 53.1584 182.03 53.5308 182.402 53.9294C183.821 55.3874 184.948 57.092 186.223 58.6759C186.681 59.2737 187.203 59.8205 187.778 60.307C188.154 60.6008 188.547 60.8714 188.955 61.1173L191.148 62.5072C191.396 62.6894 191.678 62.822 191.976 62.8979C192.074 62.911 192.173 62.911 192.27 62.8979C192.283 62.9635 192.294 63.0264 192.309 63.092C192.48 63.779 192.855 64.4031 192.897 65.1033C192.939 65.8035 192.876 66.5194 192.926 67.2274C192.973 67.8804 193.117 68.5386 193.154 69.1811C193.227 70.4189 192.923 71.6409 192.629 72.8524C192.186 74.6252 191.919 76.4346 191.056 78.0421C190.815 78.4853 190.531 78.9364 190.531 79.4425C190.531 79.5028 190.531 79.5657 190.547 79.626L190.154 79.8489C190.038 79.9145 189.923 79.9801 189.818 80.0483C189.32 80.3734 188.788 80.7327 188.583 81.2939C188.418 81.7476 188.494 82.2668 188.295 82.7073C188.285 82.7271 188.275 82.7464 188.263 82.765C188.053 83.1741 187.636 83.4783 187.542 83.9268C187.471 84.2703 187.608 84.6348 187.542 84.9757C187.542 84.9757 187.542 84.9757 187.542 84.9888C187.482 85.16 187.435 85.3353 187.4 85.5133C187.398 85.5714 187.403 85.6297 187.416 85.6864C187.466 85.8851 187.576 86.0636 187.731 86.1977C187.825 86.2884 187.928 86.3701 188.038 86.4416C188.149 86.515 188.265 86.5832 188.384 86.6462L188.452 86.6829C188.552 86.7353 188.651 86.7851 188.754 86.8323L188.822 86.8612C188.94 86.9136 189.06 86.9608 189.181 87.0028L189.265 87.029C189.359 87.0605 189.456 87.0893 189.553 87.1129L189.619 87.1339L189.679 87.147L189.941 87.2021L190.038 87.2205C190.154 87.2397 190.272 87.2554 190.393 87.2677H190.497C190.587 87.2677 190.673 87.2808 190.76 87.2834H190.883C190.975 87.2834 191.064 87.2834 191.145 87.2834H191.24C191.363 87.2834 191.486 87.265 191.609 87.2493H191.649C191.759 87.2336 191.869 87.2152 191.979 87.1916L192.063 87.1732C192.165 87.1496 192.267 87.126 192.37 87.0946L192.425 87.0788C192.548 87.0421 192.671 87.0028 192.792 86.9556C193.209 86.784 193.614 86.5834 194.004 86.3551C194.266 86.2108 194.528 86.064 194.79 85.9302C194.985 85.8322 195.184 85.7447 195.388 85.668C195.884 85.4561 196.424 85.3662 196.962 85.4058C197.227 85.4419 197.49 85.4954 197.748 85.5657C197.748 85.5946 197.748 85.6234 197.748 85.6523C197.962 86.911 198.172 88.1698 198.38 89.4285C198.724 89.1813 199.087 88.9629 199.466 88.7755C199.395 88.9656 199.348 89.1638 199.327 89.3656C199.311 89.5216 199.311 89.6789 199.327 89.835C199.351 90.0841 199.403 90.3594 199.254 90.5561C199.162 90.6768 198.991 90.7449 198.941 90.8813C198.905 91.0207 198.896 91.1659 198.915 91.3087C198.904 91.4717 198.836 91.6255 198.721 91.7419C198.606 91.8584 198.454 91.9299 198.291 91.9434C198.366 92.1544 198.368 92.3847 198.296 92.5969C198.224 92.8091 198.083 92.9909 197.895 93.1129C197.785 93.1657 197.683 93.2327 197.591 93.3122C197.501 93.4281 197.441 93.564 197.415 93.7082C197.069 95.0069 196.356 96.1784 195.362 97.0832C194.989 97.3762 194.649 97.7086 194.347 98.0745C194.161 98.3578 194.007 98.6613 193.888 98.9792C193.189 100.689 192.479 102.4 191.759 104.111C191.36 105.068 190.972 106.041 190.846 107.072C190.531 109.899 188.014 112.296 188.486 115.102C188.581 115.803 188.864 116.465 189.304 117.019C189.829 117.651 190.615 118.012 191.402 118.306C193.424 119.093 195.556 119.523 197.68 119.956L201.016 120.64C201.67 120.791 202.334 120.896 203.004 120.955C203.809 121.01 204.635 120.934 205.419 121.138C205.904 121.264 206.368 121.498 206.869 121.524C207.299 121.547 207.829 121.456 208.083 121.807C208.337 122.158 208.141 122.623 208.382 122.935C208.77 123.43 209.717 122.935 210.139 123.401C210.254 123.581 210.343 123.776 210.401 123.981C210.465 124.108 210.555 124.22 210.663 124.311C210.689 124.459 210.7 124.61 210.695 124.76C210.64 125.369 210.513 125.969 210.317 126.548C210.003 127.613 209.689 128.678 209.376 129.745C209.256 130.122 209.169 130.508 209.114 130.899C209.094 131.089 209.094 131.28 209.114 131.47C209.169 132.05 209.502 132.648 210.055 132.837C210.484 132.95 210.941 132.894 211.33 132.679C211.705 132.484 212.057 132.246 212.379 131.971C212.959 131.532 213.469 131.007 213.892 130.414C215.203 128.452 214.778 125.798 215.698 123.63C216.309 122.182 217.5 121.007 217.896 119.481C217.989 119.191 218 118.88 217.927 118.584C217.762 118.06 217.204 117.761 216.682 117.572H216.658C216.23 117.419 215.792 117.294 215.347 117.197C215.237 117.173 215.124 117.155 215.011 117.137C214.762 116.934 214.563 116.675 214.432 116.381C214.411 116.225 214.37 116.073 214.309 115.928C214.267 115.865 214.211 115.813 214.145 115.777C214.08 115.741 214.006 115.72 213.931 115.718C213.669 115.692 213.317 115.786 213.031 115.765C212.447 115.723 212.059 115.149 211.534 114.884C211.01 114.619 210.441 114.685 209.882 114.724C209.682 114.751 209.479 114.739 209.284 114.687C209.051 114.58 208.838 114.434 208.655 114.255C208.332 114.003 207.955 113.831 207.554 113.75C207.153 113.67 206.739 113.683 206.344 113.79C206.093 113.892 205.828 113.952 205.558 113.969C205.046 113.94 204.684 113.484 204.307 113.137C203.274 112.191 201.802 111.942 200.549 111.32C200.357 111.249 200.197 111.111 200.098 110.932C199.954 110.575 200.279 110.219 200.573 109.975L202.728 108.184C205.088 106.222 208.038 104.746 209.135 101.869C209.249 101.483 209.426 101.119 209.659 100.791C209.744 100.691 209.842 100.603 209.95 100.529C210.427 100.22 211.005 100.107 211.563 100.214C212.243 100.367 212.888 100.648 213.462 101.043C214.4 101.611 215.314 102.223 216.202 102.879C217.082 103.507 217.918 104.194 218.706 104.935C220.083 106.246 221.229 107.801 222.511 109.214C223.794 110.628 225.26 111.947 227.04 112.623C228.821 113.3 230.974 113.271 232.503 112.136C234.268 110.824 234.834 108.48 235.28 106.33C236.263 105.38 236.559 103.935 237.039 102.658C237.341 101.848 237.726 101.085 238.052 100.277C238.44 99.328 238.744 98.3472 239.048 97.3691C239.393 96.3868 239.627 95.3691 239.746 94.335C239.872 92.7012 239.434 90.9626 239.893 89.4285C240.498 89.2948 241.049 88.9538 241.644 88.7545C242.531 88.4635 243.48 88.5107 244.419 88.5159H244.479C244.803 88.5503 245.128 88.4736 245.402 88.2983C245.717 88.036 245.767 87.5876 245.782 87.1811C245.819 86.1767 245.756 85.0491 245.004 84.3988ZM207.008 39.6663C206.791 39.7199 206.567 39.7359 206.344 39.7135L207.008 39.6663Z" fill="url(#paint0_linear)"/>
<path d="M208.041 56.2553C207.724 56.525 207.351 56.7227 206.95 56.8349L205.091 57.5009C204.081 57.8628 203.027 58.2273 201.962 58.0962C201.367 58.0228 198.816 57.6478 198.43 57.1836C197.843 56.4651 199.901 55.4083 200.604 54.8025C200.763 54.688 200.911 54.558 201.045 54.4144C201.307 54.0945 201.273 53.646 201.236 53.2422C201.103 52.2191 201.057 51.1865 201.1 50.1557C201.12 49.9099 201.155 49.6656 201.205 49.424C201.467 48.2177 202.589 48.6583 203.475 48.9782C204.542 49.3248 205.574 49.7717 206.557 50.313C206.856 50.4673 207.116 50.688 207.317 50.9581C207.705 51.5455 207.551 52.3165 207.488 53.056C207.433 53.6303 207.435 54.181 207.795 54.598C207.975 54.7574 208.141 54.9329 208.29 55.1224C208.374 55.3133 208.395 55.5259 208.35 55.7295C208.306 55.9332 208.197 56.1173 208.041 56.2553Z" fill="#BE6F72"/>
<path d="M182.358 37.3559C182.62 36.1941 182.677 34.9957 182.992 33.8445C183.214 33.096 183.489 32.3642 183.816 31.6548L184.972 28.9564C185.078 28.6378 185.266 28.3528 185.517 28.1303C185.787 27.9634 186.1 27.8795 186.417 27.8891C187.547 27.8471 188.735 28.1985 189.506 29.0298C190.277 29.8611 190.521 31.2064 189.907 32.1583C189.173 33.3043 187.571 33.5351 186.614 34.5001C186.003 35.1164 185.706 35.9739 185.525 36.8209C185.048 39.0237 185.208 41.3078 185.061 43.5578C185.014 44.258 184.878 45.0578 184.274 45.4197C183.91 45.5983 183.505 45.677 183.1 45.6478L181.379 45.6767C181.091 45.6767 180.045 45.8576 179.853 45.64C179.517 45.2597 180.283 43.3663 180.422 42.9441C180.732 42.008 181.112 41.0954 181.471 40.1749C181.783 39.3541 182.358 38.2448 182.358 37.3559Z" fill="#BE6F72"/>
<path d="M217.878 119.741C217.482 121.256 216.291 122.436 215.68 123.881C214.76 126.045 215.174 128.691 213.873 130.647C213.451 131.241 212.941 131.767 212.36 132.207C212.038 132.481 211.686 132.718 211.311 132.913C210.922 133.127 210.466 133.184 210.037 133.07C209.483 132.881 209.15 132.283 209.095 131.706C209.076 131.517 209.076 131.327 209.095 131.137C209.15 130.747 209.238 130.362 209.358 129.986C209.672 128.925 209.986 127.862 210.299 126.797C210.495 126.22 210.622 125.621 210.677 125.014C210.711 124.353 210.291 123.493 210.469 122.877C210.551 122.599 210.855 122.352 210.994 122.119C211.191 121.783 211.343 121.422 211.445 121.046C211.66 120.315 211.807 119.533 212.258 118.917C212.552 118.552 212.896 118.229 213.281 117.96C213.564 117.711 213.896 117.525 214.256 117.412C214.605 117.35 214.963 117.367 215.305 117.462C215.75 117.557 216.188 117.681 216.616 117.834H216.64C217.164 118.023 217.72 118.314 217.886 118.844C217.966 119.138 217.963 119.448 217.878 119.741Z" fill="#3F3D56"/>
<path d="M245.78 87.501C245.764 87.9075 245.714 88.3611 245.399 88.6155C245.125 88.7908 244.8 88.8676 244.476 88.8332H244.406C243.469 88.8332 242.517 88.7807 241.631 89.0718C240.957 89.2947 240.338 89.7038 239.636 89.7851C238.668 89.8952 237.758 89.3655 236.9 88.904C236.093 88.469 235.264 88.0751 234.417 87.7239C233.861 87.4957 232.726 87.3489 232.458 86.7405C232.366 86.4526 232.289 86.1603 232.227 85.8646C232.183 85.7325 232.13 85.6036 232.067 85.4791C231.91 85.2134 231.81 84.9178 231.774 84.6111C231.775 84.3055 231.88 84.0094 232.073 83.772C232.287 83.5187 232.548 83.3103 232.843 83.1586C233.138 83.0069 233.46 82.915 233.79 82.8882C234.451 82.8369 235.116 82.8721 235.768 82.9931L242.224 83.9214C242.722 83.9922 243.223 84.063 243.713 84.1837C244.179 84.2645 244.618 84.457 244.993 84.7449C245.756 85.3847 245.819 86.5097 245.78 87.501Z" fill="#3F3D56"/>
<path d="M240.105 89.1793C239.318 90.8393 239.885 92.8034 239.743 94.6391C239.624 95.6707 239.39 96.6857 239.045 97.6653C238.741 98.6408 238.437 99.619 238.049 100.566C237.724 101.352 237.338 102.139 237.037 102.942C236.557 104.221 236.25 105.661 235.277 106.613C234.831 108.758 234.265 111.102 232.5 112.403C230.966 113.536 228.829 113.575 227.038 112.891C225.247 112.206 223.791 110.895 222.509 109.482C221.226 108.068 220.08 106.529 218.704 105.213C217.915 104.472 217.076 103.786 216.194 103.159C215.306 102.514 214.392 101.907 213.454 101.339C212.879 100.946 212.235 100.666 211.555 100.513C210.997 100.406 210.419 100.519 209.942 100.828C209.834 100.902 209.736 100.99 209.651 101.09C209.418 101.417 209.241 101.78 209.127 102.165C208.025 105.034 205.07 106.508 202.71 108.464L200.554 110.25C200.26 110.494 199.935 110.851 200.08 111.205C200.179 111.384 200.339 111.521 200.531 111.593C201.784 112.212 203.255 112.461 204.288 113.405C204.666 113.751 205.028 114.207 205.539 114.233C205.809 114.218 206.075 114.158 206.326 114.058C206.721 113.951 207.135 113.937 207.535 114.017C207.936 114.097 208.313 114.269 208.636 114.519C208.82 114.698 209.033 114.845 209.266 114.952C209.461 115.004 209.664 115.016 209.864 114.989C210.422 114.949 211.015 114.9 211.516 115.149C212.017 115.398 212.428 115.985 213.013 116.027C213.299 116.048 213.64 115.954 213.913 115.98C213.988 115.982 214.061 116.003 214.127 116.039C214.192 116.076 214.249 116.127 214.29 116.19C214.351 116.334 214.393 116.486 214.413 116.641C214.521 117.011 214.883 117.236 215.119 117.54C215.481 118.007 215.533 118.642 215.497 119.232C215.378 121.077 214.555 122.806 213.199 124.062C212.814 124.456 212.323 124.729 211.786 124.849C211.517 124.905 211.237 124.875 210.985 124.764C210.734 124.652 210.524 124.465 210.385 124.227C210.327 124.023 210.239 123.829 210.123 123.65C209.701 123.186 208.754 123.679 208.366 123.184C208.125 122.874 208.298 122.379 208.067 122.059C207.837 121.739 207.281 121.796 206.853 121.778C206.352 121.752 205.888 121.516 205.403 121.393C204.616 121.188 203.793 121.264 202.988 121.209C202.319 121.15 201.655 121.045 201 120.894L197.664 120.213C195.54 119.78 193.408 119.342 191.386 118.568C190.613 118.275 189.834 117.913 189.288 117.283C188.849 116.73 188.566 116.069 188.47 115.369C187.996 112.571 190.513 110.179 190.83 107.36C190.943 106.332 191.355 105.362 191.743 104.407C192.455 102.701 193.164 100.994 193.872 99.2859C193.987 98.9679 194.136 98.6636 194.318 98.3786C194.62 98.0135 194.96 97.682 195.333 97.39C196.327 96.4882 197.04 95.3192 197.386 94.0228C197.412 93.8786 197.472 93.7427 197.562 93.6268C197.655 93.549 197.757 93.483 197.866 93.4302C198.054 93.3082 198.194 93.1269 198.266 92.9152C198.338 92.7036 198.337 92.4739 198.262 92.2632C198.425 92.2497 198.578 92.1783 198.692 92.0618C198.807 91.9453 198.876 91.7916 198.886 91.6286C198.867 91.4866 198.876 91.3423 198.913 91.2038C198.976 91.0674 199.133 90.9992 199.225 90.8786C199.374 90.6819 199.322 90.4066 199.298 90.1601C199.282 90.004 199.282 89.8467 199.298 89.6906C199.355 89.1354 199.604 88.6172 200.001 88.2247C200.628 87.6085 201.519 87.7684 202.385 87.6216C203.248 87.4353 204.091 87.1657 204.902 86.8165C207.178 85.9199 209.573 85.3658 212.011 85.1723C214.461 84.9796 216.922 85.3715 219.191 86.3156C219.522 86.4494 219.833 86.6257 220.117 86.8401C220.319 86.9958 220.485 87.1935 220.602 87.4197C220.699 87.6973 220.818 87.9665 220.959 88.2247C221.24 88.6076 221.769 88.7309 222.076 89.0927C222.383 89.4546 222.409 90.0657 222.663 90.5141C223.028 91.1539 223.872 91.4503 224.124 92.1452C224.203 92.3655 224.213 92.6067 224.271 92.8349C224.413 93.4066 224.837 93.8576 225.212 94.3087C226.587 95.953 227.467 97.9534 227.751 100.078C227.835 98.7483 228.729 97.5709 229.849 96.8366C230.15 96.6399 230.499 96.4223 230.559 96.0656C230.636 95.6146 230.198 95.2134 230.226 94.7545C230.258 94.5304 230.349 94.3187 230.489 94.1408C230.988 93.4165 231.537 92.7269 232.13 92.077C232.453 91.723 232.815 91.2903 232.681 90.8235C232.579 90.4747 232.222 90.2702 232.025 89.966C231.911 89.7846 231.852 89.5735 231.857 89.3589C231.861 89.1443 231.929 88.9359 232.052 88.7597C232.235 88.5106 232.526 88.3296 232.615 88.0333C232.718 87.6845 232.49 87.3069 232.56 86.9476C232.656 86.6599 232.847 86.4132 233.101 86.2475C233.448 85.9307 233.844 85.6705 234.273 85.4765C234.965 85.2142 235.736 85.3113 236.47 85.4136C237.698 85.584 239.074 85.8462 239.767 86.8742C240.21 87.5167 240.435 88.4922 240.105 89.1793Z" fill="#65617D"/>
<path opacity="0.1" d="M245.78 87.501C245.764 87.9074 245.714 88.3611 245.399 88.6155C245.125 88.7908 244.8 88.8676 244.476 88.8331H244.406C244.513 88.2877 245.177 87.9756 245.292 87.4223C245.312 87.2523 245.296 87.0801 245.247 86.9164C245.197 86.7526 245.114 86.6008 245.004 86.4704C244.442 85.7125 243.54 85.2929 242.643 84.9861C240.11 84.1174 237.395 83.9143 234.76 84.3961C234.044 84.5128 233.347 84.7272 232.689 85.0333C232.471 85.1698 232.261 85.3186 232.059 85.4791C231.902 85.2134 231.802 84.9178 231.766 84.6111C231.767 84.3055 231.872 84.0094 232.065 83.772C232.279 83.5187 232.541 83.3103 232.835 83.1586C233.13 83.0069 233.452 82.915 233.782 82.8882C234.443 82.8369 235.108 82.8721 235.76 82.9931L242.216 83.9214C242.714 83.9922 243.215 84.063 243.705 84.1837C244.171 84.2645 244.61 84.457 244.985 84.7449C245.756 85.3847 245.819 86.5097 245.78 87.501Z" fill="black"/>
<path opacity="0.1" d="M217.878 119.74C217.482 121.256 216.291 122.436 215.68 123.881C214.76 126.045 215.174 128.691 213.873 130.647C213.451 131.241 212.941 131.767 212.36 132.207C212.038 132.481 211.686 132.718 211.311 132.913C210.922 133.127 210.466 133.183 210.037 133.07C209.483 132.881 209.15 132.283 209.095 131.706C209.076 131.517 209.076 131.326 209.095 131.137L209.111 131.179C209.339 131.73 209.712 132.307 210.299 132.404C210.519 132.42 210.741 132.39 210.949 132.316C211.158 132.243 211.349 132.127 211.51 131.976C212.376 131.282 212.879 130.246 213.359 129.247C213.735 128.526 214.032 127.767 214.246 126.983C214.35 126.538 214.4 126.081 214.508 125.636C215.006 123.469 216.703 121.702 217.078 119.507C217.108 119.356 217.115 119.201 217.099 119.048C217.049 118.848 216.973 118.656 216.873 118.476C216.782 118.273 216.715 118.06 216.674 117.842C217.198 118.031 217.754 118.322 217.92 118.851C217.987 119.146 217.973 119.454 217.878 119.74Z" fill="black"/>
<path opacity="0.1" d="M213.918 115.98C213.675 116.615 213.267 117.172 212.735 117.595C211.989 118.164 211.115 118.542 210.189 118.697C209.758 118.807 209.306 118.801 208.878 118.681C208.295 118.479 207.876 117.934 207.281 117.776C206.856 117.661 206.399 117.763 205.969 117.7C205.196 117.593 204.595 117.003 203.971 116.531C202.059 115.094 199.55 114.63 197.638 113.192C197.553 113.14 197.483 113.067 197.434 112.98C197.397 112.886 197.383 112.784 197.394 112.684C197.401 111.812 197.597 110.952 197.969 110.164C198.273 109.613 198.635 109.097 199.049 108.624C200.761 106.526 202.482 104.413 204.532 102.643C205.392 101.9 206.331 101.208 207.417 100.873C208.02 100.686 209.211 100.511 209.945 100.825C209.837 100.899 209.739 100.987 209.654 101.088C209.42 101.414 209.243 101.778 209.129 102.163C208.025 105.034 205.07 106.508 202.71 108.464L200.554 110.25C200.26 110.494 199.935 110.851 200.08 111.205C200.179 111.384 200.339 111.521 200.531 111.593C201.784 112.212 203.255 112.461 204.288 113.405C204.666 113.751 205.028 114.207 205.539 114.234C205.809 114.218 206.075 114.158 206.326 114.058C206.721 113.951 207.135 113.937 207.535 114.017C207.936 114.097 208.313 114.269 208.636 114.519C208.82 114.698 209.033 114.845 209.266 114.952C209.461 115.004 209.664 115.016 209.864 114.989C210.422 114.949 211.015 114.9 211.516 115.149C212.017 115.398 212.428 115.985 213.013 116.027C213.304 116.048 213.645 115.949 213.918 115.98Z" fill="black"/>
<path d="M189.8 80.3891C189.302 80.7091 188.772 81.071 188.567 81.6269C188.399 82.0806 188.478 82.5998 188.276 83.0404C188.074 83.4809 187.621 83.7877 187.521 84.2598C187.45 84.6033 187.589 84.9652 187.521 85.3087C187.462 85.4874 187.413 85.6695 187.377 85.8542C187.351 86.2449 187.686 86.5622 188.014 86.7799C188.712 87.2338 189.507 87.5177 190.334 87.6088C191.162 87.6999 191.999 87.5956 192.779 87.3043C193.479 87.0421 194.111 86.6147 194.782 86.279C195.437 85.902 196.186 85.72 196.941 85.7545C197.373 85.8017 197.788 85.9591 198.22 86.0167C198.434 86.059 198.655 86.0486 198.864 85.9865C199.072 85.9243 199.263 85.8123 199.419 85.6601C199.552 85.4756 199.642 85.2631 199.681 85.0386C200.045 83.5989 199.88 82.0727 199.534 80.6251C199.188 79.1776 198.663 77.7851 198.294 76.3454C198.031 75.2781 197.83 74.1846 197.392 73.175C196.954 72.1654 196.217 71.2265 195.186 70.8411C195.105 70.8012 195.013 70.7892 194.924 70.807C194.858 70.8346 194.799 70.8778 194.753 70.9328C193.938 71.7968 193.324 72.8301 192.955 73.9591C192.543 75.2152 192.43 76.5474 192.052 77.8087C191.89 78.3332 191.68 79.036 191.266 79.4372C190.851 79.8384 190.269 80.0876 189.8 80.3891Z" fill="#3F3D56"/>
<path opacity="0.1" d="M199.689 85.0307C199.645 85.2559 199.551 85.4683 199.413 85.6522C199.258 85.8049 199.067 85.9171 198.858 85.9788C198.649 86.0405 198.428 86.05 198.215 86.0063C197.785 85.9538 197.371 85.7938 196.938 85.744C196.183 85.7091 195.434 85.8911 194.78 86.2685C194.108 86.6042 193.469 87.0211 192.774 87.2912C191.757 87.6767 190.646 87.7399 189.593 87.4722C189.033 87.3315 188.501 87.0974 188.019 86.7799C187.689 86.5648 187.356 86.2554 187.382 85.8541C187.419 85.6704 187.467 85.4891 187.526 85.3113C187.594 84.9678 187.458 84.6059 187.526 84.2624C187.626 83.7903 188.082 83.4757 188.281 83.0403C188.481 82.605 188.405 82.0832 188.57 81.6295C188.774 81.0709 189.307 80.7117 189.805 80.3891C190.303 80.0666 190.896 79.8201 191.295 79.4293C191.346 79.3685 191.393 79.3036 191.434 79.2353C191.721 78.7919 191.932 78.3035 192.058 77.7903C192.443 76.5263 192.548 75.1968 192.957 73.9381C193.328 72.81 193.943 71.7777 194.759 70.9144C194.802 70.8582 194.86 70.8147 194.927 70.7886C195.015 70.7706 195.107 70.7816 195.189 70.82C196.217 71.2082 196.954 72.147 197.394 73.1566C197.835 74.1662 198.021 75.2545 198.296 76.3244C198.663 77.7641 199.191 79.1618 199.537 80.6068C199.883 82.0517 200.053 83.5884 199.689 85.0307Z" fill="black"/>
<path opacity="0.1" d="M207.488 53.0482C206.255 53.44 204.92 53.3622 203.741 52.8297C202.562 52.2972 201.621 51.3477 201.1 50.1636C201.12 49.9179 201.155 49.6735 201.205 49.432C201.467 48.2257 202.589 48.6662 203.476 48.9862C204.542 49.3327 205.574 49.7797 206.557 50.3209C206.856 50.4752 207.116 50.6959 207.317 50.966C207.705 51.5456 207.551 52.3166 207.488 53.0482Z" fill="black"/>
<path d="M205.904 53.0325C208.8 53.0325 211.149 50.6843 211.149 47.7877C211.149 44.8911 208.8 42.543 205.904 42.543C203.007 42.543 200.659 44.8911 200.659 47.7877C200.659 50.6843 203.007 53.0325 205.904 53.0325Z" fill="#BE6F72"/>
<path opacity="0.1" d="M220.135 86.9818C220.135 87.4171 219.545 87.5561 219.108 87.5325C217.534 87.4407 215.995 87.008 214.437 87.1391C212.468 87.3175 210.658 88.4057 208.684 88.5054C207.923 88.5447 207.149 88.432 206.399 88.571C205.429 88.7519 204.564 89.3419 203.575 89.4258C202.718 89.4993 201.871 89.1767 201.013 89.2108C200.414 89.2466 199.829 89.413 199.301 89.6986C199.358 89.1433 199.607 88.6252 200.004 88.2327C200.63 87.6164 201.522 87.7764 202.387 87.6295C203.25 87.4432 204.094 87.1736 204.905 86.8244C207.18 85.9279 209.576 85.3738 212.014 85.1802C214.463 84.9855 216.922 85.3746 219.191 86.3157C219.522 86.4494 219.833 86.6257 220.117 86.8402C220.131 86.886 220.138 86.9339 220.135 86.9818Z" fill="black"/>
<path d="M203.478 57.3646L201.354 56.5778L200.457 56.2474C200.092 56.0943 199.707 55.9919 199.314 55.9432C198.286 55.8645 197.318 56.549 196.77 57.4222C196.222 58.2955 196.015 59.3366 195.839 60.3514C195.598 61.7395 195.393 63.1329 195.226 64.5315C195.045 65.7945 194.953 67.0686 194.95 68.3444C195.01 71.5909 195.698 74.7929 196.453 77.9528C196.823 79.3539 197.102 80.7773 197.289 82.2142C197.352 82.8068 197.381 83.4021 197.444 83.9974C197.512 84.6661 197.622 85.327 197.733 85.9904L198.365 89.7588C199.151 89.2002 200.045 88.7098 201.013 88.681C201.871 88.6495 202.72 88.9694 203.575 88.896C204.559 88.8147 205.429 88.2247 206.399 88.0437C207.149 87.9047 207.923 88.0149 208.686 87.9782C210.658 87.8785 212.47 86.7876 214.437 86.6119C215.997 86.4703 217.547 86.9109 219.11 87.0026C219.545 87.0289 220.135 86.8899 220.135 86.4519C220.135 86.1478 219.831 85.9458 219.566 85.7937C218.318 85.042 217.13 84.1942 216.013 83.2579C214.98 82.4397 213.931 81.6005 213.22 80.4939C211.508 77.8322 212.095 74.2317 210.635 71.4231C209.447 69.1416 210.635 66.1521 210.635 63.5796C210.635 62.2972 210.635 60.9992 210.333 59.7535C210.145 59.0568 209.91 58.3735 209.63 57.7081L208.61 55.125C208.589 55.0496 208.547 54.9815 208.49 54.9284C208.421 54.8811 208.339 54.8564 208.256 54.8576C207.644 54.8208 207.039 55.0144 206.562 55.4004C206.082 55.7911 205.775 56.3523 205.303 56.7588C204.787 57.2072 204.121 57.6006 203.478 57.3646Z" fill="#E3E8F4"/>
<path d="M206.906 55.8751C207.073 55.1566 207.254 54.4092 207.734 53.848C208.214 53.2868 209.09 52.9905 209.709 53.3917C210.412 53.848 210.441 54.9022 211.041 55.4896C211.566 55.9931 212.352 56.0325 213.066 56.098C214.348 56.2147 215.608 56.5114 216.808 56.9791C217.042 57.0517 217.255 57.1794 217.429 57.3515C217.757 57.7239 217.691 58.2956 217.854 58.7597C218.077 59.3576 218.693 59.7379 218.932 60.3332C219.194 60.994 218.932 61.7335 218.712 62.4127C218.316 63.6321 218.066 64.8987 217.681 66.1234C217.295 67.348 216.747 68.5543 215.845 69.4774C215.447 69.8865 214.854 70.2641 214.33 70.0202L214.128 71.4756C214.069 71.7832 214.069 72.0991 214.128 72.4066C214.158 72.5604 214.231 72.7026 214.339 72.8167C214.447 72.9308 214.584 73.0123 214.736 73.0517C214.775 73.2772 215.014 73.3847 215.208 73.508C215.351 73.6059 215.474 73.7314 215.568 73.877C215.662 74.0226 215.727 74.1855 215.758 74.3562C215.789 74.527 215.786 74.7022 215.749 74.8717C215.711 75.0412 215.641 75.2016 215.541 75.3437C215.376 75.5666 215.132 75.7423 215.053 76.0071C214.935 76.39 215.216 76.7938 215.557 77.0036C215.898 77.2134 216.299 77.3104 216.645 77.5124C217.364 77.9267 217.749 78.7423 217.996 79.5342C218.179 80.1321 218.331 80.7798 218.782 81.2152C218.955 81.3804 219.163 81.5062 219.328 81.6793C219.614 82.0172 219.779 82.4407 219.797 82.883C219.869 83.4311 219.749 83.9872 219.456 84.4564C218.932 85.2064 217.954 85.4293 217.096 85.7676C215.704 86.3393 214.558 87.362 213.33 88.2326C212.831 88.6352 212.242 88.9122 211.613 89.0403C210.763 89.1531 209.927 88.7781 209.072 88.744C208.56 88.7488 208.051 88.8157 207.556 88.9433L205.983 89.2842C206.066 88.0648 205.395 86.8428 205.02 85.6811C204.312 83.494 204.181 81.1548 204.349 78.8629C204.517 76.5709 204.983 74.3104 205.445 72.0604C205.767 70.487 205.736 68.8428 206.232 67.3139C206.696 65.8428 207.359 64.4293 207.603 62.8979C208.002 60.4197 206.344 58.3192 206.906 55.8751Z" fill="#3F3D56"/>
<path d="M218.835 60.7239C218.979 60.9904 219.081 61.278 219.136 61.5762C219.258 62.0381 219.485 62.4655 219.8 62.8244C220.064 63.0571 220.298 63.3214 220.497 63.6111C220.739 64.0674 220.647 64.6234 220.76 65.1216C220.891 65.6645 221.271 66.1365 221.326 66.6951C221.328 66.8551 221.343 67.0148 221.371 67.1723C221.541 67.807 222.475 67.9591 222.682 68.5937C222.821 69.0054 222.582 69.4538 222.627 69.8865C222.659 70.0203 222.667 70.1589 222.65 70.2956C222.591 70.4501 222.487 70.5834 222.351 70.6785C221.483 71.5076 220.883 72.5768 220.626 73.7493C220.373 74.9153 220.241 76.1042 220.23 77.2973L219.205 75.9416C219.096 75.7771 218.957 75.6347 218.795 75.522C218.664 75.4433 218.512 75.404 218.378 75.3253C217.99 75.105 217.838 74.6383 217.689 74.2187C217.274 73.0572 216.652 71.9804 215.853 71.0403C215.436 70.55 214.951 70.057 214.859 69.4197C214.832 69.127 214.848 68.8319 214.906 68.5438C215.169 66.8262 215.449 65.0666 216.286 63.543C216.677 62.8297 217.183 62.1846 217.558 61.4608C217.809 60.9809 218.163 59.7326 218.835 60.7239Z" fill="#3F3D56"/>
<path d="M192.965 62.3734C192.97 62.5941 192.914 62.8119 192.802 63.0027C192.702 63.1189 192.572 63.2049 192.425 63.2512C192.279 63.2975 192.123 63.3023 191.974 63.265C191.675 63.19 191.394 63.0583 191.145 62.8769C190.414 62.4153 189.684 61.9529 188.953 61.4896C188.545 61.2437 188.152 60.974 187.775 60.6819C187.2 60.1964 186.679 59.6504 186.22 59.0534C184.946 57.48 183.818 55.7728 182.399 54.3332C182.014 53.9398 181.613 53.5622 181.24 53.1505C180.731 52.5553 180.264 51.9263 179.84 51.2676C179.431 50.6618 179.006 49.9905 179.077 49.2667C179.119 48.8576 179.316 48.48 179.373 48.0735C179.431 47.6671 179.276 47.1714 178.883 47.0613C178.836 47.0496 178.789 47.0417 178.741 47.0377C178.664 47.0295 178.587 47.0128 178.513 46.9879C178.149 46.8358 178.204 46.272 178.466 45.9756C178.728 45.6793 179.116 45.5141 179.355 45.1889C179.466 44.996 179.59 44.8111 179.727 44.6356C179.903 44.485 180.113 44.3797 180.338 44.3288C181.851 43.883 183.451 43.8226 184.993 44.1531C185.255 44.2108 185.554 44.3157 185.633 44.57C185.664 44.694 185.664 44.8237 185.633 44.9477C185.517 45.4647 185.45 45.9915 185.434 46.5211C185.433 46.6315 185.439 46.7418 185.452 46.8515C185.575 47.9634 186.296 48.9048 186.999 49.7728C187.833 50.8061 188.68 51.8314 189.53 52.8541C189.989 53.4468 190.503 53.9955 191.064 54.4931C191.588 54.9284 192.267 55.2798 192.677 55.8384C193.01 56.2894 192.902 56.9057 192.939 57.4485C193.061 59.0876 193.07 60.7331 192.965 62.3734Z" fill="#3F3D56"/>
<path d="M226.269 73.3139C226.528 73.0621 226.762 72.7854 226.967 72.4879C227.187 72.1192 227.363 71.7257 227.491 71.3157L229.012 67.0019C229.254 66.3201 229.495 65.6356 229.799 64.9722C230.114 64.2562 230.486 63.5666 230.83 62.8743C231.713 61.0524 232.396 59.1399 232.867 57.1706C232.95 56.9 232.978 56.6155 232.948 56.3341C232.875 55.8804 232.531 55.5264 232.204 55.2038C231.874 54.8478 231.498 54.5373 231.087 54.2807C230.88 54.1521 230.649 54.066 230.409 54.0273C230.169 53.9885 229.923 53.998 229.686 54.0552C229.015 54.2519 228.593 54.939 228.438 55.6286C228.283 56.3183 228.341 57.0237 228.275 57.7265C228.181 58.7335 227.835 59.7064 227.751 60.716C227.706 61.3008 227.751 61.8909 227.68 62.473C227.551 63.2375 227.284 63.9723 226.893 64.6417C226.041 66.2364 224.89 67.6521 223.503 68.8113C223.123 69.0919 222.781 69.4207 222.485 69.7895C222.239 70.1583 222.072 70.5745 221.995 71.0115C221.821 71.6769 221.896 72.3831 222.207 72.9966C222.635 73.7256 223.455 74.0456 224.24 74.2082C225.299 74.4284 225.543 74.0666 226.269 73.3139Z" fill="#BE6F72"/>
<path d="M205.935 40.188C206.161 39.7637 206.507 39.4154 206.929 39.1864C207.352 38.9574 207.832 38.8579 208.311 38.9004C208.793 38.9858 209.242 39.2045 209.606 39.5317C209.971 39.8589 210.236 40.2815 210.372 40.7518C210.496 41.1425 210.545 41.5752 210.76 41.9109C211.086 42.417 211.689 42.5638 212.14 42.931C212.409 43.1812 212.626 43.4826 212.777 43.8176C212.928 44.1527 213.011 44.5145 213.021 44.882C213.046 45.6327 212.928 46.3812 212.672 47.0874C212.564 47.3888 212.476 47.6972 212.41 48.0105C212.358 48.3147 212.352 48.6242 212.305 48.9284C212.247 49.3228 212.111 49.7016 211.904 50.0425C211.697 50.3835 211.424 50.6796 211.101 50.9135C211.009 50.9885 210.895 51.0301 210.776 51.0315C210.572 51.0079 210.446 50.7693 210.37 50.5542C209.953 49.3506 210.052 47.8794 209.284 46.9196C208.935 46.5324 208.512 46.2179 208.041 45.9939C207.849 45.87 207.633 45.7886 207.406 45.7553C207.074 45.7732 206.754 45.8901 206.489 46.0909C205.935 46.4622 205.321 46.7338 204.674 46.8934C204.351 46.9699 204.015 46.9733 203.691 46.9035C203.366 46.8336 203.062 46.6922 202.799 46.4895C202.437 46.1906 202.172 45.7422 201.771 45.5088C201.37 45.2754 200.95 45.2885 200.554 45.1285C200.302 45.0212 200.077 44.8577 199.898 44.6504C199.718 44.4432 199.588 44.1977 199.518 43.9326C199.448 43.6675 199.439 43.3899 199.492 43.1209C199.545 42.8519 199.659 42.5986 199.825 42.3803C200.087 42.0656 200.476 41.8873 200.709 41.5385C201.01 41.0874 200.984 40.4686 201.128 39.9284C201.214 39.5866 201.379 39.2701 201.612 39.0051C201.844 38.7401 202.136 38.5343 202.463 38.4048C202.781 38.2969 203.122 38.2762 203.45 38.3449C203.779 38.4137 204.083 38.5693 204.33 38.7955C204.593 39.0315 204.802 39.3357 205.059 39.5822C205.313 39.8251 205.624 40.0004 205.963 40.092C206.302 40.1836 206.658 40.1887 207 40.1067" fill="#3F3D56"/>
<path opacity="0.1" d="M210.246 78.7868C210.094 78.9228 209.986 79.1016 209.936 79.2999C209.886 79.4982 209.898 79.7069 209.969 79.8987C210.026 80.022 212.732 79.5001 213.018 79.4608C213.732 79.3585 214.982 79.4083 215.462 78.7554C216.317 77.5989 213.669 77.8559 213.184 77.8978C212.26 77.9765 210.949 78.1024 210.246 78.7868Z" fill="black"/>
<path d="M185.628 44.9582C185.512 45.4752 185.445 46.002 185.428 46.5316C184.642 46.6915 183.823 46.4293 183.068 46.1671L180.899 45.4276C180.768 45.3432 180.608 45.3123 180.455 45.3411C180.301 45.3698 180.163 45.456 180.071 45.5823C179.722 45.9442 179.242 46.6312 178.76 47.0377C178.682 47.0295 178.605 47.0128 178.531 46.9879C178.167 46.8358 178.222 46.272 178.484 45.9756C178.747 45.6793 179.135 45.5141 179.373 45.1889C179.484 44.996 179.609 44.8111 179.746 44.6356C179.921 44.485 180.131 44.3797 180.357 44.3288C181.869 43.883 183.469 43.8226 185.011 44.1531C185.274 44.2108 185.573 44.3157 185.651 44.57C185.677 44.6993 185.669 44.8329 185.628 44.9582Z" fill="#3F3D56"/>
<path opacity="0.1" d="M185.628 44.9582C185.512 45.4752 185.445 46.002 185.428 46.5316C184.642 46.6915 183.823 46.4293 183.068 46.1671L180.899 45.4276C180.768 45.3432 180.608 45.3123 180.455 45.3411C180.301 45.3698 180.163 45.456 180.071 45.5823C179.722 45.9442 179.242 46.6312 178.76 47.0377C178.682 47.0295 178.605 47.0128 178.531 46.9879C178.167 46.8358 178.222 46.272 178.484 45.9756C178.747 45.6793 179.135 45.5141 179.373 45.1889C179.484 44.996 179.609 44.8111 179.746 44.6356C179.921 44.485 180.131 44.3797 180.357 44.3288C181.869 43.883 183.469 43.8226 185.011 44.1531C185.274 44.2108 185.573 44.3157 185.651 44.57C185.677 44.6993 185.669 44.8329 185.628 44.9582Z" fill="black"/>
<path opacity="0.1" d="M205.466 94.744C205.844 94.8698 206.253 95.0534 206.381 95.431L203.344 94.66L201.771 94.2588C201.493 94.188 200.496 94.1067 200.313 93.889C200.051 93.5691 200.982 93.7894 201.149 93.813C201.658 93.889 202.167 93.9677 202.673 94.0595C203.628 94.23 204.545 94.5106 205.466 94.744Z" fill="black"/>
<path opacity="0.1" d="M206.643 97.4319C206.381 97.2562 205.629 97.2772 205.306 97.2011C204.834 97.0884 204.37 96.9389 203.906 96.7947C202.964 96.4878 202.031 96.1391 201.063 95.9135C200.885 95.8742 200.276 95.8637 200.305 95.6382C200.334 95.4126 200.913 95.334 201.058 95.3235C201.915 95.2606 202.985 95.6618 203.782 95.9476C204.798 96.3116 205.761 96.8108 206.643 97.4319Z" fill="black"/>
<path opacity="0.1" d="M204.719 92.3471C203.756 92.0848 202.883 91.4869 201.892 91.3716C201.633 91.3814 201.379 91.3038 201.17 91.1513C201.054 91.0368 200.973 90.8911 200.937 90.7317C201.601 90.6976 202.372 90.9782 202.975 91.2431C203.307 91.3855 203.626 91.5556 203.929 91.7518C204.149 91.8856 204.48 92.271 204.719 92.3471Z" fill="black"/>
<path d="M223.065 68.8665C222.902 69.9567 223.137 71.0691 223.728 72C224.318 72.9309 225.224 73.618 226.28 73.9355C226.151 74.557 225.509 74.9006 225.055 75.3437C224.415 75.9652 224.085 76.8962 223.33 77.3682C222.488 77.8927 221.405 77.6881 220.445 77.4679C220.358 77.4581 220.277 77.416 220.219 77.3499C220.2 77.3184 220.185 77.2838 220.177 77.2476C219.86 76.0859 219.653 74.8455 219.978 73.6811C220.24 72.6899 220.87 71.8455 221.373 70.9696C221.877 70.0937 221.924 69.1549 223.065 68.8665Z" fill="#3F3D56"/>
<path d="M199.618 53.8297C198.603 53.9035 197.617 54.2037 196.733 54.7082C196.146 55.0438 195.543 55.4949 194.871 55.4136C194.476 55.369 194.085 55.1513 193.699 55.2562C193.482 55.3438 193.28 55.4641 193.099 55.6129C193.007 55.6859 192.898 55.734 192.782 55.7523C192.666 55.7707 192.548 55.7588 192.438 55.7178L192.176 59.3471C192.076 60.7265 191.979 62.1347 192.309 63.48C192.48 64.1671 192.855 64.7912 192.897 65.4887C192.939 66.1863 192.876 66.9022 192.926 67.6076C192.973 68.2606 193.117 68.9031 193.154 69.556C193.227 70.7886 192.923 72.0106 192.629 73.209C192.186 74.9765 191.919 76.7833 191.056 78.383C190.815 78.8261 190.531 79.2772 190.531 79.7807C190.531 79.8436 190.531 79.9039 190.547 79.9642C190.285 80.1085 190.041 80.2448 189.818 80.3865C189.32 80.709 188.788 81.0683 188.583 81.6268C188.418 82.0805 188.494 82.5997 188.295 83.0377C188.095 83.4756 187.639 83.7877 187.539 84.2597C187.469 84.6032 187.605 84.9651 187.539 85.3087C187.48 85.4864 187.432 85.6677 187.395 85.8515C187.369 86.2448 187.702 86.5621 188.032 86.7772C188.514 87.0948 189.046 87.3288 189.606 87.4695L191.171 81.2545C192.599 78.6154 193.786 75.8534 194.719 73.0018C194.986 72.0698 195.329 71.1611 195.745 70.2851C196.042 69.7895 196.304 69.2743 196.531 68.7431C196.77 68.0823 196.794 67.3664 196.909 66.6688C197.046 65.8547 197.252 65.0537 197.525 64.2746C197.809 63.4328 198.136 62.5936 198.194 61.7099C198.281 60.4459 197.822 59.1111 198.309 57.9415C198.516 57.5038 198.786 57.0983 199.109 56.7379C199.786 55.9092 200.402 55.0412 201.079 54.2125C200.727 53.8375 200.142 53.7982 199.618 53.8297Z" fill="#3F3D56"/>
<g opacity="0.1">
<path opacity="0.1" d="M207.008 39.3253L206.68 39.3489L206.643 39.3751C206.766 39.3701 206.888 39.3535 207.008 39.3253Z" fill="black"/>
<path opacity="0.1" d="M213.008 44.7693C212.953 45.2907 212.841 45.8043 212.672 46.3008C212.564 46.6021 212.476 46.9105 212.41 47.2238C212.358 47.528 212.352 47.8375 212.305 48.1417C212.247 48.5361 212.111 48.9149 211.904 49.2559C211.697 49.5968 211.424 49.8929 211.101 50.1268C211.009 50.2018 210.895 50.2434 210.776 50.2448C210.572 50.2212 210.446 49.9826 210.37 49.7676C209.953 48.5639 210.052 47.0927 209.284 46.1329C208.935 45.7458 208.512 45.4312 208.041 45.2072C207.849 45.0833 207.633 45.002 207.406 44.9686C207.074 44.9865 206.754 45.1034 206.489 45.3043C205.935 45.6755 205.321 45.9471 204.674 46.1067C204.351 46.1832 204.015 46.1866 203.691 46.1168C203.366 46.0469 203.062 45.9055 202.799 45.7029C202.437 45.4039 202.172 44.9555 201.771 44.7221C201.37 44.4887 200.95 44.5018 200.554 44.3419C200.307 44.2362 200.086 44.0762 199.909 43.8737C199.732 43.6713 199.603 43.4315 199.531 43.1723C199.522 43.1396 199.515 43.1063 199.511 43.0726C199.445 43.3654 199.452 43.6697 199.531 43.959C199.603 44.2182 199.732 44.458 199.909 44.6605C200.086 44.8629 200.307 45.0229 200.554 45.1286C200.95 45.2885 201.396 45.2912 201.771 45.5088C202.146 45.7265 202.437 46.1906 202.799 46.4896C203.062 46.6922 203.366 46.8336 203.691 46.9035C204.015 46.9734 204.351 46.9699 204.674 46.8934C205.321 46.7338 205.935 46.4622 206.489 46.091C206.754 45.8901 207.074 45.7732 207.406 45.7553C207.633 45.7887 207.849 45.8701 208.041 45.994C208.506 46.2223 208.922 46.5394 209.266 46.9275C210.034 47.8873 209.934 49.3585 210.351 50.5621C210.427 50.7798 210.553 51.0158 210.758 51.0394C210.884 51.04 211.006 50.9954 211.101 50.9135C211.426 50.679 211.699 50.3817 211.907 50.0394C212.114 49.697 212.25 49.3166 212.308 48.9205C212.355 48.6163 212.36 48.3069 212.413 48.0027C212.479 47.6894 212.566 47.381 212.675 47.0796C212.93 46.3734 213.049 45.6248 213.024 44.8742C213.018 44.8427 213.013 44.806 213.008 44.7693Z" fill="black"/>
</g>
<path d="M196.416 65.8113L196.238 68.2055C196.212 68.5307 195.59 76.2719 191.006 85.3191C187.073 93.0788 179.418 103.185 164.966 108.865C163.838 109.311 162.668 109.727 161.455 110.114L160.101 105.865C163.499 104.796 166.771 103.365 169.862 101.596C177.228 97.3427 182.955 91.2719 186.949 83.4599C189.068 79.3006 190.578 74.8583 191.434 70.2693H174.991V65.8113H196.416Z" fill="#00BAFC"/>
<path opacity="0.1" d="M163.196 108.868C177.645 103.188 185.302 93.084 189.233 85.3244C193.817 76.2772 194.441 68.5412 194.465 68.2108L194.643 65.8165H196.479L196.301 68.2108C196.277 68.5359 195.653 76.2772 191.069 85.3244C187.135 93.084 179.481 103.188 165.031 108.868C163.904 109.314 162.733 109.731 161.517 110.119L161.339 109.56C161.972 109.335 162.591 109.104 163.196 108.868Z" fill="white"/>
<path d="M134.266 105.865L132.913 110.114C131.698 109.726 130.526 109.309 129.399 108.863C114.949 103.183 107.292 93.0788 103.361 85.3191C98.7771 76.2719 98.1529 68.5359 98.1293 68.2055L97.951 65.8113H119.365V70.2693H102.92C103.78 74.8589 105.295 79.3011 107.418 83.4599C111.412 91.2719 117.136 97.3427 124.503 101.594C127.594 103.364 130.867 104.797 134.266 105.865Z" fill="#00BAFC"/>
<path opacity="0.1" d="M131.166 108.868C116.717 103.188 109.059 93.084 105.129 85.3244C100.545 76.2772 99.9205 68.5412 99.8969 68.2108L99.7185 65.8165H97.8829L98.0612 68.2108C98.0848 68.5359 98.7089 76.2772 103.293 85.3244C107.226 93.084 114.881 103.188 129.33 108.868C130.458 109.314 131.629 109.731 132.844 110.119L133.023 109.56C132.392 109.335 131.773 109.104 131.166 108.868Z" fill="white"/>
<path d="M171.92 146.932V170.971H122.444V146.932L124.017 144.834C140.051 139.143 143.3 124.303 143.948 118.432C144.044 117.62 144.099 116.805 144.113 115.988H150.231C150.244 116.805 150.3 117.62 150.396 118.432C151.054 124.303 154.303 139.149 170.326 144.834L171.92 146.932Z" fill="#00BAFC"/>
<path opacity="0.1" d="M171.92 146.932H122.444V149.948H171.92V146.932Z" fill="black"/>
<path opacity="0.1" d="M126.64 144.834C142.673 139.143 145.922 124.303 146.57 118.432C146.666 117.62 146.721 116.805 146.735 115.988H144.113C144.099 116.805 144.044 117.62 143.948 118.432C143.289 124.303 140.04 139.149 124.017 144.834L122.444 146.932V170.971H125.066V146.932L126.64 144.834Z" fill="white"/>
<path opacity="0.1" d="M114.928 65.8113H119.365V70.2693H115.322C115.163 68.8008 115.031 67.3148 114.928 65.8113Z" fill="black"/>
<path opacity="0.1" d="M134.266 105.865L132.913 110.114C131.698 109.726 130.526 109.309 129.399 108.863C127.544 106.598 125.905 104.164 124.503 101.594C127.594 103.364 130.867 104.797 134.266 105.865Z" fill="black"/>
<path opacity="0.1" d="M160.099 105.865C163.496 104.796 166.768 103.365 169.859 101.596C168.457 104.167 166.817 106.601 164.963 108.868C163.836 109.314 162.665 109.73 161.452 110.116L160.099 105.865Z" fill="black"/>
<path opacity="0.1" d="M179.434 65.8113C179.33 67.3148 179.199 68.8008 179.04 70.2693H174.999V65.8113H179.434Z" fill="black"/>
<path opacity="0.1" d="M150.406 118.432C148.277 118.844 146.088 118.844 143.958 118.432C144.054 117.62 144.11 116.805 144.123 115.988H150.241C150.255 116.805 150.31 117.62 150.406 118.432Z" fill="black"/>
<path d="M115.453 58.4266C115.566 91.4843 129.726 118.217 147.184 118.217C164.641 118.217 178.799 91.4843 178.914 58.4266H115.453Z" fill="#00BAFC"/>
<path opacity="0.1" d="M121.091 58.4266H115.453C115.566 91.4843 129.726 118.217 147.184 118.217C148.128 118.215 149.071 118.135 150.003 117.978C133.865 115.282 121.198 89.6854 121.091 58.4266Z" fill="white"/>
<path d="M164.009 156.134H130.356V164.788H164.009V156.134Z" fill="#3F3D56"/>
<path opacity="0.1" d="M131.929 157.314H164.009V156.134H130.356V164.788H131.929V157.314Z" fill="white"/>
<path d="M97.5053 90.3436C96.8995 90.1417 93.3331 87.32 93.063 86.0429C92.7929 84.7658 94.9485 72.8681 94.9485 72.8681C94.9485 72.8681 94.7492 72.8681 94.424 72.8288V72.6373L94.8672 57.0079C94.8672 57.0079 96.6845 46.5184 93.2518 47.1295C89.8191 47.7405 91.9721 57.0079 91.9721 57.0079C91.9721 57.0079 91.5813 61.7125 91.306 63.1233C91.0437 64.4843 89.8427 70.028 90.6609 71.7509C90.6908 71.8122 90.7241 71.8717 90.7605 71.9293C90.7605 71.9293 90.8969 77.8427 89.4153 78.6504C88.0018 79.4188 87.4144 83.2868 87.3646 83.6329L87.2885 83.6015C86.8665 83.3374 86.496 82.9989 86.195 82.6023C86.1635 82.563 86.1399 82.5211 86.1111 82.4791C87.0759 81.3937 87.5959 79.9843 87.5672 78.5323C87.5385 77.0803 86.9633 75.6925 85.9563 74.6461C85.4881 74.1597 84.9389 73.7587 84.3331 73.4607C84.3155 72.9597 84.1968 72.4673 83.9843 72.0132C83.3025 70.5551 79.5263 68.6487 76.8436 68.6041C75.6058 68.5674 74.5909 68.9188 74.2212 69.8864C74.0324 70.3768 74.0901 70.9354 74.0114 71.4441C73.8541 72.4931 73.1801 73.3139 72.3147 73.9669C71.9653 73.5768 71.5875 73.213 71.1845 72.8786C70.3086 72.2072 68.5621 69.994 68.5621 69.994C68.5621 69.994 63.1102 64.348 62.7063 62.8008C62.3025 61.2536 56.8558 51.9625 55.6443 53.5805C54.4327 55.1985 59.8165 62.2501 59.8165 62.2501C59.8165 62.2501 60.8392 64.8121 61.6259 65.6775C62.4126 66.5429 68.4441 75.3017 68.4441 75.3017L68.7326 75.8996C67.4581 76.5709 66.2937 77.4258 65.882 78.7579C65.2789 80.7195 66.5979 82.6915 67.5105 84.5272C69.2885 88.1093 69.5429 92.6775 67.2483 95.9502C65.1923 98.8401 61.6259 100.214 58.2876 101.415C59.8998 102.681 61.9027 103.346 63.952 103.296C63.181 105.53 60.4485 106.269 58.1198 106.684C59.3418 107.858 61.0909 108.286 62.7693 108.546C63.5912 108.685 64.4241 108.751 65.2579 108.742H65.4624L65.667 108.726C65.9512 108.708 66.2341 108.672 66.514 108.619C67.7256 108.372 68.903 107.712 69.5219 106.642C70.0464 105.726 70.2299 104.478 71.1819 104.019C71.4297 103.907 71.6968 103.844 71.9686 103.833H71.9397C72.118 103.833 72.3016 103.833 72.4799 103.833L76.4476 103.872C76.6128 103.872 76.7833 103.872 76.9537 103.872C78.0735 103.846 79.2693 103.652 79.8383 102.726C80.0724 102.277 80.1956 101.778 80.1976 101.271C80.2815 100.015 80.1976 98.7221 80.2317 97.4555C80.57 99.7606 80.924 103.353 80.0822 104.68C79.3983 105.686 78.5694 106.584 77.6224 107.347C77.3842 107.547 77.1664 107.77 76.9721 108.013C76.8436 108.105 76.7675 108.155 76.7675 108.155L76.6862 108.399C76.3873 108.852 76.1707 109.354 76.0464 109.883C76.0006 110.019 75.9836 110.162 75.9965 110.305C76.0883 110.491 75.3409 111.26 75.5586 111.582C73.6915 113.772 73.3375 117.089 73.3375 117.089L69.9284 122.266C68.1766 126.868 65.5542 127.34 65.5542 127.34C65.5542 127.34 59.3943 123.207 59.2264 123.005C59.0586 122.803 56.7037 121.794 56.7037 121.794C56.4261 121.307 56.0022 120.92 55.4922 120.687C54.6845 120.351 54.6163 119.114 54.6163 119.114C54.5166 116.19 52.799 115.967 52.799 115.967C51.4144 115.849 50.3575 116.095 49.5446 116.546L49.2981 116.565C48.1075 116.662 46.6757 116.769 45.1023 116.874C40.7256 117.163 39.6845 119.997 39.6845 119.997C39.6845 119.997 39.1469 120.603 39.8523 121.259C40.5577 121.914 45.0735 121.259 45.2649 121.243C44.9207 121.28 44.5727 121.256 44.2369 121.172C44.9476 121.146 45.9257 121.12 46.7596 121.12H46.9616C46.9091 121.562 46.8837 122.007 46.8855 122.452C46.8855 123.291 49.2063 123.829 49.2063 123.829L56.2736 130.122C56.2736 130.122 60.7159 132.108 63.5429 134.963C66.3698 137.819 68.8689 135.354 68.8689 135.354C71.861 134.615 80.4703 124.206 80.4782 124.196C80.4782 124.5 80.6591 134.622 81.0027 136.655C81.0163 136.758 81.0418 136.859 81.0787 136.956C81.4826 137.83 80.9423 140.216 80.709 141.223C80.5601 142.066 80.5029 142.922 80.5385 143.777C80.5385 143.777 77.3103 156.102 77.5778 157.185C77.8453 158.268 75.8287 163.301 75.8287 163.301V167.497L76.1801 167.478C76.1344 167.546 76.0924 167.616 76.0542 167.688L76.0306 167.733C76.0306 167.733 78.1836 168.202 79.6312 168.068C81.0787 167.935 83.5647 169.183 83.5647 169.183C83.5647 169.183 84.4065 169.581 86.9974 169.749C89.5883 169.917 89.5883 168.606 89.5883 168.606C89.292 166.82 85.1985 166.222 85.0726 166.204C84.7422 165.997 84.4327 165.771 84.1784 165.577L84.1259 165.535C84.1431 165.496 84.158 165.455 84.1705 165.414C84.6084 163.631 82.1854 162.858 82.1854 162.858V162.422C83.7588 161.615 84.0708 156.071 84.0708 156.071C84.0708 156.071 86.431 149.216 86.7614 148.073C87.0918 146.929 86.7614 145.217 86.7614 145.217L86.9974 143.738C86.9974 143.738 87.5035 142.731 87.5035 142.529C87.569 142.017 87.766 141.531 88.0752 141.118C88.445 140.68 87.6714 139.639 87.6714 139.639L88.3453 137.893V135.976L89.9188 129.021C89.9188 129.021 91.5682 120.921 90.9965 118.269C90.4249 115.618 91.6705 114.27 91.6705 114.27C91.5582 114.329 91.4426 114.382 91.3243 114.428C91.4818 114.064 91.6175 113.69 91.7308 113.31L95.271 113.748V113.801H96.5481C96.5481 113.801 96.1443 108.818 96.1443 106.81C96.1443 104.801 97.5053 97.5919 97.5053 97.5919C97.5053 97.5919 98.1111 90.5455 97.5053 90.3436ZM81.7894 84.5272C81.7894 84.7239 81.771 84.9284 81.7579 85.1382L81.6871 85.2457L81.556 85.1356L81.396 85.3847L81.3488 85.4083C81.0027 85.23 80.8243 84.2099 80.5752 84.4301L80.5411 84.459C80.4861 84.3961 80.431 84.3777 80.3733 84.4301L80.3208 84.4747C80.3208 84.3987 80.3208 84.32 80.3208 84.2413C80.8006 84.3648 81.294 84.4273 81.7894 84.4275C81.792 84.4616 81.7894 84.4957 81.7894 84.5272ZM93.5639 107.73H93.6399L93.514 108.06C93.5298 107.95 93.5455 107.843 93.5639 107.73ZM80.6381 167.198L80.1556 167.077L80.4179 167.032L80.6618 167.192L80.6906 167.213L80.6381 167.198ZM85.5682 166.492C85.4083 166.408 85.2457 166.311 85.0883 166.212C85.1408 166.24 85.3479 166.348 85.5682 166.492Z" fill="url(#paint1_linear)"/>
<path d="M95.3051 102.776L92.1294 111.052H92.9003L89.9135 113.434L95.3051 114.105V102.776Z" fill="#F86D70"/>
<path opacity="0.1" d="M95.3051 102.776L92.1294 111.052L91.3295 110.837L89.9135 113.434L95.3051 114.105V102.776Z" fill="black"/>
<path d="M90.3252 108.071H95.3051L97.1329 93.0316H90.3252V108.071Z" fill="#F86D70"/>
<path opacity="0.1" d="M90.3252 108.071H95.3051L97.1329 93.0316H90.3252V108.071Z" fill="black"/>
<path d="M80.5987 96.5927L81.6739 96.4117L84.1442 95.9922C84.1442 95.9922 91.5629 94.3191 93.0944 94.1827C94.0221 94.0602 94.9269 93.8022 95.7797 93.417C96.1809 93.2439 96.4353 93.1128 96.4353 93.1128L93.7631 88.2326L89.6171 85.1591C89.6171 85.1591 86.9947 84.6006 85.8855 83.0743C85.6379 82.746 85.4767 82.3607 85.4167 81.9538C85.3567 81.547 85.3997 81.1316 85.5419 80.7457C86.2185 78.6478 81.5008 82.7518 81.5008 82.7518C81.5008 82.7518 81.5454 83.7352 81.5008 84.9887C81.5008 85.2352 81.4772 85.4922 81.4589 85.7544C81.4589 85.9275 81.4353 86.1006 81.4169 86.2789C81.3015 87.5245 81.0655 88.8069 80.5987 89.5726C79.458 91.445 80.5987 96.5927 80.5987 96.5927Z" fill="#FBBEBE"/>
<path opacity="0.1" d="M81.5009 85.0936H81.6058C81.7946 85.0936 81.9467 84.6924 82.1302 84.674C83.6066 84.5324 84.9545 84.223 85.8907 83.1766C85.6438 82.8484 85.483 82.4636 85.423 82.0573C85.363 81.651 85.4057 81.2361 85.5472 80.8506C86.2238 78.7527 81.5061 82.8541 81.5061 82.8541C81.5061 82.8541 81.5559 83.8401 81.5009 85.0936Z" fill="black"/>
<path d="M75.7579 79.1461C75.7575 79.901 75.906 80.6487 76.1947 81.3462C76.4835 82.0438 76.9069 82.6776 77.4407 83.2115C77.9746 83.7453 78.6084 84.1687 79.306 84.4575C80.0035 84.7462 80.7512 84.8947 81.5061 84.8943C81.6949 84.8943 81.8811 84.8943 82.0673 84.8681C83.1749 84.7594 84.2272 84.3316 85.0963 83.6365C85.9655 82.9414 86.6142 82.0089 86.9636 80.9523C87.3131 79.8957 87.3483 78.7603 87.065 77.6841C86.7817 76.6078 86.1921 75.6369 85.3677 74.8893C84.5433 74.1417 83.5196 73.6494 82.4209 73.4723C81.3221 73.2952 80.1956 73.4409 79.1781 73.8916C78.1605 74.3423 77.2957 75.0788 76.6885 76.0115C76.0814 76.9442 75.7581 78.0331 75.7579 79.1461Z" fill="#FBBEBE"/>
<path d="M73.993 70.4215C73.8042 70.9092 73.8619 71.4547 73.7859 71.9713C73.5053 73.8358 71.6093 74.9529 69.8943 75.7344C68.1792 76.5159 66.2439 77.4416 65.6985 79.2431C65.1006 81.1915 66.4065 83.1452 67.3138 84.973C69.0813 88.5342 69.3331 93.0762 67.0516 96.3331C65.0245 99.2178 61.4922 100.587 58.167 101.788C59.7673 103.047 61.7564 103.709 63.792 103.66C63.0289 105.881 60.3147 106.618 58.0018 107.027C59.2159 108.197 60.9546 108.622 62.6198 108.879C63.834 109.067 65.0796 109.191 66.2911 108.947C67.5027 108.703 68.6513 108.045 69.2754 106.98C69.7999 106.07 69.9782 104.83 70.9249 104.371C71.3522 104.203 71.8126 104.135 72.2701 104.174L76.2037 104.216C77.4284 104.216 78.8785 104.122 79.5105 103.075C79.7436 102.628 79.8659 102.132 79.8672 101.628C80.0376 99.0473 79.542 96.32 80.6041 93.9651C80.924 93.2545 78.8707 92.1295 79.0857 91.3769C79.8252 88.7886 80.0114 86.751 80.0035 84.0578C80.0035 81.973 81.3593 80.1767 82.4791 78.4171C83.5988 76.6575 84.535 74.4363 83.6513 72.5482C82.6548 70.4424 75.1705 67.3821 73.993 70.4215Z" fill="#3F3D56"/>
<path d="M79.2299 166.443L80.2316 167.106L80.3864 167.208L80.4152 167.227L81.6031 168.013L84.3776 168.48L86.8164 168.312C86.8164 168.312 87.5192 166.844 86.4152 166.878C86.0616 166.86 85.717 166.76 85.4082 166.587L85.2561 166.511C85.0961 166.427 84.9362 166.332 84.7788 166.233C84.4511 166.026 84.1416 165.8 83.8925 165.609C83.5254 165.325 83.2815 165.11 83.2815 165.11L79.2299 166.443Z" fill="#FBBEBE"/>
<path opacity="0.1" d="M80.2448 167.106L80.3995 167.208L80.4283 167.227L81.6163 168.013L84.3907 168.48L86.8295 168.312C86.8295 168.312 87.5323 166.844 86.4283 166.878C86.0747 166.86 85.7301 166.76 85.4213 166.587C85.6154 166.739 85.778 166.904 85.7937 167.043C85.8383 167.418 83.9895 168.092 83.9895 168.092L81.3829 167.402C81.3829 167.402 80.9397 167.276 80.3339 167.119L80.2762 167.103L80.2448 167.106Z" fill="black"/>
<path d="M75.7867 167.746C75.7867 167.746 77.924 168.212 79.361 168.079C80.7981 167.945 83.2736 169.183 83.2736 169.183C83.2736 169.183 84.1101 169.576 86.6827 169.744C89.2552 169.912 89.2552 168.606 89.2552 168.606C88.9615 166.83 84.8969 166.246 84.771 166.219C84.8208 166.246 85.0332 166.353 85.2483 166.497C85.5367 166.686 85.8488 166.933 85.8724 167.132C85.917 167.504 84.0682 168.181 84.0682 168.181L81.4615 167.494C81.4615 167.494 81.0184 167.365 80.4126 167.208H80.3549C79.4567 166.963 78.5441 166.775 77.6224 166.644C76.5 166.524 75.9257 167.478 75.8077 167.693C75.7991 167.71 75.7921 167.728 75.7867 167.746Z" fill="#3F3D56"/>
<path d="M42.0996 120.587L43.2351 121.458C43.2351 121.458 43.5655 121.442 44.0585 121.427H44.2159C44.9213 121.4 45.8942 121.374 46.7203 121.374C47.2542 121.35 47.7893 121.38 48.3173 121.463C48.8837 121.663 49.8907 118.222 49.8907 118.222L48.7526 117.96L48.375 117.871L48.1127 117.808L47.187 117.59L44.3811 117.91L42.4091 119.179L42.0996 120.587Z" fill="#FBBEBE"/>
<path opacity="0.1" d="M42.0996 120.587L43.2351 121.458C43.2351 121.458 43.5655 121.442 44.0585 121.427C43.8323 121.339 43.6458 121.172 43.5341 120.957C42.7998 118.92 46.4423 118.049 46.4423 118.049L48.139 117.976L48.4694 117.96H48.7316L48.354 117.871L48.0918 117.808L47.1661 117.59L44.3601 117.91L42.3881 119.179L42.0996 120.587Z" fill="black"/>
<path d="M39.8601 121.508C40.5472 122.143 45.0472 121.508 45.236 121.492C44.8945 121.531 44.5488 121.507 44.2159 121.421C44.0511 121.392 43.8949 121.326 43.7588 121.228C43.6227 121.131 43.5101 121.004 43.4292 120.858C42.6949 118.817 46.3374 117.949 46.3374 117.949L48.0341 117.876L48.3619 117.86L52.4869 117.682L52.6862 116.547C52.6862 116.547 51.3461 116.672 49.243 116.84C48.0603 116.937 46.6206 117.045 45.0655 117.147C40.7203 117.435 39.687 120.255 39.687 120.255C39.687 120.255 39.1599 120.858 39.8601 121.508Z" fill="#3F3D56"/>
<path d="M90.3278 72.286C90.3557 72.3482 90.3891 72.4079 90.4275 72.4643L91.4292 73.9328L94.0359 74.1951L94.0647 73.1619L94.5026 57.6164C94.5026 57.6164 96.3068 47.1898 92.8978 47.7904C89.4887 48.3909 91.6285 57.6164 91.6285 57.6164C91.6285 57.6164 91.2404 62.2947 90.9677 63.7003C90.7028 65.0587 89.5149 70.5814 90.3278 72.286Z" fill="#FBBEBE"/>
<path d="M84.4773 110.898L85.2194 112.167L86.8794 115.007C86.8794 115.007 89.8899 116.111 90.6608 115.269C91.083 114.81 91.5393 113.208 91.8593 111.86C92.1215 110.769 92.2972 109.849 92.2972 109.849L84.4773 110.898Z" fill="#FBBEBE"/>
<path opacity="0.1" d="M84.4773 110.898L85.2194 112.167C85.2659 112.127 85.3081 112.082 85.3453 112.033C86.1844 110.963 89.8794 111.805 91.8593 111.873C92.1215 110.782 92.2972 109.862 92.2972 109.862L84.4773 110.898Z" fill="black"/>
<path opacity="0.1" d="M46.7203 121.369C47.2542 121.345 47.7893 121.375 48.3173 121.458C48.8837 121.658 49.8907 118.217 49.8907 118.217L48.375 117.86L52.5 117.682L52.6993 116.547C52.6993 116.547 51.3592 116.672 49.2561 116.84C48.8215 117.09 48.4338 117.414 48.1101 117.797L48.0472 117.876C47.1687 118.954 46.8435 120.344 46.7203 121.369Z" fill="black"/>
<path opacity="0.1" d="M79.2299 166.443L80.3864 167.208C82.1119 166.896 83.688 166.406 83.8741 165.635C83.875 165.623 83.875 165.61 83.8741 165.598C83.507 165.315 83.2631 165.1 83.2631 165.1L79.2299 166.443Z" fill="black"/>
<path opacity="0.1" d="M75.8103 167.701C77.3341 167.625 78.8523 167.462 80.3575 167.213C79.4586 166.967 78.5451 166.777 77.6224 166.644C76.5026 166.524 75.9283 167.478 75.8103 167.701Z" fill="black"/>
<path d="M46.8461 122.693C46.8461 123.53 49.1512 124.065 49.1512 124.065L56.1713 130.314C56.1713 130.314 60.5822 132.286 63.3881 135.126C66.194 137.966 68.6696 135.527 68.6696 135.527C71.6433 134.793 80.208 124.432 80.208 124.432C80.208 124.432 80.4073 136.264 80.8085 137.132C81.2098 138 80.6748 140.373 80.4414 141.378C80.2942 142.215 80.2379 143.066 80.2736 143.916C80.2736 143.916 77.0664 156.181 77.3339 157.251C77.6014 158.321 75.5953 163.335 75.5953 163.335V167.512C75.5953 167.512 83.4493 167.211 83.882 165.441C84.3147 163.67 81.9126 162.899 81.9126 162.899V162.464C83.486 161.662 83.7823 156.149 83.7823 156.149C83.7823 156.149 86.1241 149.331 86.4572 148.196C86.7902 147.06 86.4572 145.353 86.4572 145.353L86.6905 143.885C86.6905 143.885 87.1914 142.88 87.1914 142.681C87.2569 142.172 87.4529 141.689 87.7605 141.278C88.1276 140.843 87.3592 139.807 87.3592 139.807L88.028 138.068V136.164L89.6014 129.247C89.6014 129.247 91.2404 121.191 90.6713 118.55C90.1023 115.909 91.34 114.574 91.34 114.574C88.6573 115.98 87.3042 112.851 86.861 111.506C86.7482 111.16 86.6932 110.929 86.6932 110.929C86.6932 110.929 83.0087 109.571 79.5787 109.896C78.882 109.952 78.1955 110.098 77.5358 110.329C73.7255 111.7 73.125 117.38 73.125 117.38L69.75 122.528C68.0114 127.107 65.4047 127.573 65.4047 127.573C65.4047 127.573 59.2893 123.464 59.111 123.262C58.9327 123.06 56.604 122.059 56.604 122.059C56.3287 121.574 55.9075 121.189 55.4003 120.957C54.5979 120.622 54.5323 119.384 54.5323 119.384C54.4327 116.476 52.7281 116.237 52.7281 116.237C46.8121 115.744 46.8461 121.859 46.8461 122.693Z" fill="#3F3D56"/>
<path d="M80.8689 106.353H84.4772V95.1583H80.8689V106.353Z" fill="#F86D70"/>
<path opacity="0.1" d="M80.8689 106.353H84.4772V95.1583H80.8689V106.353Z" fill="black"/>
<path opacity="0.1" d="M90.3252 72.2623C90.3246 72.2702 90.3246 72.2781 90.3252 72.2859C90.3531 72.3482 90.3864 72.4079 90.4248 72.4642L91.4266 73.9328L94.0332 74.195L94.0621 73.1618C93.2491 73.0989 91.3977 72.876 90.3252 72.2623Z" fill="black"/>
<path d="M90.4275 72.4644C90.4275 72.4644 90.5612 78.3437 89.0901 79.1462C87.6189 79.9486 87.0472 84.1287 87.0472 84.1287C87.0472 84.1287 91.5053 87.0605 92.4992 88.3507C93.4931 89.6409 95.7745 92.7144 95.3051 93.4486C94.8357 94.1829 96.4432 97.5264 96.4432 97.5264C96.4432 97.5264 93.5009 103.542 94.1696 105.816C94.8383 108.089 94.9039 114.102 94.9039 114.102H96.1757C96.1757 114.102 95.7745 109.157 95.7745 107.151C95.7745 105.144 97.1093 97.9932 97.1093 97.9932C97.1093 97.9932 97.7125 90.9757 97.1093 90.7764C96.5062 90.5771 92.9659 87.7686 92.6985 86.4967C92.431 85.2249 94.5708 73.3848 94.5708 73.3848C94.5708 73.3848 91.8305 73.2668 90.4275 72.4644Z" fill="#F86D70"/>
<path opacity="0.1" d="M80.8007 94.1199C80.9227 94.938 81.2206 95.72 81.674 96.4119L84.1442 95.9923C84.1442 95.9923 91.5629 94.3192 93.0944 94.1828C94.0222 94.0604 94.9269 93.8024 95.7797 93.4171C95.1919 91.3343 94.0446 89.4523 92.4624 87.9757L91.521 87.1024C90.1337 85.8145 88.5259 84.7867 86.7745 84.0684C86.8846 84.1601 94.6678 90.8052 92.9633 92.1086C91.2587 93.4119 86.6696 90.2388 86.6696 90.2388L81.4511 85.7545L81.2622 85.592L80.9607 86.0614C81.1141 86.1245 81.2638 86.1963 81.4091 86.2764C83.1876 87.2526 84.5075 88.893 85.0804 90.8393C86.153 94.4451 80.8007 94.1199 80.8007 94.1199Z" fill="black"/>
<path d="M79.1958 110.83C79.1958 110.83 84.1416 113.57 85.3427 112.033C85.6049 111.695 86.1582 111.548 86.8479 111.509C86.7351 111.163 86.6801 110.932 86.6801 110.932C86.6801 110.932 82.9956 109.573 79.5656 109.899C79.34 110.465 79.1958 110.83 79.1958 110.83Z" fill="#444053"/>
<path d="M81.472 85.5972L86.8794 90.2493C86.8794 90.2493 91.4502 93.4328 93.1731 92.119C94.896 90.8052 86.9816 84.0762 86.9816 84.0762C88.7293 84.7967 90.3355 85.8213 91.7255 87.1024L92.667 87.9756C95.1425 90.2702 95.7011 90.2702 95.785 93.6426C95.806 94.4739 95.5227 95.6671 95.3051 95.8821C94.5026 96.6688 93.9414 102.383 94.0647 103.052C94.1879 103.72 92.5699 109.492 93.0944 111.097C93.6189 112.702 86.5385 110.295 85.34 111.834C84.1416 113.373 79.1958 110.63 79.1958 110.63C79.1958 110.63 81.9362 103.61 82.6049 103.143C83.2736 102.677 84.076 99.0657 82.6049 97.3952C81.1337 95.7248 81.0026 94.1199 81.0026 94.1199C81.0026 94.1199 86.3523 94.4503 85.2797 90.8445C84.978 89.7994 84.4545 88.8316 83.7449 88.0071C83.0353 87.1825 82.1563 86.5207 81.1678 86.0666L81.472 85.5972Z" fill="#E8E8F0"/>
<path opacity="0.1" d="M88.6888 97.4292C88.6888 97.4292 86.6145 101.339 83.9318 102.354C83.8453 102.386 83.7614 102.414 83.6696 102.441C80.8689 103.293 88.8986 98.6407 88.6888 97.4292Z" fill="black"/>
<path d="M59.6801 62.8375C59.6801 62.8375 60.6818 65.3786 61.4843 66.2466C62.2867 67.1146 68.2343 75.8052 68.2343 75.8052L68.7378 76.8541L69.1705 77.7483L72.9808 77.3471L73.243 75.8104L73.0962 75.6321C72.7133 75.1732 71.6696 73.9407 70.9694 73.4031C70.1014 72.737 68.3628 70.5316 68.3628 70.5316C68.3628 70.5316 62.9502 64.9144 62.5489 63.3777C62.1477 61.841 56.7325 52.626 55.5315 54.2204C54.3304 55.8148 59.6801 62.8375 59.6801 62.8375Z" fill="#FBBEBE"/>
<g opacity="0.1">
<path opacity="0.1" d="M70.736 104.174C70.2787 104.135 69.8183 104.201 69.3908 104.368C68.4467 104.827 68.2684 106.067 67.7439 106.977C67.1303 108.042 65.9607 108.7 64.757 108.944C64.5178 108.991 64.2761 109.024 64.0332 109.044C64.7999 109.118 65.5732 109.085 66.3304 108.944C67.5341 108.7 68.7037 108.042 69.3173 106.977C69.8418 106.067 70.0201 104.827 70.9642 104.368C71.2121 104.257 71.4792 104.194 71.7509 104.185L70.736 104.174Z" fill="black"/>
<path opacity="0.1" d="M80.0508 84.0578C80.0508 81.9731 81.4065 80.1767 82.5237 78.4171C83.6408 76.6575 84.5796 74.4363 83.6959 72.5482C82.9406 70.9355 78.3882 68.772 75.7605 69.1995C78.3331 69.5325 81.5036 71.2265 82.1224 72.5482C83.0062 74.4363 82.0674 76.6575 80.9502 78.4171C79.8331 80.1767 78.4721 81.9731 78.4773 84.0578C78.4773 86.7484 78.2964 88.7781 77.5569 91.3769C77.3445 92.1243 79.3925 93.2545 79.0778 93.9626C78.0132 96.3227 78.5114 99.0447 78.341 101.625C78.3374 102.129 78.2143 102.625 77.9817 103.073C77.4572 103.935 76.382 104.158 75.3357 104.206H76.2509C77.4729 104.206 78.9231 104.111 79.5551 103.065C79.7877 102.618 79.9108 102.121 79.9144 101.617C80.0848 99.0369 79.5866 96.3122 80.6513 93.9547C80.9712 93.2467 78.9179 92.119 79.1303 91.369C79.8698 88.7886 80.056 86.7484 80.0508 84.0578Z" fill="black"/>
</g>
<path opacity="0.1" d="M68.7378 76.8489L69.1705 77.7431L72.9808 77.3419L73.243 75.8052L73.0962 75.6268C72.6897 75.8261 69.6451 77.292 68.7378 76.8489Z" fill="black"/>
<path opacity="0.1" d="M82.8069 86.9004C82.8069 86.9004 81.8707 85.4319 81.3357 85.8305C80.8007 86.2291 80.5936 84.6268 80.2868 84.8943C79.9799 85.1618 79.0857 85.9066 78.7133 84.8655C78.4222 84.0368 75.2544 78.7947 73.9694 76.6863C73.639 76.1408 73.4319 75.8052 73.4319 75.8052C73.4319 75.8052 69.8235 77.6094 68.9555 77.0088V78.2781L69.6897 78.3463L73.6233 85.6889C73.6233 85.6889 74.8611 87.6583 74.7771 88.3454C74.6932 89.0324 76.3637 92.0403 76.6312 92.2396C76.8986 92.4389 79.778 95.7824 79.778 95.7824C79.778 95.7824 81.2492 103.002 79.9773 105.008C78.7055 107.014 76.5027 108.483 76.5027 108.483C76.5027 108.483 75.8392 110.421 75.9362 110.622C76.0333 110.824 75.1653 111.692 75.5665 111.96C75.9677 112.227 76.5027 114.097 76.5027 114.097C76.5027 114.097 78.375 111.089 79.3873 110.622C80.3995 110.156 81.695 104.004 81.695 104.004C81.695 104.004 82.0647 100.379 82.0936 98.0403C82.1224 95.7011 82.0044 86.9004 82.8069 86.9004Z" fill="black"/>
<path d="M82.6049 86.9005C82.6049 86.9005 81.6714 85.4319 81.1364 85.8305C80.6014 86.2291 80.3916 84.6268 80.0875 84.8943C79.7833 85.1618 78.889 85.9066 78.514 84.8655C78.2203 84.0368 75.0525 78.7947 73.7701 76.6863L73.2326 75.8052C73.2326 75.8052 69.6242 77.6094 68.7535 77.0088V78.2781L69.4904 78.3463L73.424 85.6889C73.424 85.6889 74.6644 87.6583 74.5778 88.3454C74.4913 89.0324 76.1513 92.0403 76.4319 92.2396C76.7124 92.4389 79.5787 95.7824 79.5787 95.7824C79.5787 95.7824 81.0499 103.002 79.7806 105.008C79.1101 106.016 78.2945 106.919 77.3602 107.688C76.5753 108.335 76.023 109.221 75.7868 110.211C75.7412 110.346 75.7251 110.489 75.7396 110.63C75.8366 110.83 74.9686 111.7 75.3698 111.968C75.771 112.235 76.3112 114.113 76.3112 114.113C76.3112 114.113 78.1836 111.105 79.1958 110.638C80.2081 110.171 81.5062 104.019 81.5062 104.019C81.5062 104.019 81.8733 100.395 81.9048 98.056C81.9362 95.7169 81.8182 86.9005 82.6049 86.9005Z" fill="#F86D70"/>
<path opacity="0.1" d="M73.4475 117.315C73.4475 117.315 76.2561 117.839 77.3811 118.65C78.5061 119.46 73.104 117.38 73.104 117.38L73.4475 117.315Z" fill="black"/>
<path opacity="0.1" d="M80.2002 124.432C80.2002 124.432 83.1294 126.873 82.6049 129.079C82.0804 131.284 80.7273 136.833 80.7273 136.833L80.2002 124.432Z" fill="black"/>
<path opacity="0.1" d="M54.5822 119.738C54.5822 119.738 50.4546 120.189 50.7221 120.724C50.9895 121.259 54.5822 120.231 54.5822 120.231V119.738Z" fill="black"/>
<path opacity="0.1" d="M86.2762 140.04C86.2762 140.04 86.5384 140.373 85.007 140.04C83.4755 139.707 84.6057 138.679 84.6057 138.679L86.2762 140.04Z" fill="black"/>
<path opacity="0.1" d="M85.7518 144.653C85.7518 144.653 83.6539 144.986 82.5289 144.653C81.4038 144.32 85.7518 144.653 85.7518 144.653Z" fill="black"/>
<path opacity="0.1" d="M81.4353 162.7C81.4353 162.7 81.0682 162.299 79.2299 163.033C77.3916 163.768 76.6574 163.802 76.1224 163.558C75.5874 163.314 81.4353 162.7 81.4353 162.7Z" fill="black"/>
<path opacity="0.1" d="M83.4755 119.169L80.8689 122.796C80.8689 122.796 82.2719 119.62 83.4755 119.169Z" fill="black"/>
<path opacity="0.1" d="M78.4091 85.8304C78.4091 85.8304 78.2963 87.0341 76.6154 87.5035C74.9344 87.9729 74.6145 88.3532 74.6145 88.3532" fill="black"/>
<path opacity="0.1" d="M74.0402 77.1058C74.0402 77.1058 71.8216 78.6793 69.5061 78.3462L74.0402 77.1058Z" fill="black"/>
<path opacity="0.1" d="M75.729 110.796C75.729 110.796 76.3768 111.202 77.9318 109.424L75.729 110.796Z" fill="black"/>
<path opacity="0.1" d="M91.8803 91.9433C91.9432 91.6181 91.7177 91.3165 91.5053 91.0621L91.0699 90.5377C90.9849 90.4303 90.8891 90.3319 90.7841 90.244C90.5219 90.042 90.1862 89.9817 89.9135 89.8008" fill="black"/>
<path opacity="0.1" d="M232.681 0.524599C232.681 0.524599 210.603 -0.807567 213.199 14.6645C213.199 14.6645 212.675 17.3996 215.161 18.64C215.161 18.64 215.2 17.494 217.427 17.8847C218.219 18.0161 219.024 18.0549 219.826 18.0001C220.909 17.9254 221.938 17.5001 222.758 16.7886C222.758 16.7886 228.965 14.2239 231.378 4.08055C231.378 4.08055 233.164 1.86726 233.093 1.2982L229.366 2.88998C229.366 2.88998 230.641 5.57792 229.629 7.81219C229.629 7.81219 229.508 2.98701 228.792 3.09191C228.648 3.11551 226.857 4.02285 226.857 4.02285C226.857 4.02285 229.046 8.7038 227.394 12.1076C227.394 12.1076 228.021 6.33841 226.172 4.36114L223.55 5.89261C223.55 5.89261 226.109 10.7283 224.373 14.675C224.373 14.675 224.819 8.6225 222.997 6.26499L220.621 8.11901C220.621 8.11901 223.025 12.8865 221.559 16.1592C221.559 16.1592 221.368 9.11289 220.107 8.58055C220.107 8.58055 218.027 10.4162 217.71 11.1662C217.71 11.1662 219.357 14.6277 218.334 16.4529C218.334 16.4529 217.707 11.7589 217.193 11.7326C217.193 11.7326 215.122 14.8428 214.906 16.9774C214.906 16.9774 214.996 13.8069 216.692 11.4389C216.692 11.4389 214.689 11.7825 213.519 13.0805C213.519 13.0805 213.842 10.883 217.204 10.6916C217.204 10.6916 218.916 8.33142 219.372 8.18719C219.372 8.18719 216.031 7.90921 214.004 8.80607C214.004 8.80607 215.788 6.73177 219.986 7.67582L222.333 5.75887C222.333 5.75887 217.933 5.15834 216.066 5.8218C216.066 5.8218 218.213 3.98614 222.965 5.32355L225.519 3.79733C225.519 3.79733 221.767 2.98964 219.532 3.27285C219.532 3.27285 221.893 2.001 226.269 3.38037L228.105 2.55957C228.105 2.55957 225.357 2.01936 224.552 1.93282C223.747 1.84628 223.705 1.626 223.705 1.626C225.446 1.33566 227.233 1.53448 228.868 2.2003C228.868 2.2003 232.749 0.768481 232.681 0.524599Z" fill="#00BAFC"/>
<path opacity="0.1" d="M205.45 4.46081C205.45 4.46081 195.485 3.85767 196.652 10.8489C196.652 10.8489 196.419 12.0867 197.536 12.6479C197.536 12.6479 197.554 12.1234 198.561 12.3043C198.919 12.3645 199.282 12.3821 199.644 12.3568C200.134 12.3235 200.599 12.131 200.969 11.8087C200.969 11.8087 203.775 10.6522 204.865 6.06833C204.865 6.06833 205.67 5.06658 205.639 4.80959L203.955 5.52812C203.955 5.52812 204.532 6.7449 204.079 7.75452C204.079 7.75452 204.024 5.5727 203.701 5.62515C203.636 5.62515 202.825 6.04473 202.825 6.04473C202.825 6.04473 203.816 8.16099 203.069 9.70032C203.069 9.70032 203.352 7.09368 202.516 6.19945L201.33 6.89176C201.33 6.89176 202.49 9.0762 201.703 10.8594C201.703 10.8594 201.905 8.12428 201.081 7.05959L200.009 7.90662C200.009 7.90662 201.094 10.0622 200.434 11.5386C200.434 11.5386 200.347 8.35505 199.775 8.11641C199.775 8.11641 198.837 8.94508 198.692 9.28599C198.692 9.28599 199.437 10.8594 198.976 11.6724C198.976 11.6724 198.692 9.55085 198.451 9.54298C198.451 9.54298 197.518 10.9486 197.418 11.9031C197.465 11.0123 197.743 10.1491 198.226 9.39875C197.685 9.50108 197.187 9.75903 196.791 10.1409C196.791 10.1409 196.938 9.14962 198.456 9.06046C198.456 9.06046 199.243 7.99578 199.437 7.93022C199.437 7.93022 197.927 7.80435 197.011 8.21081C197.011 8.21081 197.816 7.272 199.715 7.68634L200.764 6.82095C200.764 6.82095 198.776 6.55872 197.932 6.8498C197.932 6.8498 198.902 6.02113 201.05 6.62428L202.204 5.93459C202.204 5.93459 200.51 5.56746 199.497 5.7012C199.497 5.7012 200.565 5.12428 202.542 5.7484L203.368 5.37865C203.368 5.37865 202.125 5.13214 201.761 5.09543C201.396 5.05872 201.378 4.95644 201.378 4.95644C202.165 4.82549 202.973 4.91629 203.712 5.21868C203.712 5.21868 205.482 4.57095 205.45 4.46081Z" fill="#00BAFC"/>
<path d="M240.26 171.15C246.083 171.15 250.804 170.351 250.804 169.366C250.804 168.382 246.083 167.583 240.26 167.583C234.436 167.583 229.715 168.382 229.715 169.366C229.715 170.351 234.436 171.15 240.26 171.15Z" fill="#00BAFC"/>
<path d="M244.621 166.45C245.102 166.058 245.452 165.528 245.625 164.932C245.756 164.331 245.499 163.621 244.922 163.387C244.277 163.141 243.587 163.589 243.066 164.04C242.544 164.491 241.943 165.008 241.261 164.911C241.613 164.592 241.876 164.187 242.024 163.736C242.173 163.286 242.203 162.804 242.111 162.338C242.081 162.146 242 161.964 241.875 161.814C241.516 161.431 240.868 161.594 240.438 161.895C239.074 162.855 238.694 164.709 238.686 166.374C238.55 165.774 238.665 165.147 238.663 164.539C238.66 163.93 238.49 163.227 237.968 162.905C237.646 162.732 237.284 162.647 236.919 162.658C236.308 162.635 235.623 162.698 235.206 163.146C234.682 163.702 234.821 164.636 235.272 165.244C235.723 165.852 236.413 166.243 237.047 166.665C237.555 166.968 237.988 167.381 238.314 167.874C238.353 167.943 238.385 168.016 238.408 168.092H242.253C243.112 167.654 243.909 167.102 244.621 166.45Z" fill="#00BAFC"/>
</g>
<defs>
<linearGradient id="paint0_linear" x1="212.022" y1="132.908" x2="212.022" y2="27.4093" gradientUnits="userSpaceOnUse">
<stop stop-color="#808080" stop-opacity="0.25"/>
<stop offset="0.54" stop-color="#808080" stop-opacity="0.12"/>
<stop offset="1" stop-color="#808080" stop-opacity="0.1"/>
</linearGradient>
<linearGradient id="paint1_linear" x1="10450.5" y1="65713.3" x2="23402.9" y2="65713.3" gradientUnits="userSpaceOnUse">
<stop stop-color="#808080" stop-opacity="0.25"/>
<stop offset="0.54" stop-color="#808080" stop-opacity="0.12"/>
<stop offset="1" stop-color="#808080" stop-opacity="0.1"/>
</linearGradient>
<clipPath id="clip0">
<rect width="300" height="171.115" fill="white" transform="translate(0 0.495728)"/>
</clipPath>
</defs>
</svg>
