<svg width="300" height="260" viewBox="0 0 300 260" fill="none" xmlns="http://www.w3.org/2000/svg">
<g clip-path="url(#clip0)">
<path d="M163.752 72.6947C179.008 72.6947 191.375 60.3273 191.375 45.0713C191.375 29.8153 179.008 17.4479 163.752 17.4479C148.496 17.4479 136.128 29.8153 136.128 45.0713C136.128 60.3273 148.496 72.6947 163.752 72.6947Z" fill="#A0616A"/>
<path d="M143.134 58.8831C143.134 58.8831 148.338 98.1164 140.332 102.52C132.325 106.924 187.972 107.324 187.972 107.324C187.972 107.324 175.562 73.2953 181.166 62.8864L143.134 58.8831Z" fill="#A0616A"/>
<path d="M228.606 107.523L223.978 128.596L214.193 173.181L213.9 175.623L210.523 203.89L208.276 222.669L206.77 235.283C197.612 239.99 190.974 243.239 190.974 243.239C190.974 243.239 190.403 240.377 189.483 236.714C183.055 238.641 171.163 241.838 161.084 242.477C164.754 246.567 166.441 250.41 164.153 253.246C157.249 261.796 128.745 243.885 118.775 237.206C118.543 238.805 118.455 240.422 118.512 242.037L110.883 236.17L111.638 222.669L112.911 199.826L114.512 171.179C114.007 169.953 113.584 168.694 113.246 167.412C110.909 159.102 108.073 142.51 105.898 128.596C104.148 117.398 102.833 107.936 102.555 105.922C102.517 105.659 102.499 105.524 102.499 105.524L144.732 86.8621C147.734 93.8228 161.749 95.9151 161.749 95.9151C173.36 95.115 182.462 88.992 182.462 88.992L228.606 107.523Z" fill="#D0CDE1"/>
<path d="M194.178 235.234C194.178 235.234 192.39 235.846 189.483 236.714C183.055 238.641 171.163 241.838 161.084 242.476C152.407 243.032 145.074 241.695 143.733 236.034C143.158 233.6 143.973 231.598 145.75 229.953C151.054 225.035 164.908 223.274 175.896 222.669C178.998 222.5 181.868 222.421 184.258 222.391C188.314 222.338 190.974 222.421 190.974 222.421L191.038 222.669L194.178 235.234Z" fill="#A0616A"/>
<path d="M140.771 18.942L135.607 16.8743C135.607 16.8743 146.406 4.98486 161.431 6.01877L157.205 1.36633C157.205 1.36633 167.535 -2.76909 176.926 8.08644C181.862 13.7929 187.574 20.5007 191.134 28.0568H196.666L194.357 33.14L202.437 38.2231L194.144 37.3101C194.638 40.0937 194.714 42.9354 194.369 45.7414C194.013 48.5483 192.581 51.1071 190.374 52.8779C190.374 52.8779 183.969 39.6193 183.969 37.5515V42.7209C183.969 42.7209 178.804 38.0685 178.804 34.9669L175.987 38.5854L174.578 32.8992L157.205 38.5854L160.022 33.9331L149.223 35.4839L153.449 29.7976C153.449 29.7976 141.241 36.5177 140.771 42.204C140.302 47.8902 136.729 53.2782 136.729 53.2782C136.729 53.2782 127.155 26.696 140.771 18.942Z" fill="#2F2E41"/>
<path d="M258.631 204.405C255.818 207.455 248.846 212.049 240.394 217.023C237.25 218.871 233.903 220.776 230.488 222.669C222.34 227.188 213.809 231.665 206.77 235.283C197.612 239.99 190.974 243.239 190.974 243.239C190.974 243.239 190.403 240.377 189.483 236.714C188.251 231.812 186.395 225.475 184.46 222.669C184.393 222.571 184.325 222.481 184.258 222.391C183.694 221.651 183.127 221.219 182.567 221.219L210.523 203.89L222.603 196.4L213.9 175.623L202.983 149.561L209.572 128.596L216.195 107.522H228.606C228.606 107.522 232.716 116.493 237.971 129.002C238.756 130.873 239.567 132.822 240.394 134.836C251.205 161.131 264.683 197.85 258.631 204.405Z" fill="#D0CDE1"/>
<path d="M164.153 253.246C157.249 261.796 128.745 243.885 118.775 237.206C116.604 235.753 115.312 234.832 115.312 234.832L124.432 222.669L127.321 218.818C127.321 218.818 129.906 220.19 133.726 222.421C133.865 222.504 134.004 222.586 134.147 222.669C137.441 224.603 141.577 227.132 145.75 229.953C151.509 233.848 157.331 238.292 161.084 242.477C164.754 246.567 166.441 250.41 164.153 253.246Z" fill="#A0616A"/>
<path d="M133.726 222.421C132.706 222.417 131.688 222.5 130.683 222.669C122.047 224.153 119.5 231.97 118.775 237.206C118.543 238.806 118.455 240.422 118.512 242.037L110.883 236.17L108.103 234.032C101.413 231.699 95.4514 227.556 90.2825 222.669C85.7984 218.354 81.7761 213.584 78.2806 208.436C74.7991 203.361 71.6954 198.038 68.9947 192.508C68.2411 190.965 67.8361 189.276 67.8082 187.559C67.7802 185.842 68.1302 184.139 68.8332 182.573L78.2806 161.518L92.0893 130.745C92.1908 130.012 92.3022 129.296 92.4236 128.596C95.1621 112.894 102.498 105.922 102.498 105.922H108.103L111.852 128.596L116.51 156.766L113.246 167.412L105.703 191.998L112.911 199.826L133.726 222.421Z" fill="#D0CDE1"/>
<path d="M140.069 156.788L144.86 162.378C146.64 162.039 148.499 161.64 150.414 161.192L149.038 156.788L152.403 160.714C172.687 155.725 197.828 146.026 197.828 146.026C197.828 146.026 170.685 148.016 150.419 143.588C141.452 141.629 132.226 146.074 128.546 154.483C126.408 159.37 126.743 163.605 134.329 163.605C136.892 163.561 139.448 163.32 141.974 162.885L140.069 156.788Z" fill="#00BAFC"/>
<path d="M249.297 248.663V250.944C249.298 251.569 249.182 252.19 248.955 252.773C248.854 253.033 248.732 253.284 248.59 253.524C248.143 254.276 247.507 254.898 246.747 255.33C245.986 255.762 245.126 255.989 244.252 255.989H76.5076C75.6329 255.989 74.7731 255.762 74.0125 255.33C73.2519 254.898 72.6166 254.276 72.1689 253.524C72.0273 253.284 71.9054 253.033 71.8046 252.773C71.5774 252.19 71.4614 251.569 71.4627 250.944V248.663C71.4625 248.001 71.5929 247.345 71.8464 246.733C72.0999 246.12 72.4715 245.564 72.94 245.096C73.4084 244.627 73.9647 244.256 74.5768 244.002C75.189 243.749 75.8451 243.618 76.5076 243.619H86.1767V242.555C86.1767 242.528 86.1821 242.5 86.1926 242.475C86.2032 242.449 86.2187 242.426 86.2382 242.407C86.2578 242.387 86.281 242.372 86.3065 242.361C86.3321 242.35 86.3594 242.345 86.3871 242.345H91.432C91.4596 242.345 91.487 242.35 91.5125 242.361C91.5381 242.372 91.5613 242.387 91.5808 242.407C91.6004 242.426 91.6159 242.449 91.6264 242.475C91.637 242.5 91.6424 242.528 91.6423 242.555V243.619H94.794V242.555C94.7939 242.528 94.7994 242.5 94.8099 242.475C94.8205 242.449 94.836 242.426 94.8555 242.407C94.875 242.387 94.8983 242.372 94.9238 242.361C94.9493 242.35 94.9767 242.345 95.0044 242.345H100.049C100.077 242.345 100.104 242.35 100.13 242.361C100.155 242.372 100.179 242.387 100.198 242.407C100.218 242.426 100.233 242.449 100.244 242.475C100.254 242.5 100.26 242.528 100.26 242.555V243.619H103.415V242.555C103.415 242.528 103.42 242.5 103.431 242.475C103.442 242.449 103.457 242.426 103.477 242.407C103.496 242.387 103.519 242.372 103.545 242.361C103.57 242.35 103.598 242.345 103.625 242.345H108.67C108.698 242.345 108.725 242.35 108.751 242.361C108.776 242.372 108.8 242.387 108.819 242.407C108.839 242.426 108.854 242.449 108.865 242.475C108.875 242.5 108.881 242.528 108.881 242.555V243.619H112.032V242.555C112.032 242.528 112.038 242.5 112.048 242.475C112.059 242.449 112.074 242.426 112.094 242.407C112.113 242.387 112.137 242.372 112.162 242.361C112.188 242.35 112.215 242.345 112.243 242.345H117.288C117.315 242.345 117.343 242.35 117.368 242.361C117.394 242.372 117.417 242.387 117.436 242.407C117.456 242.426 117.471 242.449 117.482 242.475C117.493 242.5 117.498 242.528 117.498 242.555V243.619H120.65V242.555C120.65 242.528 120.655 242.5 120.666 242.475C120.676 242.449 120.692 242.426 120.711 242.407C120.731 242.387 120.754 242.372 120.779 242.361C120.805 242.35 120.832 242.345 120.86 242.345H125.905C125.933 242.345 125.96 242.35 125.985 242.361C126.011 242.372 126.034 242.387 126.054 242.407C126.073 242.426 126.089 242.449 126.099 242.475C126.11 242.5 126.115 242.528 126.115 242.555V243.619H129.271V242.555C129.271 242.528 129.276 242.5 129.287 242.475C129.297 242.449 129.313 242.426 129.332 242.407C129.352 242.387 129.375 242.372 129.4 242.361C129.426 242.35 129.453 242.345 129.481 242.345H134.526C134.554 242.345 134.581 242.35 134.606 242.361C134.632 242.372 134.655 242.387 134.675 242.407C134.694 242.426 134.71 242.449 134.72 242.475C134.731 242.5 134.736 242.528 134.736 242.555V243.619H137.888V242.555C137.888 242.528 137.893 242.5 137.904 242.475C137.914 242.449 137.93 242.426 137.949 242.407C137.969 242.387 137.992 242.372 138.018 242.361C138.043 242.35 138.071 242.345 138.098 242.345H177.616C177.644 242.345 177.671 242.35 177.697 242.361C177.722 242.372 177.745 242.387 177.765 242.407C177.785 242.426 177.8 242.449 177.811 242.475C177.821 242.5 177.827 242.528 177.826 242.555V243.619H180.982V242.555C180.982 242.528 180.987 242.5 180.998 242.475C181.008 242.449 181.024 242.426 181.043 242.407C181.063 242.387 181.086 242.372 181.112 242.361C181.137 242.35 181.165 242.345 181.192 242.345H186.237C186.293 242.346 186.346 242.368 186.385 242.407C186.425 242.447 186.447 242.5 186.448 242.555V243.619H189.599V242.555C189.599 242.528 189.605 242.5 189.615 242.475C189.626 242.449 189.641 242.426 189.661 242.407C189.68 242.387 189.703 242.372 189.729 242.361C189.755 242.35 189.782 242.345 189.81 242.345H194.854C194.882 242.345 194.91 242.35 194.935 242.361C194.961 242.372 194.984 242.387 195.003 242.407C195.023 242.426 195.038 242.449 195.049 242.475C195.059 242.5 195.065 242.528 195.065 242.555V243.619H198.217V242.555C198.216 242.528 198.222 242.5 198.232 242.475C198.243 242.449 198.258 242.426 198.278 242.407C198.298 242.387 198.321 242.372 198.346 242.361C198.372 242.35 198.399 242.345 198.427 242.345H203.472C203.499 242.345 203.527 242.35 203.552 242.361C203.578 242.372 203.601 242.387 203.621 242.407C203.64 242.426 203.656 242.449 203.666 242.475C203.677 242.5 203.682 242.528 203.682 242.555V243.619H206.838V242.555C206.838 242.528 206.843 242.5 206.853 242.475C206.864 242.449 206.88 242.426 206.899 242.407C206.919 242.387 206.942 242.372 206.967 242.361C206.993 242.35 207.02 242.345 207.048 242.345H212.093C212.148 242.346 212.201 242.368 212.239 242.408C212.278 242.447 212.3 242.5 212.299 242.555V243.619H215.455V242.555C215.455 242.528 215.46 242.5 215.471 242.475C215.481 242.449 215.497 242.426 215.516 242.407C215.536 242.387 215.559 242.372 215.585 242.361C215.61 242.35 215.638 242.345 215.665 242.345H220.71C220.738 242.345 220.765 242.35 220.791 242.361C220.816 242.372 220.839 242.387 220.859 242.407C220.879 242.426 220.894 242.449 220.905 242.475C220.915 242.5 220.921 242.528 220.92 242.555V243.619H224.072V242.555C224.072 242.528 224.078 242.5 224.088 242.475C224.099 242.449 224.114 242.426 224.134 242.407C224.153 242.387 224.176 242.372 224.202 242.361C224.227 242.35 224.255 242.345 224.282 242.345H229.327C229.355 242.345 229.382 242.35 229.408 242.361C229.434 242.372 229.457 242.387 229.476 242.407C229.496 242.426 229.511 242.449 229.522 242.475C229.532 242.5 229.538 242.528 229.538 242.555V243.619H244.252C244.914 243.618 245.57 243.749 246.183 244.002C246.795 244.256 247.351 244.627 247.819 245.096C248.288 245.564 248.66 246.12 248.913 246.733C249.166 247.345 249.297 248.001 249.297 248.663Z" fill="#3F3D56"/>
<path d="M298.074 252.773H22.7266V253.524H298.074V252.773Z" fill="#3F3D56"/>
<path d="M235.79 152.638H173.267V151.349H144.916V152.638H82.135C81.0134 152.638 79.9376 153.083 79.1445 153.876C78.3514 154.67 77.9058 155.745 77.9058 156.867V242.481C77.9058 243.602 78.3514 244.678 79.1445 245.471C79.9376 246.264 81.0134 246.71 82.135 246.71H235.79C236.912 246.71 237.987 246.264 238.781 245.471C239.574 244.678 240.019 243.602 240.019 242.481V156.867C240.019 156.311 239.91 155.762 239.697 155.248C239.485 154.735 239.173 154.269 238.781 153.876C238.388 153.484 237.922 153.172 237.409 152.96C236.895 152.747 236.345 152.638 235.79 152.638Z" fill="#3F3D56"/>
<path d="M159.086 191.919C164.272 191.919 168.477 187.714 168.477 182.527C168.477 177.341 164.272 173.136 159.086 173.136C153.899 173.136 149.694 177.341 149.694 182.527C149.694 187.714 153.899 191.919 159.086 191.919Z" stroke="#D0CDE1" stroke-width="2" stroke-miterlimit="10"/>
<path d="M156.08 195.299C161.267 195.299 165.472 191.095 165.472 185.908C165.472 180.722 161.267 176.517 156.08 176.517C150.894 176.517 146.689 180.722 146.689 185.908C146.689 191.095 150.894 195.299 156.08 195.299Z" fill="#D0CDE1"/>
<path d="M40.7372 248.978H30.2191V259.496H40.7372V248.978Z" fill="#D0CDE1"/>
<path d="M34.3527 240.714V253.486H47.1246V240.714H34.3527ZM46.5687 252.93H34.9049V241.27H46.5687V252.93Z" fill="#3F3D56"/>
<path d="M284.155 248.978H273.637V259.496H284.155V248.978Z" fill="#D0CDE1"/>
<path d="M277.77 240.714V253.486H290.542V240.714H277.77ZM289.986 252.93H278.323V241.27H289.986V252.93Z" fill="#3F3D56"/>
<path d="M35.5285 87.0339C51.9887 87.0339 65.3323 73.6903 65.3323 57.2301C65.3323 40.7699 51.9887 27.4263 35.5285 27.4263C19.0683 27.4263 5.7247 40.7699 5.7247 57.2301C5.7247 73.6903 19.0683 87.0339 35.5285 87.0339Z" fill="#00BAFC"/>
<path d="M45.9147 21.8132C43.2161 21.47 40.4849 21.47 37.7864 21.8132C31.7744 22.6026 26.115 25.1 21.4798 29.0093C16.8446 32.9185 13.4282 38.0754 11.6358 43.868C10.8207 46.5079 10.359 49.2441 10.263 52.0053C10.2495 52.3892 10.2404 52.7775 10.2404 53.1659C10.2488 61.5468 13.5819 69.5821 19.5081 75.5083C25.4343 81.4346 33.4696 84.7676 41.8506 84.776C42.5234 84.776 43.1962 84.7534 43.8601 84.7127C45.4183 84.615 46.967 84.4006 48.4932 84.0715C55.7814 82.5042 62.2813 78.4118 66.8449 72.5171C71.4084 66.6223 73.742 59.3045 73.4336 51.856C73.1251 44.4076 70.1943 37.3078 65.159 31.8106C60.1236 26.3134 53.3075 22.7724 45.9147 21.8132H45.9147ZM51.7445 82.2381H51.74C49.1942 83.1069 46.5444 83.6338 43.86 83.8051C43.1962 83.8503 42.5234 83.8728 41.8505 83.8728C33.7096 83.8629 25.9049 80.6245 20.1484 74.868C14.3919 69.1115 11.1535 61.3068 11.1436 53.1659C11.1436 52.7775 11.1526 52.3892 11.1661 52.0053C11.4766 44.0716 14.8439 36.5654 20.5633 31.0581C26.2827 25.5509 33.9107 22.4695 41.8505 22.4589C49.1254 22.4593 56.1639 25.0424 61.712 29.748C67.2601 34.4536 70.9574 40.976 72.1453 48.1533C73.3332 55.3305 71.9345 62.6964 68.1983 68.9386C64.4622 75.1808 58.6313 79.8939 51.7445 82.2381H51.7445Z" fill="#3F3D56"/>
<path d="M42.3021 24.2651H41.3989V30.5872H42.3021V24.2651Z" fill="#3F3D56"/>
<path d="M21.734 32.4107L21.0954 33.0493L25.5657 37.5197L26.2043 36.881L21.734 32.4107Z" fill="#3F3D56"/>
<path d="M12.9498 52.7143V53.6174H19.2718V52.7143H12.9498Z" fill="#3F3D56"/>
<path d="M21.0954 73.2824L21.734 73.921L26.2043 69.4507L25.5657 68.8121L21.0954 73.2824Z" fill="#3F3D56"/>
<path d="M57.4968 36.881L58.1354 37.5197L62.6057 33.0493L61.9671 32.4107L57.4968 36.881Z" fill="#3F3D56"/>
<path d="M64.4292 52.7143V53.6174H70.7512V52.7143H64.4292Z" fill="#3F3D56"/>
<path d="M58.1353 68.8121L57.4967 69.4507L61.967 73.921L62.6057 73.2824L58.1353 68.8121Z" fill="#3F3D56"/>
<path d="M42.3021 75.7445H41.3989V82.0665H42.3021V75.7445Z" fill="#3F3D56"/>
<path d="M43.2053 51.3595C42.8144 51.0664 42.3391 50.908 41.8505 50.908C41.362 50.908 40.8866 51.0664 40.4958 51.3595C40.2283 51.5628 40.008 51.8216 39.8501 52.1182C39.65 52.5001 39.5635 52.9313 39.6007 53.3608C39.6379 53.7903 39.7973 54.2002 40.06 54.542C40.3228 54.8838 40.6779 55.1433 41.0834 55.2897C41.4889 55.4362 41.9278 55.4635 42.3483 55.3684C42.7689 55.2733 43.1534 55.0598 43.4564 54.7532C43.7595 54.4465 43.9684 54.0595 44.0585 53.6379C44.1486 53.2163 44.1162 52.7777 43.965 52.374C43.8138 51.9702 43.5502 51.6182 43.2053 51.3595H43.2053ZM41.8505 54.5205C41.4916 54.5195 41.1476 54.3764 40.8938 54.1226C40.6399 53.8688 40.4969 53.5248 40.4958 53.1658C40.4976 52.8918 40.5809 52.6246 40.7352 52.3981C40.8675 52.2065 41.047 52.0523 41.2564 51.9503C41.4657 51.8484 41.6979 51.8022 41.9303 51.8162C42.1628 51.8302 42.3877 51.904 42.5833 52.0303C42.7789 52.1567 42.9386 52.3314 43.0469 52.5375C43.1552 52.7437 43.2086 52.9743 43.2017 53.2071C43.1948 53.4398 43.128 53.6669 43.0077 53.8663C42.8874 54.0657 42.7177 54.2307 42.515 54.3453C42.3123 54.4599 42.0834 54.5202 41.8505 54.5205V54.5205Z" fill="#3F3D56"/>
<path d="M45.9147 13.879H37.7864V22.0073H45.9147V13.879Z" fill="#3F3D56"/>
<path d="M41.8505 15.2337C47.836 15.2337 52.6882 13.5153 52.6882 11.3954C52.6882 9.2755 47.836 7.55701 41.8505 7.55701C35.865 7.55701 31.0128 9.2755 31.0128 11.3954C31.0128 13.5153 35.865 15.2337 41.8505 15.2337Z" fill="#3F3D56"/>
<path d="M43.2052 36.0061H40.4958V51.3596H43.2052V36.0061Z" fill="#3F3D56"/>
<path d="M84.8957 83.4001H0V84.3033H84.8957V83.4001Z" fill="#3F3D56"/>
<path d="M56.5697 225.887C56.9202 237.889 49.9076 242.288 41.1069 242.545C40.9025 242.551 40.699 242.554 40.4964 242.556C40.0883 242.559 39.6841 242.552 39.2839 242.535C31.3247 242.205 25.0244 237.98 24.6985 226.818C24.3611 215.267 38.6983 200.259 39.774 199.149L39.7759 199.148C39.8168 199.105 39.8377 199.084 39.8377 199.084C39.8377 199.084 56.2192 213.886 56.5697 225.887Z" fill="#D0CDE1"/>
<path d="M40.4734 240.726L46.0638 232.412L40.4848 241.62L40.4964 242.556C40.0883 242.559 39.6842 242.552 39.284 242.535L39.5612 230.51L39.5536 230.417L39.5639 230.399L39.5904 229.263L33.4682 220.374L39.5832 228.413L39.6049 228.653L39.8143 219.567L34.5264 210.352L39.8294 217.971L39.774 199.149L39.7741 199.086L39.7759 199.148L40.127 213.983L44.9463 207.957L40.1427 215.261L40.2479 223.387L44.6827 215.456L40.2642 224.582L40.3228 229.101L46.7721 218.053L40.3424 230.677L40.4734 240.726Z" fill="#3F3D56"/>
<path d="M299.987 225.887C300.338 237.889 293.325 242.288 284.525 242.545C284.32 242.551 284.117 242.554 283.914 242.556C283.506 242.559 283.102 242.552 282.702 242.535C274.742 242.205 268.442 237.98 268.116 226.818C267.779 215.267 282.116 200.259 283.192 199.149L283.194 199.148C283.234 199.105 283.255 199.084 283.255 199.084C283.255 199.084 299.637 213.886 299.987 225.887Z" fill="#D0CDE1"/>
<path d="M283.891 240.726L289.482 232.412L283.903 241.62L283.914 242.556C283.506 242.559 283.102 242.552 282.702 242.535L282.979 230.51L282.971 230.417L282.982 230.399L283.008 229.263L276.886 220.374L283.001 228.413L283.023 228.653L283.232 219.567L277.944 210.352L283.247 217.971L283.192 199.149L283.192 199.086L283.194 199.148L283.545 213.983L288.364 207.957L283.56 215.261L283.666 223.387L288.1 215.456L283.682 224.582L283.74 229.101L290.19 218.053L283.76 230.677L283.891 240.726Z" fill="#3F3D56"/>
</g>
<defs>
<clipPath id="clip0">
<rect width="300" height="258.903" fill="white" transform="translate(0 0.593018)"/>
</clipPath>
</defs>
</svg>
