<svg width="180" height="130" viewBox="0 0 180 130" fill="none" xmlns="http://www.w3.org/2000/svg">
<g clip-path="url(#clip0)">
<path opacity="0.1" d="M57.6649 4.90378C62.496 0.605114 70.0765 -0.276113 76.9759 0.0661273C98.6494 1.14245 118.213 11.6064 135.135 23.4426C141.262 27.7264 147.294 32.3442 151.27 38.2449C159.371 50.2547 156.964 66.8956 145.708 76.7891C141.878 80.157 137.235 82.7411 132.468 85.0244C123.993 89.0932 114.849 92.3586 105.231 93.291C98.3717 93.9524 91.4277 93.415 84.6093 92.4908C65.558 89.9034 46.8571 84.1894 31.1835 74.4232C24.3089 70.1344 17.8279 64.8057 14.994 57.8683C12.1602 50.931 13.9739 42.1435 20.994 38.0383C23.8973 36.3403 27.3693 35.5731 30.7669 34.8539C35.7698 33.7942 40.8522 32.7492 45.3674 30.5949C50.0298 28.3696 55.5503 24.0643 54.6261 19.139C53.6374 13.845 52.8422 9.20245 57.6649 4.90378Z" fill="#00BAFC"/>
<path opacity="0.1" d="M141.152 118.215C151.147 118.215 159.249 117.695 159.249 117.054C159.249 116.413 151.147 115.894 141.152 115.894C131.157 115.894 123.054 116.413 123.054 117.054C123.054 117.695 131.157 118.215 141.152 118.215Z" fill="#00BAFC"/>
<path opacity="0.1" d="M94.1127 110.448C104.108 110.448 112.21 109.928 112.21 109.287C112.21 108.646 104.108 108.126 94.1127 108.126C84.1178 108.126 76.0153 108.646 76.0153 109.287C76.0153 109.928 84.1178 110.448 94.1127 110.448Z" fill="#00BAFC"/>
<path opacity="0.1" d="M27.6718 128.859C37.6667 128.859 45.7692 128.34 45.7692 127.699C45.7692 127.058 37.6667 126.538 27.6718 126.538C17.6769 126.538 9.5744 127.058 9.5744 127.699C9.5744 128.34 17.6769 128.859 27.6718 128.859Z" fill="#00BAFC"/>
<path opacity="0.1" d="M62.0611 130C66.1738 130 69.5077 129.786 69.5077 129.522C69.5077 129.258 66.1738 129.044 62.0611 129.044C57.9485 129.044 54.6145 129.258 54.6145 129.522C54.6145 129.786 57.9485 130 62.0611 130Z" fill="#00BAFC"/>
<path opacity="0.1" d="M173.65 117.592C176.855 117.592 179.453 117.425 179.453 117.22C179.453 117.014 176.855 116.848 173.65 116.848C170.445 116.848 167.846 117.014 167.846 117.22C167.846 117.425 170.445 117.592 173.65 117.592Z" fill="#00BAFC"/>
<path opacity="0.1" d="M120.387 109.783C123.105 109.783 125.308 109.642 125.308 109.467C125.308 109.293 123.105 109.151 120.387 109.151C117.67 109.151 115.467 109.293 115.467 109.467C115.467 109.642 117.67 109.783 120.387 109.783Z" fill="#00BAFC"/>
<path d="M174.485 108.292C174.485 108.292 175.262 109.309 174.127 110.843C172.993 112.377 172.054 113.672 172.433 114.627C172.433 114.627 174.147 111.779 175.541 111.739C176.935 111.699 176.021 110.006 174.485 108.292Z" fill="#00BAFC"/>
<path opacity="0.1" d="M174.485 108.292C174.554 108.39 174.61 108.497 174.65 108.611C176.011 110.21 176.735 111.701 175.427 111.739C174.208 111.774 172.747 113.953 172.396 114.503C172.408 114.545 172.421 114.587 172.438 114.627C172.438 114.627 174.152 111.779 175.546 111.739C176.94 111.699 176.02 110.006 174.485 108.292Z" fill="black"/>
<path d="M175.931 109.586C175.931 109.945 175.892 110.234 175.842 110.234C175.792 110.234 175.753 109.945 175.753 109.586C175.753 109.228 175.802 109.398 175.852 109.398C175.901 109.398 175.931 109.229 175.931 109.586Z" fill="#FFD037"/>
<path d="M176.427 110.015C176.113 110.18 175.84 110.289 175.816 110.246C175.791 110.203 176.027 110.028 176.341 109.856C176.655 109.684 176.531 109.809 176.555 109.856C176.578 109.902 176.741 109.843 176.427 110.015Z" fill="#FFD037"/>
<path d="M170.383 108.292C170.383 108.292 169.606 109.309 170.741 110.843C171.877 112.377 172.813 113.672 172.434 114.627C172.434 114.627 170.722 111.779 169.326 111.739C167.931 111.699 168.848 110.006 170.383 108.292Z" fill="#00BAFC"/>
<path opacity="0.1" d="M170.383 108.292C170.312 108.39 170.257 108.497 170.217 108.611C168.857 110.21 168.131 111.701 169.439 111.739C170.657 111.774 172.12 113.953 172.469 114.503C172.458 114.545 172.444 114.587 172.428 114.627C172.428 114.627 170.715 111.779 169.32 111.739C167.924 111.699 168.848 110.006 170.383 108.292Z" fill="black"/>
<path d="M168.938 109.586C168.938 109.945 168.977 110.234 169.027 110.234C169.076 110.234 169.118 109.945 169.118 109.586C169.118 109.228 169.067 109.398 169.017 109.398C168.967 109.398 168.938 109.229 168.938 109.586Z" fill="#FFD037"/>
<path d="M168.442 110.015C168.756 110.18 169.03 110.289 169.053 110.246C169.077 110.203 168.842 110.028 168.528 109.856C168.213 109.684 168.337 109.809 168.314 109.856C168.291 109.902 168.127 109.843 168.442 110.015Z" fill="#FFD037"/>
<path d="M169.194 114.495C169.194 114.495 171.366 114.429 172.021 113.963C172.676 113.496 175.362 112.939 175.526 113.687C175.69 114.434 178.79 117.405 176.338 117.425C173.886 117.445 170.639 117.043 169.984 116.646C169.329 116.249 169.194 114.495 169.194 114.495Z" fill="#A8A8A8"/>
<path opacity="0.2" d="M176.373 117.165C173.921 117.185 170.674 116.783 170.021 116.385C169.525 116.082 169.324 114.994 169.258 114.492H169.186C169.186 114.492 169.323 116.244 169.976 116.641C170.629 117.038 173.876 117.44 176.33 117.42C177.037 117.42 177.282 117.163 177.269 116.79C177.169 117.02 176.9 117.16 176.373 117.165Z" fill="black"/>
<path d="M121.26 101.834C121.26 101.834 121.922 102.702 120.953 104.015C119.984 105.327 119.181 106.435 119.505 107.253C119.505 107.253 120.969 104.816 122.163 104.773C123.357 104.73 122.57 103.299 121.26 101.834Z" fill="#00BAFC"/>
<path opacity="0.1" d="M121.26 101.834C121.318 101.918 121.364 102.01 121.396 102.107C122.553 103.474 123.18 104.752 122.057 104.782C121.016 104.811 119.764 106.676 119.465 107.148C119.475 107.184 119.487 107.219 119.501 107.253C119.501 107.253 120.966 104.816 122.16 104.773C123.354 104.73 122.57 103.299 121.26 101.834Z" fill="black"/>
<path d="M122.495 102.942C122.495 103.247 122.461 103.495 122.419 103.495C122.378 103.495 122.342 103.247 122.342 102.942C122.342 102.636 122.385 102.776 122.428 102.776C122.471 102.776 122.495 102.636 122.495 102.942Z" fill="#FFD037"/>
<path d="M122.92 103.307C122.651 103.452 122.424 103.542 122.396 103.504C122.368 103.466 122.578 103.319 122.846 103.173C123.114 103.028 123.011 103.133 123.03 103.173C123.048 103.213 123.188 103.16 122.92 103.307Z" fill="#FFD037"/>
<path d="M117.749 101.834C117.749 101.834 117.087 102.702 118.055 104.015C119.022 105.327 119.829 106.435 119.505 107.253C119.505 107.253 118.038 104.816 116.844 104.773C115.651 104.73 116.436 103.299 117.749 101.834Z" fill="#00BAFC"/>
<path opacity="0.1" d="M117.749 101.834C117.69 101.918 117.644 102.01 117.611 102.107C116.454 103.474 115.828 104.752 116.95 104.782C117.993 104.811 119.243 106.676 119.543 107.148C119.533 107.182 119.521 107.219 119.508 107.253C119.508 107.253 118.041 104.816 116.848 104.773C115.654 104.73 116.436 103.299 117.749 101.834Z" fill="black"/>
<path d="M116.512 102.942C116.512 103.247 116.547 103.495 116.59 103.495C116.633 103.495 116.666 103.247 116.666 102.942C116.666 102.636 116.623 102.776 116.58 102.776C116.537 102.776 116.512 102.636 116.512 102.942Z" fill="#FFD037"/>
<path d="M116.089 103.307C116.357 103.452 116.585 103.542 116.611 103.504C116.638 103.466 116.431 103.319 116.161 103.173C115.892 103.028 115.996 103.133 115.978 103.173C115.96 103.213 115.819 103.16 116.089 103.307Z" fill="#FFD037"/>
<path d="M116.724 107.141C116.724 107.141 118.582 107.083 119.143 106.685C119.703 106.286 122.003 105.808 122.142 106.448C122.281 107.088 124.934 109.631 122.836 109.647C120.738 109.664 117.96 109.317 117.402 108.986C116.843 108.655 116.724 107.141 116.724 107.141Z" fill="#A8A8A8"/>
<path opacity="0.2" d="M122.874 109.424C120.774 109.442 117.997 109.094 117.438 108.763C117.013 108.503 116.843 107.573 116.787 107.143H116.724C116.724 107.143 116.841 108.641 117.402 108.981C117.962 109.322 120.738 109.666 122.836 109.643C123.441 109.643 123.651 109.423 123.64 109.104C123.562 109.309 123.324 109.421 122.874 109.424Z" fill="black"/>
<g opacity="0.8">
<path opacity="0.8" d="M24.9785 102.799C27.4234 102.8 29.8132 103.526 31.8457 104.885C33.8781 106.244 35.462 108.175 36.3971 110.434C37.3323 112.693 37.5766 115.179 37.0992 117.577C36.6219 119.975 35.4443 122.177 33.7154 123.906C31.9864 125.635 29.7837 126.812 27.3858 127.289C24.9878 127.766 22.5022 127.521 20.2433 126.586C17.9844 125.651 16.0535 124.066 14.6948 122.034C13.3361 120.001 12.6106 117.611 12.6099 115.166C12.6088 113.542 12.928 111.933 13.5492 110.432C14.1704 108.931 15.0815 107.567 16.2303 106.419C17.379 105.27 18.743 104.359 20.2441 103.738C21.7452 103.117 23.354 102.798 24.9785 102.799Z" fill="#E74D89"/>
<path opacity="0.8" d="M24.9785 128.406C22.3597 128.403 19.8006 127.624 17.6246 126.167C15.4485 124.71 13.7532 122.641 12.7529 120.221C11.7526 117.801 11.4921 115.138 12.0044 112.57C12.5168 110.002 13.7789 107.643 15.6313 105.792C17.4837 103.941 19.8433 102.681 22.4118 102.171C24.9803 101.66 27.6425 101.923 30.0619 102.925C32.4813 103.927 34.5494 105.624 36.0047 107.801C37.46 109.978 38.2372 112.538 38.2382 115.156C38.2351 118.671 36.8368 122.041 34.3505 124.526C31.8642 127.01 28.4933 128.406 24.9785 128.406ZM36.1566 116.97C33.8675 116.303 31.4619 116.133 29.1019 116.474C30.0685 119.095 30.8059 121.794 31.3058 124.542C32.5915 123.682 33.6859 122.565 34.5205 121.262C35.3552 119.959 35.9122 118.498 36.1566 116.97ZM29.4028 125.587C28.8705 122.659 28.0623 119.788 26.9889 117.011C26.9661 117.022 26.9414 117.029 26.9162 117.031C20.5244 119.258 18.2345 123.683 18.0278 124.096C20.0122 125.642 22.4563 126.481 24.9718 126.478C26.4922 126.489 27.9984 126.186 29.3962 125.587H29.4028ZM16.5679 122.739C16.8259 122.304 19.9341 117.167 25.777 115.27C25.9209 115.219 26.0763 115.178 26.2218 115.137C25.9424 114.493 25.6315 113.852 25.2992 113.22C19.6448 114.908 14.1541 114.836 13.6564 114.826C13.6564 114.94 13.6465 115.054 13.6465 115.166C13.6498 117.965 14.6907 120.663 16.5679 122.739ZM13.8945 112.857C17.4277 112.841 20.9448 112.378 24.3618 111.479C23.0809 109.227 21.6802 107.045 20.1656 104.942C18.5805 105.688 17.1895 106.791 16.1016 108.164C15.0136 109.537 14.2582 111.143 13.8945 112.857ZM22.3265 104.177C23.8797 106.286 25.292 108.495 26.5541 110.79C30.5833 109.279 32.2812 106.999 32.4896 106.71C30.4197 104.871 27.7467 103.857 24.9785 103.861C24.0851 103.867 23.1954 103.975 22.3265 104.183V104.177ZM33.7428 108.019C33.5047 108.341 31.6083 110.775 27.4237 112.483C27.6817 113.022 27.9412 113.571 28.1793 114.12C28.262 114.317 28.3446 114.513 28.429 114.7C32.1986 114.222 35.9384 114.989 36.3121 115.062C36.2842 112.49 35.3776 110.004 33.7428 108.017V108.019Z" fill="#B2215A"/>
</g>
<path d="M55.6396 77.4256C55.3403 77.0503 54.9997 74.4695 54.9997 74.4695L53.6771 67.8925L52.9926 64.1031C52.9926 64.1031 52.8273 59.3167 49.8314 56.9425L49.5983 56.7589C49.5983 56.716 49.5983 56.6746 49.5983 56.6316C49.571 56.1694 49.47 55.7145 49.299 55.2842C49.2267 55.1448 49.1898 54.9898 49.1916 54.8328C49.1993 54.771 49.2196 54.7113 49.2511 54.6576C49.3915 54.4652 49.5764 54.3097 49.7901 54.2045C50.334 53.8739 50.797 53.3531 50.9226 52.7364C50.9218 52.7226 50.9218 52.7088 50.9226 52.6951C50.9226 52.6686 50.9226 52.6405 50.9342 52.6124C50.9458 52.5843 50.9342 52.5826 50.9342 52.5661C50.9358 52.5375 50.9358 52.5088 50.9342 52.4801V52.4437C50.9342 52.4107 50.9342 52.376 50.9342 52.3412C50.9334 52.3341 50.9334 52.3269 50.9342 52.3197C50.9342 52.2817 50.9259 52.242 50.9193 52.204V52.1957C50.8894 51.972 50.8034 51.7595 50.6693 51.5779C50.5352 51.3964 50.3573 51.2517 50.1522 51.1575C50.2267 51.1397 50.296 51.1049 50.3548 51.0559C50.4136 51.0068 50.4603 50.9448 50.4911 50.8747C50.5115 50.8341 50.5276 50.7914 50.539 50.7474C50.5503 50.7064 50.5575 50.6643 50.5605 50.6218C50.5605 50.6218 50.5605 50.6086 50.5605 50.6019C50.563 50.5656 50.563 50.5291 50.5605 50.4928C50.5605 50.4812 50.5605 50.4697 50.5605 50.4581C50.5555 50.4217 50.5478 50.3858 50.5374 50.3506C50.5382 50.3413 50.5382 50.3319 50.5374 50.3225L50.5275 50.2994C50.4167 49.9819 50.1538 49.7372 49.9273 49.4826C48.6212 48.0194 48.3682 45.961 48.0128 44.0531C47.816 42.9949 47.444 41.7897 46.4189 41.3879C46.1292 41.2961 45.8344 41.221 45.5361 41.1631C44.6267 40.9217 43.8827 40.2868 42.9932 39.976C42.3925 39.7697 41.75 39.7158 41.1233 39.8189C40.6455 39.8983 40.2454 40.133 39.7841 40.2438C38.7921 40.4868 37.5885 40.2157 36.8081 41.0176C36.2609 41.5747 36.2179 42.4245 35.9484 43.1504C35.4391 44.4978 34.1165 45.4783 33.7742 46.8786C33.5543 47.7813 33.7825 48.6973 34.0222 49.605C34.2028 50.2147 34.3246 50.8403 34.386 51.4732C34.3951 51.6329 34.3951 51.793 34.386 51.9527C34.3506 52.4188 34.2453 52.877 34.0735 53.3117C32.9558 53.7251 31.8002 54.2128 31.7142 54.4873C31.5489 55.0279 28.8506 56.5688 28.8506 56.5688C28.8506 56.5688 27.8256 57.4434 27.8256 57.7757C27.8256 58.1081 27.485 59.1497 27.27 59.1497C27.0551 59.1497 26.6302 63.3541 26.6302 63.3541V67.7255C26.6302 67.7255 25.0513 72.8872 24.6875 77.4669C24.6875 77.4669 24.0493 80.3917 25.0909 82.0698C25.2272 82.2975 25.401 82.5004 25.6051 82.67L26.1375 84.0604C26.3248 83.7477 26.5628 83.4683 26.8418 83.2338C26.8683 83.4074 26.898 83.6107 26.9344 83.8372C26.979 84.1216 27.032 84.444 27.0997 84.7896C26.7691 85.3071 25.9705 86.39 25.0116 86.7951C24.1254 87.1687 25.2794 88.1574 26.0763 88.7344C25.8647 89.7876 25.5588 91.0805 25.3108 91.2491C24.8826 91.5401 23.517 95.2039 23.517 95.2039C23.517 95.2039 20.827 101.487 24.6925 102.198C28.558 102.908 30.5288 101.24 30.5288 101.24H31.4546C31.4546 101.24 32.5805 100.605 32.612 99.2926C33.2419 98.7735 34.2091 97.9501 34.4058 97.6178C34.6026 97.2855 34.0603 96.2042 33.7164 95.6139L33.8073 95.4486C33.8073 95.4486 37.4827 90.7449 37.9522 91.2442C38.4218 91.7435 38.721 92.5338 38.5077 93.0347L38.7094 95.9165V100.412C38.7094 100.412 38.182 102.452 38.7094 102.66C39.2369 102.869 38.7094 103.652 38.7094 103.652C38.7094 103.652 38.9062 104.568 38.9426 104.859C38.9615 105.234 38.9615 105.609 38.9426 105.984L38.7657 110.481L38.4234 117.14C38.4234 117.14 38.0398 117.683 38.3391 118.056C38.6384 118.43 38.5044 119.306 38.4234 119.472C38.3424 119.637 38.2961 121.012 38.2961 121.012C38.2961 121.012 37.0561 122.302 38.0398 122.636L38.0779 122.648C37.6712 123.025 37.6662 123.873 37.6976 124.136C37.729 124.398 37.4364 125.458 37.2165 126.058C37.1725 126.211 37.1044 126.356 37.0148 126.487C36.8643 126.592 37.0148 127.758 37.0148 127.758C37.0148 127.758 41.8194 128.153 42.2261 127.758C42.3914 127.604 42.3501 127.231 42.2344 126.799C42.0498 126.173 41.8039 125.567 41.5003 124.989C41.2209 124.47 41.3515 123.803 41.3515 123.803V123.307C41.6739 123.359 41.8838 123.388 41.8838 123.388C41.8838 123.388 42.4824 122.892 42.2261 122.431C41.9698 121.97 42.6956 119.394 42.6956 119.394C42.6956 119.394 43.5074 116.479 43.5074 116.188C43.5074 115.897 44.5755 112.109 44.5755 112.109C44.5755 112.109 46.1561 105.407 45.3873 102.242C45.3873 102.242 46.0701 101.452 45.9841 101.25C45.8981 101.048 45.6997 100.167 45.9924 99.7936C46.285 99.4199 47.5234 94.7559 47.8656 93.9656C48.0227 93.6002 48.4162 92.5916 48.7931 91.6079C50.4944 91.3533 52.5214 90.8838 52.5214 90.8838C52.5214 90.8838 52.2188 89.5958 51.994 88.2798L52.1792 87.3754L52.2453 87.0629C52.398 87.2129 52.5339 87.3792 52.6504 87.5589L52.9909 85.894C52.9909 85.894 53.029 85.8361 53.0934 85.7287C53.4919 85.1054 54.9435 82.8651 55.6396 82.1856C56.4514 81.3804 55.9405 77.7993 55.6396 77.4256Z" fill="url(#paint0_linear)"/>
<path d="M45.2748 49.572H40.5628V54.8626H45.2748V49.572Z" fill="#925978"/>
<path opacity="0.1" d="M45.2748 49.572H40.5628V54.8626H45.2748V49.572Z" fill="black"/>
<path d="M33.6585 95.1626C33.6585 95.1626 34.8572 97.0639 34.5678 97.5599C34.2785 98.0559 32.2978 99.6679 32.2978 99.6679L31.7125 95.6999L33.6585 95.1626Z" fill="#FF6484"/>
<path d="M29.9385 101.28L30.8131 101.156H31.7092C31.7092 101.156 32.8996 100.471 32.8318 99.048C32.764 97.6245 32.8318 96.2373 32.8318 96.2373L29.9385 101.28Z" fill="#575988"/>
<path opacity="0.1" d="M29.9385 101.28L30.8131 101.156H31.7092C31.7092 101.156 32.8996 100.471 32.8318 99.048C32.764 97.6245 32.8318 96.2373 32.8318 96.2373L29.9385 101.28Z" fill="black"/>
<path d="M31.7092 81.8946L26.7492 87.3506C26.7492 87.3506 26.1705 90.9466 25.7572 91.2359C25.3439 91.5253 24.0311 95.1626 24.0311 95.1626C24.0311 95.1626 21.4304 101.404 25.1686 102.107C28.9068 102.809 30.8098 101.156 30.8098 101.156L33.9842 95.4106C33.9842 95.4106 37.5405 90.7399 37.9952 91.2359C38.4499 91.7319 38.7392 92.5173 38.5325 93.0133L38.726 95.8653V100.329C38.726 100.329 38.2167 102.355 38.726 102.561C39.2352 102.768 38.726 103.553 38.726 103.553C38.726 103.553 38.9177 104.463 38.9525 104.752C38.9872 105.041 38.9525 105.868 38.9525 105.868L38.7871 110.332L38.4565 116.945C38.4565 116.945 38.0845 117.483 38.3738 117.855C38.6631 118.227 38.5391 119.095 38.4565 119.26C38.3738 119.425 38.3325 120.789 38.3325 120.789C38.3325 120.789 37.1338 122.071 38.0845 122.401C39.0351 122.732 41.8045 123.145 41.8045 123.145C41.8045 123.145 42.3831 122.649 42.1351 122.195C41.8871 121.74 42.5898 119.177 42.5898 119.177C42.5898 119.177 43.3751 116.284 43.3751 115.995C43.3751 115.705 44.4085 111.944 44.4085 111.944C44.4085 111.944 45.9378 105.289 45.1938 102.148C45.1938 102.148 45.8551 101.363 45.7725 101.156C45.6898 100.949 45.4964 100.081 45.7725 99.7093C46.0486 99.3373 47.2605 94.7079 47.5911 93.9226C47.9218 93.1373 49.3271 89.3346 49.3271 89.3346V82.3079L31.7092 81.8946Z" fill="#575988"/>
<path d="M46.5165 56.9706L43.6628 62.3621L42.9106 63.7807L42.7965 63.9973L35.4391 64.2866C35.4391 64.2866 35.2292 63.822 34.9316 63.1012C34.4174 61.8529 33.6403 59.8325 33.2485 58.1279C33.1515 57.72 33.0797 57.3064 33.0335 56.8896C32.9244 55.8579 33.0898 55.1222 33.7511 55.0593C33.9182 55.0442 34.0866 55.0616 34.2471 55.1106C34.7069 55.2464 35.1884 55.293 35.6657 55.2478C37.4116 55.0362 37.9225 53.1927 38.0084 51.46C38.0084 51.3377 38.02 51.2153 38.0217 51.0947C38.0217 50.7193 38.0217 50.3556 37.9969 50.0216C37.9637 49.4552 37.8986 48.891 37.8018 48.3319C38.2387 48.118 38.6963 47.949 39.1674 47.8277C40.5628 47.4705 42.5286 47.4805 42.5551 50.3573C42.5522 50.9948 42.6153 51.6308 42.7436 52.2553C42.818 52.6112 42.9375 52.9562 43.099 53.282C43.5835 54.2128 44.2564 54.3137 44.5722 54.3021C44.6305 54.3022 44.6887 54.2961 44.7458 54.2839L46.5165 56.9706Z" fill="#FFC5CB"/>
<path opacity="0.1" d="M39.1724 60.0921C39.2742 60.385 39.3262 60.693 39.3261 61.0031C39.3574 61.3297 39.3496 61.6588 39.303 61.9835C39.2559 62.312 39.0929 62.6129 38.8434 62.8317" fill="black"/>
<path opacity="0.1" d="M41.254 52.6752C43.6965 52.6752 45.6766 50.6951 45.6766 48.2526C45.6766 45.81 43.6965 43.8299 41.254 43.8299C38.8114 43.8299 36.8313 45.81 36.8313 48.2526C36.8313 50.6951 38.8114 52.6752 41.254 52.6752Z" fill="black"/>
<path d="M45.675 48.0872C45.6754 48.976 45.4078 49.8443 44.9073 50.5788C44.4067 51.3132 43.6964 51.8798 42.8691 52.2045C42.0417 52.5292 41.1357 52.5969 40.2692 52.399C39.4027 52.201 38.616 51.7464 38.0118 51.0946C37.9732 51.0553 37.9368 51.0139 37.9027 50.9706C37.4372 50.4302 37.1093 49.7852 36.9471 49.0907C36.7849 48.3962 36.7932 47.6727 36.9712 46.9821C37.1491 46.2914 37.4916 45.654 37.9692 45.1244C38.4469 44.5948 39.0456 44.1885 39.7143 43.9404C40.383 43.6923 41.1018 43.6096 41.8093 43.6995C42.5168 43.7894 43.1921 44.0491 43.7776 44.4564C44.363 44.8638 44.8412 45.4068 45.1713 46.039C45.5014 46.6713 45.6736 47.374 45.6733 48.0872H45.675Z" fill="#FFC5CB"/>
<path opacity="0.1" d="M34.1545 59.1199C34.1545 59.1199 35.7252 63.2119 39.0319 62.5506C39.0319 62.5506 42.37 62.8118 44.2812 60.3599C46.1925 57.908 46.3066 74.4133 46.3066 74.4133L45.5626 85.3666C45.5626 85.3666 40.2339 88.5492 37.9192 88.1359C35.6045 87.7226 34.4885 86.4826 34.4885 86.4826C34.4885 86.4826 32.0499 84.2092 31.3885 83.9199C30.7272 83.6306 31.6779 69.5359 31.6779 69.5359L32.4632 64.2453L34.1545 59.1199Z" fill="black"/>
<path d="M34.1545 58.7892C34.1545 58.7892 35.7252 62.8812 39.0319 62.2199C39.0319 62.2199 42.37 62.4811 44.2812 60.0292C46.1925 57.5774 46.3066 74.0826 46.3066 74.0826L45.5626 85.0359C45.5626 85.0359 40.2339 88.2186 37.9192 87.8053C35.6045 87.3919 34.4885 86.1519 34.4885 86.1519C34.4885 86.1519 32.0499 83.8786 31.3885 83.5893C30.7272 83.2999 31.6779 69.2053 31.6779 69.2053L32.4632 63.9146L34.1545 58.7892Z" fill="#E8F4FF"/>
<path opacity="0.1" d="M33.9892 81.8946C33.9892 81.8946 37.5439 85.8626 37.3372 86.2759C37.1306 86.6893 33.9066 83.0933 33.9892 81.8946Z" fill="black"/>
<path opacity="0.1" d="M33.3775 72.0275C33.3775 72.0275 34.5133 73.6148 35.2242 73.4494L33.3775 72.0275Z" fill="black"/>
<path opacity="0.1" d="M35.8327 55.1106C35.8327 55.1106 35.8327 55.1585 35.8211 55.2478C35.7831 55.7554 35.6409 57.5955 35.4491 59.6457C35.3416 60.803 35.2193 62.0166 35.0936 63.1011C34.8886 64.8653 34.6704 66.2772 34.4852 66.4773C33.9479 67.0559 34.1545 72.5119 34.1545 72.5119V79.4146C34.1545 79.4146 33.7015 81.6052 33.3279 82.1012C32.9542 82.5972 32.0416 84.4572 31.3108 84.7052C31.0537 84.8461 30.8227 85.0301 30.628 85.2492C29.9666 85.9105 29.0308 87.0133 28.3133 87.8829C27.7214 88.6088 27.2833 89.1692 27.2833 89.1692C27.2833 89.1692 24.3899 87.3506 25.6299 86.8132C26.5575 86.4115 27.3246 85.3368 27.6503 84.8292C27.7611 84.6639 27.8156 84.5465 27.8156 84.5465C27.8742 84.1612 27.9621 83.781 28.0785 83.409C28.1835 83.0584 28.3377 82.7244 28.5365 82.417C28.6878 82.1613 28.9337 81.9754 29.221 81.8995C30.2956 81.6929 30.833 71.4835 30.833 71.4835L27.5263 64.2684L27.1956 63.5475C27.1956 63.5475 27.609 59.3729 27.8156 59.3729C28.0223 59.3729 28.353 58.3395 28.353 58.0089C28.353 57.6782 29.345 56.8102 29.345 56.8102C29.345 56.8102 31.9672 55.2759 32.1325 54.7386C32.2201 54.4559 33.4221 53.945 34.5414 53.525C35.5466 53.1481 36.4841 52.8439 36.4841 52.8439C37.0313 53.6772 35.8327 55.1106 35.8327 55.1106Z" fill="black"/>
<path d="M35.6673 55.1106C35.6673 55.1106 35.6673 55.1585 35.6558 55.2478C35.6177 55.7554 35.4756 57.5955 35.2838 59.6457C35.1763 60.803 35.054 62.0166 34.9283 63.1011C34.7233 64.8653 34.505 66.2772 34.3199 66.4773C33.7825 67.0559 33.9892 72.5119 33.9892 72.5119V79.4146C33.9892 79.4146 33.5362 81.6052 33.1625 82.1012C32.7889 82.5972 31.8762 84.4572 31.1455 84.7052C30.8884 84.8461 30.6574 85.0301 30.4626 85.2492C29.8013 85.9105 28.8655 87.0133 28.148 87.8829C27.5561 88.6088 27.1179 89.1692 27.1179 89.1692C27.1179 89.1692 24.2246 87.3506 25.4646 86.8132C26.3921 86.4115 27.1593 85.3368 27.485 84.8292C27.5958 84.6639 27.6503 84.5465 27.6503 84.5465C27.7089 84.1612 27.7967 83.781 27.9132 83.409C28.0182 83.0584 28.1724 82.7244 28.3712 82.417C28.5225 82.1613 28.7684 81.9754 29.0556 81.8995C30.1303 81.6929 30.6677 71.4835 30.6677 71.4835L27.361 64.2684L27.0303 63.5475C27.0303 63.5475 27.4436 59.3729 27.6503 59.3729C27.857 59.3729 28.1876 58.3395 28.1876 58.0089C28.1876 57.6782 29.1796 56.8102 29.1796 56.8102C29.1796 56.8102 31.8018 55.2759 31.9672 54.7386C32.0548 54.4559 33.2568 53.945 34.3761 53.525C35.3813 53.1481 36.3188 52.8439 36.3188 52.8439C36.866 53.6772 35.6673 55.1106 35.6673 55.1106Z" fill="#FF6484"/>
<path opacity="0.1" d="M52.1081 64.6074L48.5386 68.7919C48.5386 68.7919 51.6386 84.8706 51.2666 85.6146C51.2382 85.6764 51.2198 85.7422 51.212 85.8097C51.1738 86.195 51.181 86.5834 51.2335 86.967C51.2765 87.3721 51.3426 87.8218 51.417 88.2699C51.6353 89.576 51.9279 90.8557 51.9279 90.8557C51.9279 90.8557 47.7532 91.8477 46.4719 91.7237C45.1906 91.5997 45.9346 89.533 46.1412 88.5824C46.3479 87.6317 44.7359 86.3008 44.7359 86.3008L42.4626 76.9677C42.4626 76.9677 42.2972 74.901 41.8012 73.909C41.3052 72.917 41.7599 71.8423 41.5946 70.437C41.4772 69.4351 42.198 65.854 42.742 63.7724C42.9486 62.9805 43.1305 62.4068 43.238 62.2729C43.2426 62.2656 43.2482 62.2589 43.2545 62.253C43.5852 61.9637 43.2545 60.269 43.2545 60.269C43.2545 60.269 44.0398 55.805 43.9572 55.433C43.9109 55.2214 44.1705 54.7022 44.4036 54.2939C44.5805 53.9847 44.7425 53.7383 44.7425 53.7383C44.7425 53.7383 46.3413 54.7518 49.0825 56.9673L49.3305 57.169C52.2239 59.525 52.3892 64.2783 52.3892 64.2783L52.1081 64.6074Z" fill="black"/>
<path d="M52.2734 64.6074L48.7039 68.7919C48.7039 68.7919 51.8039 84.8706 51.4319 85.6146C51.4035 85.6764 51.3851 85.7422 51.3773 85.8097C51.3391 86.195 51.3463 86.5834 51.3988 86.967C51.4418 87.3721 51.5079 87.8218 51.5823 88.2699C51.8006 89.576 52.0932 90.8557 52.0932 90.8557C52.0932 90.8557 47.9185 91.8477 46.6372 91.7237C45.3559 91.5997 46.0999 89.533 46.3065 88.5824C46.5132 87.6317 44.9012 86.3008 44.9012 86.3008L42.6279 76.9677C42.6279 76.9677 42.4625 74.901 41.9665 73.909C41.4705 72.917 41.9252 71.8423 41.7599 70.437C41.6425 69.4351 42.3633 65.854 42.9073 63.7724C43.114 62.9805 43.2958 62.4068 43.4033 62.2729C43.408 62.2656 43.4135 62.2589 43.4198 62.253C43.7505 61.9637 43.4198 60.269 43.4198 60.269C43.4198 60.269 44.2052 55.805 44.1225 55.433C44.0762 55.2214 44.3358 54.7022 44.5689 54.2939C44.7458 53.9847 44.9078 53.7383 44.9078 53.7383C44.9078 53.7383 46.5066 54.7518 49.2478 56.9673L49.4958 57.169C52.3892 59.525 52.5545 64.2783 52.5545 64.2783L52.2734 64.6074Z" fill="#FF6484"/>
<path opacity="0.1" d="M44.7359 66.8492C44.6945 67.1799 45.7279 84.7466 46.8025 85.7799L44.7359 66.8492Z" fill="black"/>
<path d="M30.7999 91.2773C29.6425 92.0047 28.7597 90.0902 28.1545 87.883C27.8718 86.8463 27.6585 85.7452 27.4932 84.8226C27.432 84.4787 27.3808 84.1613 27.3378 83.8769C27.2237 83.1395 27.1725 82.6568 27.1725 82.6568L28.3893 82.4121L29.7351 82.1426L29.9005 83.662L29.9782 84.3514C29.9782 84.3514 30.1898 84.7019 30.4742 85.2492C31.2727 86.8496 32.6285 90.1381 30.7999 91.2773Z" fill="#FFC5CB"/>
<path d="M52.0519 85.9535L51.7626 87.3804L51.5824 88.2781L51.5724 88.3228C51.5724 88.3228 47.9599 93.22 46.8025 91.1946C45.918 89.6471 48.0756 87.1092 49.1404 85.9998C49.471 85.6559 49.6959 85.4493 49.6959 85.4493L51.3773 85.8097L52.0519 85.9535Z" fill="#FFC5CB"/>
<path d="M42.1318 127.485C41.7383 127.877 37.0892 127.485 37.0892 127.485C37.0892 127.485 36.9437 126.328 37.0892 126.224C37.1769 126.093 37.2428 125.949 37.2843 125.797C37.4975 125.194 37.7803 124.144 37.7505 123.889C37.7092 123.539 37.7307 122.133 38.6797 122.236C38.6797 122.236 39.9197 119.715 41.2853 122.815V123.559C41.2171 123.957 41.2672 124.366 41.4292 124.736C41.7235 125.311 41.9616 125.912 42.1401 126.533C42.2525 126.961 42.2856 127.33 42.1318 127.485Z" fill="#FF6484"/>
<path d="M42.1318 127.485C41.7383 127.877 37.0892 127.485 37.0892 127.485C37.0892 127.485 36.9437 126.328 37.0892 126.224C37.1769 126.093 37.2428 125.949 37.2843 125.797C37.8993 125.534 38.7359 125.28 39.3212 125.501C40.0602 125.782 41.4242 126.275 42.1318 126.533C42.2525 126.961 42.2856 127.33 42.1318 127.485Z" fill="#E8F4FF"/>
<path opacity="0.1" d="M37.9985 51.46C38.1158 51.9329 38.2779 52.4107 38.2845 52.8935C38.2944 53.5548 38.0084 54.193 37.7042 54.7882C37.357 55.4694 36.9651 56.2001 37.0808 56.9557C37.1435 57.2421 37.2258 57.5238 37.3272 57.7989C37.5839 58.6855 37.5002 59.636 37.0924 60.4641C36.8213 61.0113 36.2658 61.5404 35.6722 61.3635C35.6276 60.7799 35.5548 60.1433 35.2787 59.6457C35.1695 59.4436 35.0191 59.2668 34.8373 59.1265C34.4074 58.7959 33.8139 58.7264 33.4237 58.3528C33.3535 58.2856 33.2919 58.2101 33.2402 58.1279C33.0501 57.8073 32.9689 57.4338 33.0087 57.0632C33.0087 57.007 33.0203 56.9507 33.0302 56.8978C33.1099 56.4955 33.2445 56.1061 33.4303 55.7405C33.5328 55.519 33.6403 55.2974 33.7477 55.0792C33.9963 54.5851 34.2053 54.072 34.3727 53.5449C35.3779 53.1679 36.3154 52.8637 36.3154 52.8637C36.8659 53.6904 35.6673 55.1304 35.6673 55.1304C35.6673 55.1304 35.6673 55.1784 35.6557 55.2677C37.4016 55.0362 37.9191 53.1927 37.9985 51.46Z" fill="black"/>
<path opacity="0.1" d="M40.4752 45.2402C39.9924 45.3939 39.5311 45.7014 39.3178 46.1644C39.0897 46.6769 39.2071 47.2688 39.1525 47.8276C39.1401 47.9501 39.1168 48.0713 39.0831 48.1897C38.8781 48.8758 38.2349 49.3603 37.9819 50.0216C37.9638 50.0712 37.9472 50.1208 37.9323 50.1737C37.8656 50.4341 37.8538 50.7054 37.8976 50.9706C37.3066 50.2826 36.9416 49.4294 36.8521 48.5268C36.7627 47.6242 36.9531 46.716 37.3976 45.9253C37.842 45.1347 38.519 44.5 39.3366 44.1073C40.1542 43.7146 41.0728 43.5829 41.9677 43.7303C42.8627 43.8776 43.6907 44.2967 44.3392 44.9307C44.9878 45.5647 45.4256 46.383 45.5932 47.2744C45.7608 48.1657 45.6501 49.0871 45.276 49.9134C44.902 50.7397 44.2828 51.4309 43.5024 51.8932C43.6892 51.336 43.886 50.7805 44.0381 50.2117C44.3952 48.8742 44.4564 47.3283 43.6149 46.2289C43.2495 45.7701 42.7554 45.431 42.1961 45.2548C41.6367 45.0787 41.0375 45.0736 40.4752 45.2402Z" fill="black"/>
<path opacity="0.1" d="M49.1123 58.6272C48.9668 59.1546 48.5964 59.7333 48.0508 59.7085C47.7913 59.6969 47.5548 59.5432 47.2952 59.5184C46.9266 59.4853 46.5777 59.7234 46.3562 60.0144C46.1552 60.3267 45.9804 60.6552 45.8337 60.9965C45.427 61.7868 44.6301 62.4977 43.7505 62.3737L43.6596 62.3571C43.5694 62.3392 43.4813 62.312 43.3967 62.2761C42.608 61.9455 42.1815 60.9303 42.2096 60.0326C42.2427 59.0091 42.6709 58.0403 42.8114 57.0251C42.942 56.0894 42.823 55.1354 42.9238 54.1963C42.9581 53.8865 43.0134 53.5794 43.0892 53.277C43.5736 54.2079 44.2465 54.3087 44.5623 54.2971C44.7392 53.988 44.9012 53.7416 44.9012 53.7416C44.9012 53.7416 46.5 54.7551 49.2412 56.9706C49.3034 57.526 49.2597 58.0881 49.1123 58.6272Z" fill="black"/>
<path d="M42.8792 40.3265C43.7372 40.6357 44.4597 41.2656 45.3393 41.5053C45.6284 41.5622 45.9138 41.6362 46.1941 41.7269C47.1861 42.1253 47.5465 43.3223 47.7367 44.3722C48.0789 46.2669 48.3252 48.3104 49.5884 49.7637C49.8132 50.0216 50.0745 50.2696 50.1786 50.5904C50.2828 50.9111 50.1423 51.3542 49.8066 51.4253C50.382 51.6684 50.6647 52.3793 50.544 52.9927C50.4233 53.6061 49.9753 54.112 49.4479 54.4493C49.2015 54.6146 48.9039 54.7799 48.8708 55.0709C48.8688 55.227 48.9046 55.3813 48.975 55.5206C49.3158 56.4046 49.365 57.3744 49.1155 58.2883C48.97 58.8141 48.5997 59.3944 48.0541 59.3696C47.7945 59.358 47.5581 59.2042 47.3002 59.1794C46.9298 59.1464 46.5826 59.3845 46.3594 59.6754C46.1581 59.9876 45.9833 60.3161 45.837 60.6575C45.4319 61.4478 44.635 62.1588 43.7538 62.0348C42.7403 61.8909 42.1815 60.7121 42.2129 59.6936C42.2443 58.6752 42.6758 57.7014 42.8163 56.6862C42.9453 55.7504 42.8262 54.7965 42.9288 53.8574C43.0776 52.4818 43.6909 51.2038 44.0481 49.8679C44.4052 48.532 44.4647 46.9845 43.6232 45.885C43.2582 45.4252 42.7641 45.0851 42.2043 44.9083C41.6445 44.7315 41.0447 44.7262 40.4818 44.893C39.9974 45.0468 39.5378 45.3543 39.3245 45.8172C39.0467 46.4422 39.2832 47.1862 39.0881 47.8425C38.8682 48.5799 38.1407 49.0859 37.9307 49.8265C37.686 50.7177 38.2614 51.6237 38.2779 52.5463C38.2879 53.2076 38.0018 53.8458 37.6993 54.441C37.3504 55.1222 36.9586 55.8529 37.076 56.6085C37.138 56.8949 37.2198 57.1766 37.3206 57.4517C37.5829 58.3427 37.5015 59.2996 37.0925 60.1334C36.8213 60.6807 36.2559 61.2097 35.6723 61.0328C35.6078 60.2144 35.4921 59.2919 34.8373 58.7959C34.4058 58.4652 33.8123 58.3958 33.4221 58.0205C33.2616 57.849 33.1409 57.6442 33.0686 57.4207C32.9963 57.1972 32.9742 56.9606 33.0038 56.7276C33.0659 56.2623 33.2086 55.8113 33.4254 55.395C33.8999 54.3699 34.4769 53.3481 34.543 52.2206C34.6422 50.5193 33.551 48.8428 33.9478 47.1829C34.2785 45.7941 35.5615 44.8202 36.0476 43.4777C36.3072 42.7569 36.3485 41.912 36.8742 41.3582C37.6348 40.5629 38.7971 40.8324 39.7593 40.5927C40.2057 40.4803 40.586 40.2488 41.0555 40.1711C41.6666 40.0639 42.295 40.1175 42.8792 40.3265Z" fill="#925978"/>
<path opacity="0.1" d="M31.1405 75.6086C31.1405 75.6086 31.1405 79.3286 31.1405 80.9819C31.1405 81.2035 31.1405 81.4333 31.1272 81.6648C31.071 83.1528 30.8445 84.7019 30.8445 84.7019C30.58 84.3124 30.2616 83.9622 29.8988 83.662C29.1069 83.0387 28.4323 83.118 27.9247 83.4024C27.7054 83.5296 27.5069 83.6896 27.3361 83.8769C27.2221 83.1395 27.1708 82.6568 27.1708 82.6568L28.3877 82.4121C28.539 82.1563 28.7849 81.9704 29.0721 81.8946C30.1468 81.6879 30.6841 71.4786 30.6841 71.4786L27.3775 64.2634V63.9113L28.4951 62.1339C30.3551 60.5219 30.8098 62.8366 30.8098 62.8366C30.8098 62.8366 31.1405 69.1193 31.1405 69.2846C31.1405 69.4499 31.1405 75.6086 31.1405 75.6086Z" fill="black"/>
<path d="M30.8098 75.2399C30.8098 75.2399 30.8098 78.9599 30.8098 80.6132C30.8098 80.8348 30.8098 81.0646 30.7966 81.296C30.7404 82.784 30.5139 84.3332 30.5139 84.3332C28.1992 81.0679 26.5657 84.1017 26.5657 84.1017L26.0499 82.7212C25.8524 82.5519 25.6848 82.3507 25.5539 82.126C24.547 80.4595 25.1637 77.5545 25.1637 77.5545C25.5158 73.0079 27.0435 67.8825 27.0435 67.8825V63.5425L28.1645 61.7652C30.0245 60.1532 30.8098 62.4679 30.8098 62.4679C30.8098 62.4679 30.8098 68.7505 30.8098 68.9159C30.8098 69.0812 30.8098 75.2399 30.8098 75.2399Z" fill="#FF6484"/>
<path opacity="0.1" d="M30.7999 81.1308C30.7437 82.6188 30.5171 84.1679 30.5171 84.1679C28.2025 80.9026 26.569 83.9365 26.569 83.9365L26.0531 82.5559C25.8557 82.3866 25.6881 82.1854 25.5571 81.9607C26.6351 81.3672 29.011 80.2727 30.7999 81.1308Z" fill="black"/>
<path d="M30.7999 81.2961C30.7437 82.7841 30.5171 84.3333 30.5171 84.3333C28.2025 81.0679 26.569 84.1018 26.569 84.1018L26.0531 82.7213C25.8557 82.552 25.6881 82.3508 25.5571 82.1261C26.6351 81.5325 29.011 80.438 30.7999 81.2961Z" fill="#FF6484"/>
<path opacity="0.1" d="M30.7999 81.2961C30.7437 82.7841 30.5171 84.3333 30.5171 84.3333C28.2025 81.0679 26.569 84.1018 26.569 84.1018L26.0531 82.7213C25.8557 82.552 25.6881 82.3508 25.5571 82.1261C26.6351 81.5325 29.011 80.438 30.7999 81.2961Z" fill="white"/>
<path opacity="0.1" d="M27.6685 70.1146C27.6685 70.1146 28.4125 74.2066 29.1565 75.4053C29.9005 76.6039 27.6685 70.1146 27.6685 70.1146Z" fill="black"/>
<path opacity="0.1" d="M25.7638 77.0586C25.7638 77.0586 26.2185 79.5386 27.1691 79.8279C28.1198 80.1172 25.7638 77.0586 25.7638 77.0586Z" fill="black"/>
<path opacity="0.1" d="M51.3773 85.8097L52.0518 85.9535L51.7625 87.3804C51.6527 87.2355 51.531 87.1 51.3988 86.9753C50.7864 86.3912 49.9854 86.0452 49.1403 85.9998C48.7729 85.9762 48.404 85.9996 48.0425 86.0693C48.1999 85.5077 48.3039 84.9326 48.3533 84.3514C48.3828 84.1331 48.3465 83.9109 48.2492 83.7133C47.9185 83.2586 47.7532 79.0426 47.7532 79.0426C47.7532 79.0426 48.0425 76.8933 48.2078 76.4799C48.3732 76.0666 47.4639 73.9536 47.5052 73.3154C47.5465 72.6773 48.0425 67.1799 48.0425 66.8906C48.0425 66.6013 49.1172 60.9386 51.3492 63.0879L52.2172 64.2866L52.2734 64.6073L48.7038 68.7919C48.7038 68.7919 51.8038 84.8706 51.4318 85.6146C51.4035 85.6763 51.385 85.7422 51.3773 85.8097Z" fill="black"/>
<path d="M55.1138 82.2253C54.4392 82.8999 53.0356 85.1253 52.6503 85.7436L52.5511 85.909L52.2205 87.5623C52.2205 87.5623 51.0631 85.5783 48.3765 86.0743C48.5338 85.5127 48.6379 84.9376 48.6873 84.3565C48.7167 84.1381 48.6805 83.916 48.5831 83.7183C48.2525 83.2636 48.0871 79.0476 48.0871 79.0476C48.0871 79.0476 48.3765 76.8983 48.5418 76.4849C48.7071 76.0716 47.7978 73.9586 47.8391 73.3205C47.8805 72.6823 48.3765 67.1849 48.3765 66.8956C48.3765 66.6063 49.4511 60.9436 51.6831 63.0929L52.5511 64.2916L53.2125 68.0529L54.4938 74.5836C54.4938 74.5836 54.8245 77.1463 55.1138 77.5183C55.4031 77.8903 55.8958 81.44 55.1138 82.2253Z" fill="#FF6484"/>
<path opacity="0.1" d="M52.647 85.5782L52.5478 85.7436L52.2172 87.3969C52.2172 87.3969 51.0598 85.4129 48.3732 85.9089C48.5305 85.3473 48.6346 84.7722 48.684 84.1911C49.6049 84.249 51.4599 84.5085 52.647 85.5782Z" fill="black"/>
<path d="M52.647 85.7436L52.5478 85.9089L52.2172 87.5623C52.2172 87.5623 51.0598 85.5783 48.3732 86.0743C48.5305 85.5127 48.6346 84.9375 48.684 84.3564C49.6049 84.4143 51.4599 84.6739 52.647 85.7436Z" fill="#FF6484"/>
<path opacity="0.1" d="M52.647 85.7436L52.5478 85.9089L52.2172 87.5623C52.2172 87.5623 51.0598 85.5783 48.3732 86.0743C48.5305 85.5127 48.6346 84.9375 48.684 84.3564C49.6049 84.4143 51.4599 84.6739 52.647 85.7436Z" fill="white"/>
<path opacity="0.1" d="M49.9438 74.1239C49.9438 74.1239 52.7545 74.0892 53.1678 75.5524C53.5812 77.0156 49.9438 74.1239 49.9438 74.1239Z" fill="black"/>
<path opacity="0.1" d="M49.4065 78.2573C49.4065 78.2573 54.1598 78.0506 53.9532 80.1173C53.7465 82.184 49.4065 78.2573 49.4065 78.2573Z" fill="black"/>
<path opacity="0.1" d="M49.6958 81.4399C49.6958 81.4399 50.0678 81.3573 50.3158 82.2252C50.5638 83.0932 49.6958 81.4399 49.6958 81.4399Z" fill="black"/>
<path opacity="0.1" d="M40.0685 101.652C40.0685 101.652 41.201 101.321 41.7218 101.652C42.2426 101.983 40.0685 101.652 40.0685 101.652Z" fill="black"/>
<path opacity="0.1" d="M40.2719 102.851C40.2719 102.851 42.9585 102.892 43.2065 103.181C43.4545 103.471 40.2719 102.851 40.2719 102.851Z" fill="black"/>
<g opacity="0.1">
<path opacity="0.1" d="M34.5497 51.7246C34.629 50.3722 33.9627 49.0379 33.8801 47.7136C33.7941 49.0495 34.472 50.3953 34.5414 51.7577C34.5449 51.7469 34.5477 51.7358 34.5497 51.7246Z" fill="black"/>
<path opacity="0.1" d="M37.7059 53.9599C37.362 54.6312 36.9784 55.3487 37.0776 56.0944C37.1487 55.5273 37.4397 54.9784 37.7059 54.4576C38.0084 53.8624 38.2945 53.2308 38.2862 52.5628C38.2862 52.4901 38.2812 52.4174 38.2713 52.3446C38.2135 52.91 37.9655 53.449 37.7059 53.9599Z" fill="black"/>
<path opacity="0.1" d="M49.8034 50.9359C49.926 50.9878 50.0381 51.0618 50.134 51.1542C50.2165 50.9807 50.2319 50.7828 50.177 50.5986C50.177 50.5986 50.177 50.5838 50.1688 50.5755C50.1454 50.6626 50.0992 50.7419 50.035 50.8053C49.9708 50.8686 49.8908 50.9137 49.8034 50.9359Z" fill="black"/>
<path opacity="0.1" d="M37.0925 59.6358C36.8213 60.183 36.2559 60.7121 35.6723 60.5352C35.6078 59.7168 35.4921 58.7942 34.8373 58.2982C34.4058 57.9676 33.8123 57.8981 33.4237 57.5245C33.191 57.2878 33.0463 56.9785 33.0137 56.6482C33.0137 56.6746 33.0054 56.7011 33.0038 56.7276C32.974 56.9607 32.9962 57.1975 33.0688 57.4211C33.1414 57.6446 33.2626 57.8493 33.4237 58.0205C33.8123 58.3958 34.4058 58.4702 34.8373 58.7959C35.4987 59.2919 35.6078 60.2145 35.6723 61.0329C36.2559 61.2098 36.8213 60.6807 37.0925 60.1334C37.3751 59.5526 37.5011 58.908 37.4579 58.2635C37.4266 58.7404 37.3025 59.2065 37.0925 59.6358Z" fill="black"/>
<path opacity="0.1" d="M50.5407 52.5034C50.42 53.1151 49.9719 53.6227 49.4462 53.9599C49.1982 54.1253 48.9006 54.2906 48.8675 54.5816C48.8599 54.6947 48.8792 54.808 48.9237 54.9123C49.0592 54.7225 49.2384 54.5683 49.4462 54.4625C49.9719 54.1319 50.42 53.6177 50.5407 53.006C50.5729 52.8283 50.5729 52.6463 50.5407 52.4686C50.5413 52.4802 50.5413 52.4918 50.5407 52.5034Z" fill="black"/>
<path opacity="0.1" d="M49.1123 57.7989C48.9668 58.3247 48.5981 58.905 48.0508 58.8802C47.7912 58.8687 47.5548 58.7149 47.2969 58.6901C46.9265 58.657 46.5793 58.8951 46.3561 59.1861C46.1551 59.4981 45.9808 59.8267 45.8353 60.1682C45.4286 60.9585 44.6317 61.6694 43.7521 61.5454C42.8726 61.4214 42.3088 60.474 42.2228 59.5465C42.2228 59.5978 42.2112 59.649 42.2112 59.7019C42.1782 60.7253 42.737 61.8992 43.7521 62.0431C44.6317 62.1671 45.4286 61.4561 45.8353 60.6658C45.9805 60.3242 46.1547 59.9956 46.3561 59.6837C46.5793 59.3878 46.9265 59.1497 47.2969 59.1877C47.5548 59.2125 47.7929 59.3663 48.0508 59.3779C48.5981 59.4027 48.9668 58.8224 49.1123 58.2966C49.2403 57.8308 49.29 57.3469 49.2594 56.8648C49.2443 57.1806 49.195 57.4938 49.1123 57.7989Z" fill="black"/>
<path opacity="0.1" d="M43.6199 45.8982C44.039 46.4759 44.2699 47.1686 44.2812 47.8822C44.3242 46.9828 44.1556 46.0966 43.6199 45.3923C43.2549 44.9325 42.7608 44.5924 42.201 44.4156C41.6412 44.2388 41.0414 44.2335 40.4785 44.4003C39.9941 44.5541 39.5345 44.8616 39.3212 45.3245C39.0418 45.9495 39.2782 46.6951 39.0831 47.3499C38.8632 48.0872 38.1358 48.5932 37.9258 49.3339C37.8646 49.5713 37.85 49.8183 37.8828 50.0613C37.8917 49.9838 37.9061 49.907 37.9258 49.8315C38.1292 49.0908 38.8566 48.5849 39.0831 47.8475C39.2782 47.1862 39.0418 46.4471 39.3212 45.8222C39.5279 45.3592 39.9825 45.0517 40.4785 44.898C41.0422 44.7321 41.6426 44.7387 42.2024 44.9169C42.7623 45.0952 43.2559 45.437 43.6199 45.8982Z" fill="black"/>
</g>
<g opacity="0.8">
<path opacity="0.8" d="M94.4317 109.289C101.755 109.289 107.692 103.352 107.692 96.029C107.692 88.7058 101.755 82.7692 94.4317 82.7692C87.1086 82.7692 81.172 88.7058 81.172 96.029C81.172 103.352 87.1086 109.289 94.4317 109.289Z" fill="#1769FF"/>
<path opacity="0.8" d="M90.5382 90.0191C91.0639 90.0148 91.5887 90.0657 92.1039 90.1712C92.5364 90.2555 92.9482 90.424 93.3157 90.6672C93.6526 90.899 93.9223 91.2155 94.0978 91.5848C94.2973 92.0292 94.3928 92.5132 94.3772 93.0001C94.3958 93.5351 94.2517 94.0632 93.9639 94.5145C93.6525 94.9478 93.2314 95.2902 92.7437 95.5065C93.4101 95.6718 93.9961 96.0685 94.397 96.6258C94.7186 97.1471 94.9048 97.7406 94.9386 98.3522C94.9724 98.9637 94.8527 99.5741 94.5905 100.128C94.365 100.56 94.039 100.932 93.6398 101.212C93.226 101.5 92.764 101.711 92.2758 101.836C91.7624 101.969 91.234 102.037 90.7035 102.037H84.8838V90.0191H90.5382ZM90.2075 94.8832C90.6189 94.901 91.0249 94.785 91.3648 94.5526C91.669 94.3321 91.8206 93.9673 91.8195 93.4581C91.8285 93.219 91.7761 92.9817 91.6674 92.7686C91.5724 92.595 91.4332 92.4496 91.264 92.347C91.0848 92.2426 90.8882 92.1715 90.6836 92.137C90.4582 92.0979 90.2297 92.0785 90.0008 92.0792H87.5208V94.8898L90.2075 94.8832ZM90.3596 99.9821C90.6085 99.9833 90.8568 99.9578 91.1003 99.9061C91.3214 99.862 91.5323 99.7767 91.7219 99.6548C91.904 99.5345 92.052 99.3694 92.1518 99.1753C92.2685 98.9339 92.3252 98.6679 92.3171 98.3999C92.3171 97.7848 92.1435 97.3434 91.7947 97.0772C91.3911 96.7958 90.9056 96.6562 90.4142 96.6804H87.5374V99.9871L90.3596 99.9821ZM98.279 99.7292C98.6384 100.077 99.1542 100.252 99.8266 100.252C100.271 100.263 100.708 100.134 101.076 99.8846C101.371 99.7098 101.597 99.4397 101.716 99.1191H103.819C103.482 100.163 102.966 100.909 102.27 101.358C101.51 101.826 100.63 102.061 99.7373 102.034C99.1052 102.042 98.4773 101.93 97.8872 101.703C97.3584 101.499 96.8813 101.18 96.4901 100.769C96.1 100.352 95.799 99.8598 95.6056 99.3224C95.3932 98.7285 95.2879 98.1015 95.2948 97.4707C95.289 96.8501 95.3971 96.2336 95.6139 95.652C95.8133 95.1113 96.1216 94.6173 96.5198 94.2007C96.9179 93.784 97.3974 93.4536 97.9285 93.2299C98.5011 92.988 99.1175 92.8676 99.7389 92.8761C100.41 92.8605 101.074 93.008 101.675 93.306C102.21 93.5811 102.674 93.9774 103.029 94.4633C103.389 94.9595 103.649 95.5211 103.795 96.1166C103.952 96.7491 104.008 97.4026 103.96 98.0527H97.6772C97.7103 98.8231 97.907 99.3853 98.2658 99.7308L98.279 99.7292ZM100.981 95.1527C100.694 94.8386 100.259 94.6815 99.6761 94.6815C99.3484 94.67 99.0226 94.7363 98.7255 94.875C98.4911 94.9886 98.2845 95.1522 98.1203 95.3544C97.9748 95.5332 97.8658 95.7388 97.7996 95.9596C97.7435 96.1459 97.7069 96.3377 97.6905 96.5316H101.572C101.462 95.9265 101.263 95.4669 100.974 95.1527H100.981ZM97.2738 90.6259H102.13V91.9734H97.2738V90.6259Z" fill="white"/>
</g>
<g opacity="0.8">
<path opacity="0.8" d="M154.352 103.795C154.352 103.919 154.352 104.044 154.352 104.17C154.262 107.344 153.035 110.381 150.896 112.727C148.757 115.074 145.847 116.575 142.694 116.959C142.165 117.022 141.632 117.053 141.099 117.053C138.476 117.053 135.912 116.275 133.732 114.818C131.551 113.361 129.852 111.29 128.848 108.867C127.845 106.444 127.582 103.778 128.094 101.206C128.606 98.6334 129.869 96.2707 131.723 94.4164C133.578 92.562 135.941 91.2993 138.513 90.7879C141.085 90.2764 143.751 90.5392 146.174 91.5431C148.597 92.5469 150.668 94.2467 152.125 96.4275C153.581 98.6083 154.359 101.172 154.359 103.795H154.352Z" fill="#B3BBC6"/>
<path opacity="0.8" d="M154.345 104.17C154.255 107.344 153.029 110.381 150.889 112.727C148.75 115.074 145.84 116.575 142.688 116.958L131.862 108.905L133.214 100.142L138.568 100.473L141.613 103.026L143.779 99.496L147.416 102.518L149.372 103.919V99.4993L154.302 104.062C154.314 104.099 154.332 104.134 154.345 104.17Z" fill="#666C76"/>
<path opacity="0.8" d="M140.143 104.12C140.143 101.31 138.415 99.405 135.125 99.405H131.876V108.865H135.193C138.387 108.865 140.143 106.931 140.143 104.12ZM137.784 104.135C137.784 106.164 136.742 107.042 135.071 107.042H134.219V101.229H135.071C136.674 101.229 137.784 102.146 137.784 104.135ZM149.48 108.865V99.405H147.299V104.696L143.817 99.405H141.54V108.864H143.721V103.203L147.449 108.864H149.48V108.865Z" fill="white"/>
</g>
<path d="M144.382 89.6884C144.217 89.3577 142.674 87.1455 142.674 87.1455L142.628 86.9471L142.122 84.6903L142.087 84.525C142.418 84.4407 142.656 84.3365 142.731 84.2059C143.094 83.5694 142.423 82.7956 142.423 82.7956L142.283 79.4493L141.919 71.3479C141.919 71.3479 141.163 68.6365 141.051 68.0016C140.938 67.3667 139.903 66.0374 139.903 66.0374C139.903 66.0374 140.127 65.3761 139.847 64.9032C139.568 64.4304 138.951 62.2199 138.951 62.2199L138.42 56.1026L138.167 50.0844C138.421 50.0826 138.674 50.1064 138.923 50.1555C138.959 50.1853 138.939 50.1109 138.887 49.977C138.899 49.9791 138.912 49.9836 138.923 49.9902C139.009 50.0596 138.779 49.5421 138.531 49.0147L138.501 48.9535C138.62 48.522 139.113 46.7744 139.455 46.1429C139.71 45.6766 139.221 42.4576 138.847 40.2587C138.82 40.1016 138.794 39.9511 138.769 39.8056C139.376 38.7442 140.072 37.5406 140.072 37.5406C140.072 37.5406 141.834 32.5078 142.562 30.3221C143.289 28.1364 142.562 22.4688 142.562 22.4688C142.562 22.4688 142.562 22.191 142.522 21.7579C142.408 20.5873 141.972 18.2974 140.295 17.4079C138 16.1911 137.273 14.6981 137.273 14.6981C137.273 14.6981 134.409 12.0925 134.047 12.9671L134.022 12.9175C133.809 12.4802 133.651 12.0174 133.555 11.5403C133.545 11.4907 133.536 11.441 133.528 11.3931C133.894 11.1042 134.212 10.7594 134.471 10.3713C134.471 10.4441 134.459 10.5168 134.454 10.5896C134.454 10.6359 134.454 10.6822 134.454 10.7268V10.7896C134.452 10.8199 134.452 10.8503 134.454 10.8806C134.454 10.8988 134.454 10.9169 134.454 10.9351C134.56 10.9455 134.666 10.9233 134.76 10.8717C134.853 10.82 134.928 10.7412 134.975 10.6458C135.064 10.4549 135.124 10.2514 135.152 10.0423C135.248 9.5971 135.426 9.17342 135.676 8.79241C135.921 8.4171 136.248 8.04014 136.291 7.61193C136.297 7.54928 136.297 7.4861 136.291 7.42345C136.269 7.20521 136.167 7.00185 136.135 6.78526C136.122 6.67545 136.122 6.56441 136.135 6.4546C136.135 6.39012 136.15 6.32564 136.16 6.26281C136.17 6.19998 136.187 6.09748 136.198 6.00489C136.21 5.9123 136.22 5.86105 136.228 5.7883V5.78004C136.251 5.5895 136.251 5.39686 136.228 5.20633C136.214 5.03021 136.158 4.86001 136.065 4.7099C135.972 4.55978 135.844 4.43409 135.692 4.34329C135.527 4.25897 135.337 4.23252 135.172 4.1482C134.735 3.92499 134.596 3.38932 134.345 2.97598C134.166 2.70044 133.925 2.47138 133.64 2.30779C133.356 2.14419 133.036 2.05076 132.708 2.03523C132.047 2.00878 131.399 2.29811 130.749 2.20057C130.334 2.13443 129.952 1.90958 129.532 1.87982C128.919 1.83684 128.366 2.21049 127.869 2.56926C127.517 2.82222 127.141 3.10825 127.026 3.52489C126.933 3.86548 127.026 4.25732 126.834 4.55492C126.71 4.74836 126.485 4.85913 126.346 5.05092C126.231 5.20343 126.173 5.39095 126.181 5.58164C126.181 5.59817 126.181 5.61636 126.181 5.63454C126.181 5.65273 126.181 5.69406 126.181 5.72382C126.192 5.85113 126.215 5.98009 126.237 6.10574C126.238 6.11896 126.238 6.13221 126.237 6.14542C126.287 6.49428 126.174 6.73897 126.048 7.07956C125.995 7.22316 125.965 7.37444 125.959 7.52761C125.959 7.52761 125.959 7.54249 125.959 7.55076C125.959 7.55902 125.959 7.57225 125.959 7.58382C125.957 7.61577 125.957 7.64777 125.959 7.67972C125.974 7.79859 126.026 7.90972 126.108 7.99716C126.149 7.92966 126.206 7.87297 126.273 7.83182C126.273 7.88142 126.273 7.93102 126.273 7.98228V7.9922C126.274 8.57501 126.391 9.15183 126.618 9.68855C126.845 10.2253 127.178 10.711 127.596 11.117C127.596 11.1649 127.583 11.2145 127.576 11.2625C127.505 11.7585 127.411 12.3041 127.297 12.8265L127.257 12.9919H126.43C126.43 12.9919 126.571 12.3835 125.199 13.1308C123.826 13.8781 122.147 14.2368 121.892 14.3741C121.637 14.5113 118.534 16.9202 118.534 16.9202C118.534 16.9202 115.846 18.4677 115.93 21.123L115.623 24.099L115.399 29.6575C115.399 29.6575 114.979 34.3877 115.399 35.0507C115.819 35.7136 116.547 39.642 116.406 40.1396C116.305 40.5 117.319 43.033 118.023 44.5094C117.834 44.7087 117.659 44.9209 117.499 45.1443C117.499 45.1443 117.218 46.252 117.218 46.3628C117.218 46.3628 117.218 46.3743 117.231 46.381C116.611 47.0092 115.623 48.0426 115.623 48.2707C115.623 48.6014 115.819 48.8907 115.512 48.8709C115.204 48.851 115.194 49.2115 115.213 49.4314C115.231 49.6512 114.839 49.3222 114.867 49.7356C114.895 50.1489 112.012 56.6498 112.012 56.6498C112.012 56.6498 110.697 59.8308 110.193 60.3566C109.689 60.8823 108.989 63.2053 109.046 64.0617C109.102 64.9181 109.13 65.1694 108.905 65.1694C108.68 65.1694 108.234 65.9432 108.234 65.9432L106.023 72.7467C106.023 72.7467 105.378 74.848 105.183 74.8216C104.988 74.7951 104.549 78.4325 104.549 78.4325C104.549 78.4325 104.074 79.5105 103.99 79.5105C103.973 79.5105 104.051 79.5882 104.195 79.7105L104.099 79.7915C103.891 79.9694 103.673 80.135 103.446 80.2875C103.437 80.2875 102.168 79.4063 101.296 79.489C100.425 79.5716 98.6378 79.7915 97.7401 79.1583C97.2441 78.8045 96.1975 78.497 95.356 78.4837C94.6847 78.4738 94.1408 78.6491 94.1027 79.1583C94.0184 80.2908 97.1531 82.422 97.1531 82.422C97.1531 82.422 100.46 83.3611 101.1 84.2406C101.739 85.1202 104.383 86.4528 104.383 86.4528C104.383 86.4528 105.178 86.1023 105.478 85.7501C105.513 85.7165 105.542 85.6757 105.56 85.6304C105.579 85.5851 105.588 85.5363 105.587 85.4872C105.531 85.0723 106.678 83.5033 106.678 83.5033L106.843 82.7245C106.924 82.3393 107.027 81.8698 107.128 81.4581C107.141 81.4019 107.154 81.3467 107.167 81.2927C107.299 81.2993 107.43 81.2791 107.553 81.2332C108.672 80.7918 108.784 79.5799 108.784 79.5799L110.459 76.0765C110.459 76.0765 111.187 74.0578 111.41 73.6973C111.633 73.3369 113.369 69.7161 113.369 69.7161C113.369 69.7161 113.677 68.1669 113.958 67.6974C114.239 67.2278 114.265 66.2094 114.265 66.2094C114.265 66.2094 114.852 64.6602 115.469 64.0518C115.913 63.5743 116.298 63.0453 116.616 62.4762C116.616 62.4762 119.162 58.4652 120.898 57.3326C120.898 57.3326 125.07 52.2437 125.321 51.8006C125.572 51.3575 126.356 50.1968 127.305 51.2467C128.254 52.2966 129.263 53.654 129.263 53.654L130.972 58.2998L132.875 64.2518C132.875 64.2518 133.77 65.6886 133.715 65.9928C133.66 66.297 135.17 69.0085 135.17 69.0085C135.17 69.0085 135.757 70.0005 135.646 70.4965C135.535 70.9925 136.066 71.4885 136.066 71.4885L136.231 73.5072C136.231 73.5072 136.848 75.4912 136.679 75.8037C136.511 76.1161 137.268 78.0158 137.268 78.0158C137.268 78.0158 137.268 79.7022 137.547 80.2561C137.827 80.81 138.167 83.0205 138.139 83.1858C138.111 83.3511 138.139 84.8739 138.139 84.8739C138.139 84.8739 138.336 84.8739 138.648 84.8639L138.662 85.0293L138.801 86.6942L138.814 86.8479C138.739 86.9059 138.677 86.9792 138.633 87.0631C138.589 87.147 138.563 87.2394 138.558 87.334C138.558 87.7837 138.624 89.1047 138.68 90.1447C138.693 90.4208 138.708 90.6754 138.721 90.8887C138.726 90.9632 138.745 91.036 138.779 91.1027C138.813 91.1693 138.859 91.2284 138.917 91.2763C138.974 91.3241 139.041 91.3598 139.112 91.381C139.184 91.4022 139.259 91.4085 139.333 91.3996C140.129 91.2992 140.936 91.3294 141.722 91.4888C142.593 91.6889 143.49 91.7547 144.381 91.6839C144.381 91.6839 144.442 91.0606 144.452 90.5018C144.46 90.1447 144.447 89.8157 144.382 89.6884Z" fill="url(#paint1_linear)"/>
<path d="M142.241 87.2233H138.467L138.43 86.7786L138.293 85.1186L138.191 83.8621H141.497L141.699 84.7764L142.197 87.0249L142.241 87.2233Z" fill="#FFAAB0"/>
<path d="M107.548 80.5537C107.477 80.6232 107.359 81.0415 107.24 81.5457C107.027 82.4319 106.804 83.5843 106.804 83.5843L106.665 83.6174L103.722 84.3283C103.722 84.3283 102.179 80.8017 102.895 80.7191C103.148 80.6662 103.386 80.5603 103.594 80.4082C103.83 80.2518 104.056 80.0806 104.271 79.8957C104.663 79.565 104.962 79.2575 104.962 79.2575C104.962 79.2575 107.741 80.3603 107.548 80.5537Z" fill="#FFAAB0"/>
<path opacity="0.1" d="M107.548 80.5538C107.477 80.6232 107.359 81.0415 107.24 81.5458C106.223 81.4862 104.686 80.2793 104.264 79.8925C104.656 79.5618 104.955 79.2543 104.955 79.2543C104.955 79.2543 107.741 80.3603 107.548 80.5538Z" fill="black"/>
<path opacity="0.1" d="M141.697 84.7747C140.791 85.0194 139.13 85.0938 138.291 85.117L138.189 83.8605H141.496L141.697 84.7747Z" fill="black"/>
<path d="M117.716 46.1099C117.716 46.1099 115.649 48.1484 115.649 48.4791C115.649 48.8098 115.842 49.0958 115.54 49.0776C115.237 49.0594 115.227 49.4165 115.246 49.6364C115.264 49.8563 114.879 49.5257 114.905 49.939C114.931 50.3523 112.094 56.8284 112.094 56.8284C112.094 56.8284 110.8 59.9979 110.304 60.5203C109.808 61.0428 109.118 63.3591 109.175 64.2139C109.231 65.0686 109.257 65.315 109.036 65.315C108.814 65.315 108.374 66.0871 108.374 66.0871L106.199 72.8658C106.199 72.8658 105.564 74.9605 105.372 74.9324C105.18 74.9043 104.711 78.5417 104.711 78.5417C104.711 78.5417 104.241 79.6163 104.158 79.6163C104.076 79.6163 106.556 81.7657 107.658 81.3259C108.761 80.8861 108.87 79.6725 108.87 79.6725L110.524 76.2005C110.524 76.2005 111.241 74.1884 111.461 73.8297C111.681 73.4709 113.391 69.8617 113.391 69.8617C113.391 69.8617 113.693 68.3191 113.969 67.8512C114.245 67.3833 114.272 66.3632 114.272 66.3632C114.272 66.3632 114.85 64.819 115.457 64.2139C115.895 63.737 116.274 63.2097 116.586 62.6432C116.586 62.6432 119.095 58.6471 120.802 57.5179C120.802 57.5179 124.908 52.4471 125.156 52.0057C125.404 51.5642 126.176 50.4085 127.113 51.4551C128.051 52.5017 129.041 53.8524 129.041 53.8524L130.722 58.4818L132.596 64.4057C132.596 64.4057 133.479 65.8391 133.422 66.1417C133.366 66.4442 134.856 69.1458 134.856 69.1458C134.856 69.1458 135.434 70.1378 135.324 70.6338C135.213 71.1298 135.737 71.6258 135.737 71.6258L135.902 73.6379C135.902 73.6379 136.509 75.6219 136.344 75.9244C136.178 76.227 136.922 78.1283 136.922 78.1283C136.922 78.1283 136.922 79.8098 137.199 80.3603C137.475 80.9109 137.804 83.1164 137.777 83.2818C137.751 83.4471 137.777 84.9632 137.777 84.9632C137.777 84.9632 141.935 84.9351 142.294 84.3019C142.653 83.6687 141.992 82.8965 141.992 82.8965L141.853 79.5618L141.496 71.4885C141.496 71.4885 140.752 68.787 140.641 68.1538C140.53 67.5205 139.512 66.1979 139.512 66.1979C139.512 66.1979 139.731 65.5365 139.455 65.067C139.179 64.5974 138.574 62.3952 138.574 62.3952L138.05 56.3043L137.781 49.6645L117.716 46.1099Z" fill="#DCE6F2"/>
<path opacity="0.1" d="M138.548 50.3804C138.382 50.2415 131.604 50.187 131.521 50.187C131.438 50.187 128.876 49.1668 128.876 49.1668C128.876 49.1668 123.172 48.2311 122.29 48.6444C121.409 49.0577 118.68 47.8723 118.68 47.8723V47.3482C118.68 47.3482 117.22 46.8522 117.22 46.7431C117.22 46.6339 117.496 45.5295 117.496 45.5295L117.661 45.4717L118.293 45.2551L137.665 48.3683C137.665 48.3683 137.921 48.8941 138.161 49.4082C138.401 49.9224 138.632 50.4498 138.548 50.3804Z" fill="black"/>
<path d="M138.548 50.2151C138.382 50.0762 131.604 50.0216 131.521 50.0216C131.438 50.0216 128.876 49.0015 128.876 49.0015C128.876 49.0015 123.172 48.0657 122.29 48.4791C121.409 48.8924 118.68 47.7069 118.68 47.7069V47.1828C118.68 47.1828 117.22 46.6868 117.22 46.5777C117.22 46.4686 117.496 45.3642 117.496 45.3642L117.661 45.3063L118.293 45.0897L137.665 48.2029C137.665 48.2029 137.921 48.7287 138.161 49.2429C138.401 49.7571 138.632 50.2845 138.548 50.2151Z" fill="#F1FAFF"/>
<path opacity="0.1" d="M106.961 82.6403L106.795 83.419C106.795 83.419 106.741 83.495 106.656 83.6174L103.722 84.3283C103.722 84.3283 102.179 80.8018 102.895 80.7191C103.148 80.6663 103.386 80.5603 103.594 80.4083C103.444 81.5127 104.3 82.675 104.3 82.675C105.509 83.5843 106.961 82.6403 106.961 82.6403Z" fill="black"/>
<path d="M106.961 82.8072L106.795 83.586C106.795 83.586 105.666 85.1566 105.721 85.57C105.722 85.6189 105.713 85.6675 105.695 85.7128C105.676 85.7581 105.649 85.799 105.613 85.8329C105.319 86.1834 104.535 86.5322 104.535 86.5322C104.535 86.5322 101.946 85.2095 101.311 84.3283C100.676 83.4471 97.426 82.5096 97.426 82.5096C97.426 82.5096 94.3409 80.3867 94.4235 79.2575C94.4599 78.7615 94.9956 78.5763 95.6569 78.5863C96.4836 78.5962 97.5136 78.9053 98.0047 79.2575C98.8876 79.8907 100.65 79.6708 101.505 79.5882C102.36 79.5055 103.616 80.3851 103.616 80.3851C103.33 81.5424 104.287 82.8403 104.287 82.8403C105.509 83.7513 106.961 82.8072 106.961 82.8072Z" fill="#575988"/>
<path d="M105.621 85.8311C105.327 86.1816 104.544 86.5305 104.544 86.5305C104.544 86.5305 101.954 85.2078 101.32 84.3266C100.685 83.4454 97.4342 82.5079 97.4342 82.5079C97.4342 82.5079 94.3491 80.3851 94.4317 79.2559C94.4681 78.7599 95.0038 78.5747 95.6651 78.5846C96.1611 79.4113 96.8936 80.5603 97.4342 80.8811C98.3171 81.4052 100.053 82.3972 100.053 82.3972C100.053 82.3972 102.808 84.1332 103.001 84.3266C103.16 84.487 104.755 85.5418 105.621 85.8311Z" fill="#F1FAFF"/>
<path opacity="0.1" d="M142.245 87.2217H138.465L138.429 86.7769C138.905 86.3289 139.925 86.1156 139.925 86.1156C140.633 85.899 141.937 86.8282 142.195 87.02L142.245 87.2217Z" fill="black"/>
<path d="M143.992 90.5647C143.982 91.1219 143.921 91.7419 143.921 91.7419C143.044 91.8127 142.161 91.7475 141.304 91.5485C140.53 91.389 139.736 91.3588 138.953 91.4592C138.879 91.4679 138.805 91.4614 138.734 91.4401C138.663 91.4188 138.597 91.3832 138.541 91.3355C138.484 91.2877 138.438 91.2289 138.405 91.1626C138.372 91.0962 138.353 91.0239 138.349 90.9499C138.338 90.7383 138.323 90.4837 138.31 90.2092C138.253 89.1792 138.189 87.8632 138.189 87.4151C138.189 86.6447 139.925 86.2859 139.925 86.2859C140.712 86.0445 142.24 87.2233 142.24 87.2233C142.24 87.2233 143.756 89.4272 143.921 89.7579C143.985 89.8852 143.999 90.2126 143.992 90.5647Z" fill="#575988"/>
<path d="M143.992 90.5647C143.982 91.1219 143.921 91.7419 143.921 91.7419C143.044 91.8127 142.161 91.7474 141.304 91.5484C140.53 91.3889 139.736 91.3588 138.953 91.4591C138.879 91.4678 138.805 91.4613 138.734 91.4401C138.663 91.4188 138.597 91.3832 138.541 91.3354C138.484 91.2877 138.438 91.2288 138.405 91.1625C138.372 91.0962 138.353 91.0238 138.349 90.9499C138.338 90.7383 138.323 90.4837 138.31 90.2092C138.944 90.1133 139.88 90.0207 140.532 90.1712C141.289 90.3464 143.028 90.4936 143.992 90.5647Z" fill="#F1FAFF"/>
<path opacity="0.1" d="M106.349 74.0098C106.349 74.0098 105.77 75.0019 106.349 75.4565C106.928 75.9112 106.349 74.0098 106.349 74.0098Z" fill="black"/>
<path opacity="0.1" d="M137.432 77.8539C137.597 78.1846 138.037 78.6806 137.961 79.2592C137.885 79.8379 137.432 77.8539 137.432 77.8539Z" fill="black"/>
<path d="M136.922 17.3964C136.922 17.3964 134.398 17.1401 131.781 16.7929L131.673 16.778C128.634 16.373 125.516 15.8488 126.12 15.4669C126.389 15.3016 126.616 14.8816 126.802 14.3526C126.919 14.0137 127.016 13.6688 127.095 13.3192C127.108 13.2647 127.12 13.2085 127.133 13.1539C127.247 12.6331 127.338 12.0892 127.409 11.5965C127.55 10.5929 127.608 9.79269 127.608 9.79269C127.608 9.79269 134.084 7.33914 133.285 10.3978C133.164 10.8889 133.156 11.4011 133.262 11.8957C133.357 12.3708 133.512 12.8319 133.723 13.268C134.755 15.4702 136.922 17.3964 136.922 17.3964Z" fill="#FFAAB0"/>
<path opacity="0.1" d="M133.285 10.3962C133.164 10.8873 133.156 11.3995 133.262 11.8941C132.422 12.5757 131.359 12.9223 130.278 12.8671C129.198 12.8118 128.176 12.3586 127.409 11.5949C127.55 10.5913 127.608 9.79107 127.608 9.79107C127.608 9.79107 134.084 7.33752 133.285 10.3962Z" fill="black"/>
<path d="M134.882 8.32619C134.884 9.48819 134.423 10.6031 133.603 11.4257C133.196 11.833 132.713 12.1563 132.182 12.3771C131.651 12.5979 131.081 12.7118 130.506 12.7125C129.931 12.7131 129.361 12.6005 128.829 12.3809C128.297 12.1613 127.814 11.8391 127.406 11.4327C126.584 10.612 126.121 9.49811 126.12 8.33611V8.32619C126.12 7.16419 126.581 6.04978 127.403 5.22812C128.225 4.40646 129.339 3.94485 130.501 3.94485C131.663 3.94485 132.777 4.40646 133.599 5.22812C134.421 6.04978 134.882 7.16419 134.882 8.32619Z" fill="#FFAAB0"/>
<path opacity="0.1" d="M131.838 16.6127C131.826 16.6747 131.807 16.7352 131.781 16.7929L131.673 16.778C128.634 16.373 125.516 15.8489 126.12 15.4669C126.389 15.3016 126.616 14.8817 126.802 14.3526C126.919 14.0138 127.016 13.6688 127.095 13.3193C127.108 13.2647 127.12 13.2085 127.133 13.1539H127.26C127.27 13.2234 127.591 15.3413 130.433 15.7034L130.529 15.7149C131.638 15.8389 131.921 16.2027 131.838 16.6127Z" fill="black"/>
<path d="M131.673 16.7781C131.534 17.4642 130.364 18.2776 130.364 18.2776L127.112 17.6709C127.112 17.6709 125.073 15.8522 125.073 15.7976C125.073 15.7431 126.285 13.3176 126.285 13.3176H127.095C127.105 13.3871 127.426 15.505 130.268 15.8671L130.364 15.8786C131.473 16.0043 131.756 16.368 131.673 16.7781Z" fill="#F1FAFF"/>
<path opacity="0.1" d="M136.922 17.3964C136.922 17.3964 134.328 17.1335 131.673 16.778C131.534 17.4642 130.364 18.2776 130.364 18.2776L127.112 17.6708C127.112 17.6708 125.073 15.8522 125.073 15.7976C125.073 15.7431 126.285 13.3176 126.285 13.3176H126.326C126.433 13.6842 126.593 14.033 126.802 14.3526C127.313 15.133 128.29 15.9877 130.109 15.8803L130.261 15.8687C132.991 15.6422 133.604 13.7524 133.717 13.2664C134.755 15.4703 136.922 17.3964 136.922 17.3964Z" fill="black"/>
<path opacity="0.1" d="M138.161 49.2429L138.106 49.443C137.445 48.947 132.624 48.6163 132.624 48.6163C132.624 48.6163 131.356 48.4675 130.144 48.274C129.264 48.1335 128.414 47.9682 128.102 47.8177C128.029 47.7853 127.955 47.7572 127.879 47.7334C126.781 47.3895 123.415 46.9911 123.415 46.9911C123.415 46.9911 121.761 47.7351 120.88 47.4044C119.999 47.0737 117.491 45.5295 117.491 45.5295C117.491 45.5295 117.545 45.4468 117.656 45.3063L118.288 45.0897L137.66 48.203C137.66 48.203 137.923 48.7287 138.161 49.2429Z" fill="black"/>
<path d="M138.472 40.5298C138.84 42.7222 139.321 45.928 139.072 46.3926C138.685 47.1085 138.106 49.2859 138.106 49.2859C137.445 48.7899 132.624 48.4592 132.624 48.4592C132.624 48.4592 131.356 48.3104 130.144 48.117C129.264 47.9765 128.414 47.8111 128.102 47.6607C128.029 47.6283 127.955 47.6001 127.879 47.5764C126.781 47.2325 123.415 46.834 123.415 46.834C123.415 46.834 121.761 47.578 120.88 47.2473C119.999 46.9167 117.491 45.3725 117.491 45.3725C117.852 44.8774 118.268 44.4248 118.731 44.0233C119.584 43.2512 121.155 36.6098 121.115 36.5271C121.075 36.4445 120.687 34.3232 120.797 33.0832C120.908 31.8432 120.467 25.7804 120.467 25.7804C120.467 25.7804 116.034 24.0643 115.957 21.4189C115.879 18.7736 118.519 17.231 118.519 17.231C118.519 17.231 121.578 14.8337 121.826 14.6948C122.074 14.556 123.727 14.1988 125.078 13.4548C126.429 12.7108 126.29 13.3176 126.29 13.3176C126.29 13.3176 126.842 16.239 130.121 16.0456C133.399 15.8522 133.758 13.3176 133.758 13.3176C134.11 12.4364 136.934 15.0536 136.934 15.0536C136.934 15.0536 137.65 16.5416 139.91 17.7535C141.563 18.6397 141.99 20.9213 142.102 22.0869C142.144 22.5184 142.142 22.7962 142.142 22.7962L135.501 27.5644L138.111 38.4483C138.111 38.4483 138.276 39.3361 138.472 40.5298Z" fill="#575988"/>
<path d="M122.042 46.1925C122.042 46.1925 124.22 49.939 126.478 48.8924C126.987 48.661 127.41 48.2744 127.685 47.788C128.576 46.2471 127.685 44.2813 125.959 43.82C125.323 43.6546 124.637 43.5505 124.081 43.6546C122.51 43.9324 122.042 46.1925 122.042 46.1925Z" fill="#FFAAB0"/>
<path opacity="0.1" d="M122.042 46.1925C122.042 46.1925 124.22 49.939 126.478 48.8924C126.987 48.661 127.41 48.2744 127.685 47.788C128.576 46.2471 127.685 44.2813 125.959 43.82C125.323 43.6546 124.637 43.5505 124.081 43.6546C122.51 43.9324 122.042 46.1925 122.042 46.1925Z" fill="black"/>
<path opacity="0.1" d="M118.846 18.8298C118.846 18.8298 120.564 19.9871 120.601 21.8058L118.846 18.8298Z" fill="black"/>
<path opacity="0.1" d="M121.546 19.711C121.546 19.8218 121.05 27.4817 121.932 30.0989C122.813 32.7162 121.546 19.711 121.546 19.711Z" fill="black"/>
<path opacity="0.1" d="M134.882 8.3262C134.884 9.17525 134.638 10.0063 134.173 10.7169C134.173 10.6607 134.173 10.6061 134.173 10.5516C134.145 10.092 133.902 9.67697 133.665 9.28017C133.505 8.96465 133.279 8.68641 133.004 8.46342C132.924 8.41674 132.849 8.36129 132.781 8.29809C132.629 8.13276 132.645 7.86988 132.616 7.63676C132.571 7.33189 132.433 7.04844 132.22 6.82608C132.007 6.60373 131.73 6.45361 131.427 6.39676C131.301 6.36537 131.168 6.38436 131.056 6.44966C130.944 6.52902 130.891 6.67617 130.797 6.7671C130.648 6.90102 130.42 6.88449 130.223 6.84646C129.79 6.76049 129.339 6.60342 128.919 6.7423C128.198 6.98204 127.927 7.979 127.188 8.16417C126.969 8.19685 126.748 8.21233 126.526 8.21046C126.384 8.21977 126.246 8.26223 126.123 8.33446V8.32454C126.123 7.16254 126.584 6.04813 127.406 5.22647C128.228 4.40481 129.342 3.94321 130.504 3.94321C131.666 3.94321 132.781 4.40481 133.602 5.22647C134.424 6.04813 134.886 7.16254 134.886 8.32454L134.882 8.3262Z" fill="black"/>
<path d="M126.163 5.41797C126.3 5.23445 126.52 5.12367 126.644 4.93023C126.832 4.63429 126.74 4.2441 126.832 3.90517C126.945 3.49018 127.315 3.20581 127.659 2.95285C128.155 2.59573 128.692 2.22372 129.296 2.26506C129.709 2.29482 130.084 2.51967 130.494 2.5858C131.134 2.68996 131.776 2.40228 132.424 2.42047C132.748 2.43673 133.063 2.5305 133.343 2.69391C133.624 2.85732 133.86 3.0856 134.034 3.35957C134.29 3.76959 134.426 4.30362 134.861 4.5169C135.026 4.60122 135.211 4.62767 135.373 4.71199C135.523 4.80338 135.649 4.92918 135.741 5.07897C135.833 5.22876 135.888 5.39824 135.901 5.57338C135.924 5.92282 135.899 6.27374 135.828 6.61663C135.796 6.78937 135.788 6.96582 135.805 7.14074C135.835 7.35733 135.937 7.55904 135.959 7.77728C136.008 8.27328 135.628 8.7081 135.352 9.13301C135.107 9.5142 134.933 9.93652 134.838 10.3796C134.811 10.5881 134.752 10.7911 134.662 10.9814C134.616 11.0759 134.543 11.1541 134.451 11.2058C134.36 11.2574 134.255 11.2801 134.15 11.2708C134.118 10.9715 134.193 10.669 134.173 10.3681C134.145 9.90842 133.902 9.49344 133.665 9.09829C133.505 8.78202 133.28 8.50314 133.004 8.27989C132.924 8.23372 132.85 8.17823 132.783 8.11456C132.629 7.94922 132.645 7.688 132.617 7.45322C132.573 7.14866 132.434 6.86557 132.221 6.64354C132.008 6.4215 131.731 6.27163 131.428 6.21487C131.303 6.183 131.17 6.20139 131.058 6.26613C130.946 6.34549 130.893 6.49263 130.799 6.58357C130.65 6.71749 130.422 6.70261 130.225 6.66293C129.792 6.57861 129.34 6.41989 128.92 6.55877C128.199 6.7985 127.928 7.79546 127.189 7.98064C126.97 8.01422 126.749 8.02971 126.528 8.02693C126.416 8.0272 126.307 8.05421 126.208 8.10571C126.109 8.1572 126.023 8.23167 125.959 8.32288C125.738 8.09141 125.782 7.71445 125.891 7.41354C126.019 7.06138 126.134 6.81173 126.072 6.44138C126.009 6.07103 125.926 5.73375 126.163 5.41797Z" fill="#794F6A"/>
<path opacity="0.1" d="M110.069 65.5365C110.069 65.5365 108.498 66.3632 109.325 66.5285C110.152 66.6938 110.069 65.5365 110.069 65.5365Z" fill="black"/>
<path opacity="0.1" d="M135.944 67.5206C135.944 67.5206 136.812 66.3632 137.762 67.0659C138.713 67.7686 135.944 67.5206 135.944 67.5206Z" fill="black"/>
<path opacity="0.1" d="M137.961 68.2645C137.961 68.2645 139.044 67.8925 139.705 68.2645H137.961Z" fill="black"/>
<path opacity="0.1" d="M116.558 49.4991C116.558 49.4991 118.873 51.7312 119.617 51.8138C120.361 51.8965 116.558 49.4991 116.558 49.4991Z" fill="black"/>
<path opacity="0.1" d="M116.889 20.1525L116.287 21.4189L115.983 24.3949L115.763 29.9336C115.763 29.9336 115.35 34.6456 115.763 35.3069C116.176 35.9683 116.892 39.8817 116.755 40.3777C116.618 40.8737 118.574 45.503 118.933 45.7792C119.291 46.0553 120.558 46.1098 121.274 45.9709L122.583 47.2159L126.29 43.7952L124.002 42.0592C124.002 42.0592 124.526 41.1763 123.066 40.2124C123.066 40.2124 122.405 39.1096 122.376 38.5309C122.342 37.3505 122.138 36.1811 121.77 35.0589C121.247 33.5164 120.943 24.9472 120.943 24.9472C120.943 24.9472 119.7 18.6909 116.889 20.1525Z" fill="black"/>
<path d="M116.558 20.1525L115.957 21.4189L115.652 24.3949L115.432 29.9336C115.432 29.9336 115.019 34.6456 115.432 35.3069C115.846 35.9683 116.562 39.8817 116.424 40.3777C116.287 40.8737 118.243 45.503 118.602 45.7792C118.961 46.0553 120.227 46.1098 120.943 45.9709L122.252 47.2159L125.959 43.7952L123.671 42.0592C123.671 42.0592 124.195 41.1763 122.735 40.2124C122.735 40.2124 122.074 39.1096 122.046 38.5309C122.011 37.3505 121.807 36.1811 121.439 35.0589C120.917 33.5164 120.612 24.9472 120.612 24.9472C120.612 24.9472 119.369 18.6909 116.558 20.1525Z" fill="#575988"/>
<path opacity="0.1" d="M122.319 40.8737C122.153 40.9564 118.818 44.0432 120.058 44.1258C121.298 44.2085 122.319 40.8737 122.319 40.8737Z" fill="black"/>
<path d="M126.561 44.5938C126.561 44.5938 121.794 45.0898 122.042 47.0192C122.29 48.9486 125.68 50.807 126.754 50.2217C127.829 49.6364 128.738 49.0776 128.738 49.0776L126.561 44.5938Z" fill="#FFAAB0"/>
<path opacity="0.1" d="M141.11 21.4752L141.8 22.7978C141.8 22.7978 142.516 28.4456 141.8 30.623C141.084 32.8005 139.348 37.815 139.348 37.815C139.348 37.815 137.253 41.4805 137.199 41.6458C137.144 41.8112 133.174 47.5416 132.458 47.8458C131.743 48.15 130.392 47.9897 130.309 47.6557C130.226 47.3217 128.408 49.0776 128.408 49.0776C128.408 49.0776 124.903 44.8417 125.46 44.4003C126.017 43.9588 127.705 43.8497 127.705 43.8497C127.705 43.8497 127.829 44.2631 127.966 43.4083C128.104 42.5535 128.738 42.1137 129.206 42.1683C129.674 42.2228 129.482 41.7285 129.565 41.2044C129.648 40.6803 130.942 39.7445 130.942 39.7445C130.942 39.7445 131.577 38.7244 131.577 38.1176C131.577 37.5108 132.9 36.9884 133.009 36.9884C133.118 36.9884 133.092 36.7404 133.092 35.8592C133.092 34.9779 133.753 33.4056 133.753 33.4056L134.161 28.4456L134.879 23.4029C134.879 23.4029 136.84 17.2592 141.11 21.4752Z" fill="black"/>
<path opacity="0.1" d="M138.111 38.4483C138.111 38.4483 138.277 39.3361 138.477 40.5216C138.146 41.1151 137.883 41.588 137.863 41.6442C137.809 41.8095 133.841 47.5416 133.125 47.8442C132.409 48.1468 131.058 47.988 130.975 47.6557C130.939 47.5069 130.56 47.7698 130.149 48.1087C129.636 48.532 129.072 49.0759 129.072 49.0759C129.072 49.0759 128.517 48.4047 127.884 47.5681C126.925 46.3049 125.789 44.6665 126.123 44.4003C126.68 43.9589 128.37 43.8497 128.37 43.8497C128.37 43.8497 128.494 44.2631 128.631 43.4083C128.768 42.5535 129.403 42.1137 129.871 42.1683C130.339 42.2229 130.147 41.7269 130.23 41.2044C130.312 40.682 131.607 39.7429 131.607 39.7429C131.607 39.7429 132.24 38.7244 132.24 38.1176C132.24 37.5109 133.563 36.9884 133.674 36.9884C133.784 36.9884 133.756 36.7404 133.756 35.8575C133.756 34.9746 134.418 33.4056 134.418 33.4056L134.826 28.4456L135.542 23.403C135.542 23.403 137.499 17.2575 141.77 21.4735L142.089 22.0869C142.13 22.5184 142.129 22.7962 142.129 22.7962L135.487 27.5644L138.111 38.4483Z" fill="black"/>
<path d="M141.441 21.4752L142.13 22.7978C142.13 22.7978 142.846 28.4456 142.13 30.623C141.415 32.8005 139.679 37.815 139.679 37.815C139.679 37.815 137.584 41.4805 137.529 41.6458C137.475 41.8112 133.505 47.5416 132.789 47.8458C132.073 48.15 130.722 47.9897 130.64 47.6557C130.557 47.3217 128.738 49.0776 128.738 49.0776C128.738 49.0776 125.233 44.8417 125.791 44.4003C126.348 43.9588 128.036 43.8497 128.036 43.8497C128.036 43.8497 128.16 44.2631 128.297 43.4083C128.434 42.5535 129.069 42.1137 129.537 42.1683C130.005 42.2228 129.813 41.7285 129.896 41.2044C129.978 40.6803 131.273 39.7445 131.273 39.7445C131.273 39.7445 131.908 38.7244 131.908 38.1176C131.908 37.5108 133.231 36.9884 133.34 36.9884C133.449 36.9884 133.422 36.7404 133.422 35.8592C133.422 34.9779 134.084 33.4056 134.084 33.4056L134.492 28.4456L135.21 23.4029C135.21 23.4029 137.17 17.2592 141.441 21.4752Z" fill="#575988"/>
<path opacity="0.1" d="M129.152 43.6183C129.152 43.6183 129.317 43.9903 130.061 44.1258C130.805 44.2614 129.152 43.6183 129.152 43.6183Z" fill="black"/>
<path opacity="0.1" d="M138.052 21.5016C138.025 21.5843 135.572 24.3569 136.068 25.0794C136.564 25.8019 138.052 21.5016 138.052 21.5016Z" fill="black"/>
<path opacity="0.1" d="M135.269 34.2323C135.269 34.2323 136.674 35.6112 136.398 36.2725C136.122 36.9338 135.269 34.2323 135.269 34.2323Z" fill="black"/>
<path opacity="0.1" d="M135.489 31.6151C135.572 31.7523 138.604 32.111 138.769 33.2684C138.935 34.4257 135.489 31.6151 135.489 31.6151Z" fill="black"/>
<g opacity="0.1">
<path opacity="0.1" d="M135.797 6.83159C135.797 6.76877 135.811 6.70428 135.821 6.6398C135.883 6.32462 135.91 6.00357 135.901 5.68253C135.887 5.8925 135.851 6.10247 135.821 6.30914C135.788 6.48124 135.78 6.65714 135.797 6.83159Z" fill="black"/>
<path opacity="0.1" d="M126.073 6.50754C126.093 6.38543 126.093 6.26095 126.073 6.13884C126.053 6.02146 126.032 5.90407 126.02 5.78668C126.003 6.01566 126.021 6.24598 126.073 6.46951V6.50754Z" fill="black"/>
<path opacity="0.1" d="M135.944 7.73267C135.873 8.12616 135.577 8.47832 135.35 8.82717C135.104 9.20726 134.93 9.62921 134.836 10.0721C134.808 10.2803 134.749 10.4831 134.661 10.6739C134.615 10.7687 134.541 10.8472 134.45 10.8989C134.358 10.9506 134.253 10.9731 134.148 10.9633C134.149 10.9578 134.149 10.9522 134.148 10.9467C134.139 11.0623 134.139 11.1784 134.148 11.2939C134.253 11.3037 134.358 11.2813 134.45 11.2295C134.541 11.1778 134.615 11.0993 134.661 11.0046C134.749 10.8138 134.808 10.611 134.836 10.4028C134.93 9.95988 135.104 9.53792 135.35 9.15784C135.625 8.73293 136.011 8.30472 135.955 7.80045C135.962 7.77731 135.947 7.75581 135.944 7.73267Z" fill="black"/>
<path opacity="0.1" d="M134.171 10.0622C134.143 9.60258 133.9 9.18593 133.664 8.79079C133.504 8.47181 133.278 8.19012 133.002 7.96412C132.922 7.9175 132.847 7.86204 132.779 7.79879C132.627 7.63345 132.644 7.37057 132.614 7.13745C132.569 6.83289 132.431 6.5498 132.218 6.32777C132.005 6.10574 131.728 5.95587 131.425 5.89911C131.3 5.86723 131.167 5.88562 131.055 5.95036C130.942 6.02972 130.889 6.17687 130.795 6.26945C130.712 6.32467 130.617 6.36046 130.517 6.37419C130.418 6.38793 130.317 6.37925 130.221 6.34881C129.788 6.26284 129.337 6.10412 128.917 6.24465C128.196 6.48273 127.925 7.47969 127.184 7.66487C126.965 7.69825 126.744 7.71428 126.523 7.71281C126.412 7.71233 126.302 7.73886 126.203 7.79012C126.104 7.84138 126.02 7.91584 125.956 8.00711C125.88 7.92693 125.83 7.82628 125.812 7.71777C125.786 7.82519 125.786 7.93715 125.811 8.04477C125.836 8.15239 125.885 8.25271 125.956 8.33777C126.02 8.2465 126.104 8.17204 126.203 8.12078C126.302 8.06952 126.412 8.043 126.523 8.04348C126.744 8.04495 126.965 8.02892 127.184 7.99553C127.922 7.81036 128.196 6.8134 128.917 6.57532C129.337 6.43479 129.788 6.59351 130.221 6.67948C130.317 6.70992 130.418 6.71859 130.517 6.70486C130.617 6.69113 130.712 6.65534 130.795 6.60012C130.898 6.50753 130.942 6.36039 131.055 6.28103C131.167 6.21629 131.3 6.1979 131.425 6.22977C131.728 6.28653 132.005 6.4364 132.218 6.65844C132.431 6.88047 132.569 7.16356 132.614 7.46812C132.642 7.69628 132.625 7.95255 132.779 8.12945C132.847 8.19271 132.922 8.24816 133.002 8.29479C133.278 8.52079 133.504 8.80247 133.664 9.12145C133.894 9.50668 134.127 9.91009 134.16 10.3548C134.17 10.2577 134.174 10.1599 134.171 10.0622Z" fill="black"/>
</g>
<path d="M79.8312 24.2759V41.626C79.8307 41.6625 79.8376 41.6988 79.8514 41.7326C79.8652 41.7664 79.8857 41.7971 79.9116 41.8228C79.9375 41.8486 79.9683 41.8689 80.0022 41.8825C80.0361 41.8961 80.0724 41.9028 80.1089 41.9021C84.887 41.7533 88.8716 37.8035 88.8716 32.951C88.8716 28.0984 84.8903 24.147 80.1089 23.9998C80.0723 23.9989 80.036 24.0054 80.002 24.019C79.968 24.0325 79.9371 24.0528 79.9111 24.0786C79.8852 24.1044 79.8647 24.1352 79.851 24.1691C79.8372 24.203 79.8305 24.2393 79.8312 24.2759Z" fill="#61BEEC"/>
<path d="M67.8991 47.9698V33.6106C67.8821 31.3143 68.6179 29.0755 69.9939 27.237C71.295 25.5275 73.3204 23.98 76.3824 23.9998C76.4236 23.9996 76.4645 24.0075 76.5027 24.0231C76.5409 24.0387 76.5756 24.0616 76.605 24.0906C76.6343 24.1196 76.6576 24.1542 76.6736 24.1922C76.6896 24.2302 76.6979 24.271 76.6981 24.3123V39.0931C76.6981 39.0931 77.1941 47.1713 68.0744 48.1269C68.0525 48.1282 68.0306 48.1252 68.0099 48.118C67.9892 48.1108 67.9702 48.0996 67.9539 48.085C67.9376 48.0704 67.9243 48.0527 67.9149 48.0329C67.9055 48.0131 67.9001 47.9917 67.8991 47.9698Z" fill="#4064AC"/>
<path opacity="0.1" d="M30.3039 22.3795C33.1802 22.3795 35.5119 20.0478 35.5119 17.1715C35.5119 14.2952 33.1802 11.9635 30.3039 11.9635C27.4276 11.9635 25.0959 14.2952 25.0959 17.1715C25.0959 20.0478 27.4276 22.3795 30.3039 22.3795Z" fill="#00BAFC"/>
<path opacity="0.1" d="M19.3919 7.99552C21.1725 7.99552 22.6159 6.55208 22.6159 4.77152C22.6159 2.99095 21.1725 1.54752 19.3919 1.54752C17.6113 1.54752 16.1679 2.99095 16.1679 4.77152C16.1679 6.55208 17.6113 7.99552 19.3919 7.99552Z" fill="#00BAFC"/>
<path opacity="0.1" d="M2.52953 13.9475C3.62527 13.9475 4.51353 13.0593 4.51353 11.9635C4.51353 10.8678 3.62527 9.97952 2.52953 9.97952C1.4338 9.97952 0.545532 10.8678 0.545532 11.9635C0.545532 13.0593 1.4338 13.9475 2.52953 13.9475Z" fill="#00BAFC"/>
<path d="M68.3107 111.092C68.1521 111.31 68.0252 111.549 67.9337 111.802C67.9106 111.863 67.8874 111.934 67.8643 112.002C67.8226 111.982 67.7788 111.967 67.7337 111.957C67.541 111.908 67.3417 111.891 67.1434 111.906C67.1434 111.83 67.1534 111.741 67.155 111.665C67.1798 110.793 67.0773 109.578 66.2457 110.092C65.4488 110.588 66.0175 111.415 66.5317 111.946L66.664 112.075C66.1944 112.405 66.1052 113.187 66.0274 113.999C65.9497 114.811 65.2603 115.7 64.8023 116.205C64.756 116.256 64.7147 116.302 64.6734 116.345C64.4885 116.197 64.2742 116.09 64.0447 116.031C63.8153 115.972 63.5759 115.962 63.3424 116.003C63.3242 115.932 63.3044 115.857 63.2813 115.778C62.9126 114.434 62.1438 112.119 61.1617 111.623L61.2906 111.458C61.7073 110.912 62.1768 110.102 61.4841 109.895C60.7913 109.689 60.7285 110.598 60.7665 111.279C60.7665 111.364 60.7798 111.445 60.7864 111.521C60.6479 111.527 60.5122 111.562 60.3877 111.623C60.2631 111.684 60.1524 111.769 60.0622 111.875L59.9548 111.749C59.3926 111.088 58.3626 110.034 58.0501 110.83C57.7608 111.57 58.6668 112.531 59.305 113.088L59.3447 113.123C58.9165 114.862 60.7864 116.279 61.7933 116.899L61.9239 116.978C60.5351 118.615 59.677 121.682 59.677 121.682L63.5673 122.376C63.5673 122.376 66.1448 120.151 65.8142 118.063H65.8406C68.4182 117.547 69.0034 114.799 68.6033 113.167C68.6182 113.167 68.6331 113.156 68.648 113.148C69.1172 112.956 69.5285 112.645 69.8417 112.247C70.5625 111.24 69.0514 110.109 68.3107 111.092Z" fill="#00BAFC"/>
<path opacity="0.1" d="M68.3107 111.092C68.1521 111.31 68.0252 111.549 67.9337 111.802C67.9106 111.863 67.8874 111.934 67.8643 112.002C67.8226 111.982 67.7788 111.967 67.7337 111.957C67.541 111.908 67.3417 111.891 67.1434 111.906C67.1434 111.83 67.1534 111.741 67.155 111.665C67.1798 110.793 67.0773 109.578 66.2457 110.092C65.4488 110.588 66.0175 111.415 66.5317 111.946L66.664 112.075C66.1944 112.405 66.1052 113.187 66.0274 113.999C65.9497 114.811 65.2603 115.7 64.8023 116.205C64.756 116.256 64.7147 116.302 64.6734 116.345C64.4885 116.197 64.2742 116.09 64.0447 116.031C63.8153 115.972 63.5759 115.962 63.3424 116.003C63.3242 115.932 63.3044 115.857 63.2813 115.778C62.9126 114.434 62.1438 112.119 61.1617 111.623L61.2906 111.458C61.7073 110.912 62.1768 110.102 61.4841 109.895C60.7913 109.689 60.7285 110.598 60.7665 111.279C60.7665 111.364 60.7798 111.445 60.7864 111.521C60.6479 111.527 60.5122 111.562 60.3877 111.623C60.2631 111.684 60.1524 111.769 60.0622 111.875L59.9548 111.749C59.3926 111.088 58.3626 110.034 58.0501 110.83C57.7608 111.57 58.6668 112.531 59.305 113.088L59.3447 113.123C58.9165 114.862 60.7864 116.279 61.7933 116.899L61.9239 116.978C60.5351 118.615 59.677 121.682 59.677 121.682L63.5673 122.376C63.5673 122.376 66.1448 120.151 65.8142 118.063H65.8406C68.4182 117.547 69.0034 114.799 68.6033 113.167C68.6182 113.167 68.6331 113.156 68.648 113.148C69.1172 112.956 69.5285 112.645 69.8417 112.247C70.5625 111.24 69.0514 110.109 68.3107 111.092Z" fill="black"/>
<path d="M60.5699 112.213L60.1152 113.536C60.1152 113.536 59.8622 113.358 59.5431 113.076C58.9049 112.519 57.9989 111.559 58.2882 110.818C58.6007 110.023 59.6308 111.073 60.1929 111.737C60.4194 112.008 60.5699 112.213 60.5699 112.213Z" fill="#00BAFC"/>
<path d="M61.5288 111.458C61.3904 111.639 61.2425 111.813 61.0857 111.979C61.0469 111.747 61.0199 111.514 61.0047 111.279C60.9666 110.598 61.0394 109.694 61.7222 109.895C62.405 110.097 61.9454 110.909 61.5288 111.458Z" fill="#00BAFC"/>
<path d="M67.3932 111.665C67.3799 112.103 67.3369 112.452 67.3369 112.452C67.137 112.299 66.9475 112.132 66.7698 111.954C66.2557 111.42 65.6869 110.597 66.4838 110.101C67.3154 109.578 67.418 110.797 67.3932 111.665Z" fill="#00BAFC"/>
<path d="M70.0799 112.238C69.7667 112.637 69.3554 112.947 68.8862 113.139C68.7562 113.197 68.6225 113.245 68.4861 113.285L67.9504 112.533C68.0071 112.284 68.0811 112.04 68.1719 111.802C68.2633 111.549 68.3903 111.31 68.5489 111.092C69.2896 110.109 70.8007 111.24 70.0799 112.238Z" fill="#00BAFC"/>
<path opacity="0.1" d="M60.1929 111.746C60.4194 112.008 60.5698 112.213 60.5698 112.213L60.1152 113.536C60.1152 113.536 59.8622 113.358 59.5431 113.076C59.6144 112.65 59.7905 112.249 60.0557 111.908C60.1003 111.855 60.1482 111.797 60.1929 111.746Z" fill="black"/>
<path opacity="0.1" d="M61.5288 111.458C61.3904 111.639 61.2425 111.813 61.0857 111.979C61.047 111.747 61.0199 111.514 61.0047 111.279C61.1938 111.282 61.3771 111.345 61.5288 111.458Z" fill="black"/>
<path d="M63.7657 116.737L62.6332 117.233C62.6332 117.233 62.3868 117.114 62.0313 116.894C60.8426 116.162 58.4535 114.321 60.0556 112.152C61.6577 109.983 62.9936 113.873 63.5193 115.776C63.6797 116.347 63.7657 116.737 63.7657 116.737Z" fill="#00BAFC"/>
<path opacity="0.1" d="M66.7698 111.954C66.934 111.784 67.157 111.683 67.3931 111.673C67.3799 112.111 67.3369 112.46 67.3369 112.46C67.1366 112.304 66.9472 112.135 66.7698 111.954Z" fill="black"/>
<path opacity="0.1" d="M68.8862 113.139C68.7562 113.197 68.6225 113.245 68.4861 113.285L67.9504 112.533C68.0071 112.284 68.0811 112.04 68.1719 111.802C68.5175 112.005 68.7721 112.506 68.8862 113.139Z" fill="black"/>
<path d="M66.0787 118.055L65.8886 118.088C62.0975 118.665 64.6387 116.618 64.6387 116.618C64.6387 116.618 64.804 116.453 65.0405 116.205C65.4984 115.7 66.1862 114.816 66.2656 113.999C66.3846 112.771 66.5218 111.618 67.9718 111.957C69.3953 112.285 69.6632 117.335 66.0787 118.055Z" fill="#00BAFC"/>
<path d="M66.0093 127.494H58.7661V129.398H66.0093V127.494Z" fill="#D4DFEC"/>
<path d="M67.079 121.303H57.6154V127.95H67.079V121.303Z" fill="#D4DFEC"/>
<path opacity="0.1" d="M66.0093 127.494H58.7661V129.398H66.0093V127.494Z" fill="black"/>
<path opacity="0.1" d="M67.079 121.303H57.6154V127.95H67.079V121.303Z" fill="black"/>
<path d="M66.4854 127.494H59.2422V129.398H66.4854V127.494Z" fill="#D4DFEC"/>
<path opacity="0.1" d="M63.5193 115.778C63.6847 116.347 63.7657 116.737 63.7657 116.737L62.6332 117.233C62.6332 117.233 62.3868 117.114 62.0313 116.894C62.4744 116.334 62.9737 115.909 63.5193 115.778Z" fill="black"/>
<path opacity="0.1" d="M66.0788 118.055L65.8886 118.088C62.0975 118.665 64.6387 116.618 64.6387 116.618C64.6387 116.618 64.804 116.453 65.0405 116.205C65.7481 116.772 66.0407 117.41 66.0788 118.055Z" fill="black"/>
<path d="M59.9084 121.679C59.9084 121.679 62.0313 114.073 65.009 116.421C67.9866 118.769 63.7987 122.373 63.7987 122.373L59.9084 121.679Z" fill="#00BAFC"/>
<path opacity="0.1" d="M60.9881 113.584C61.1196 113.584 61.2262 113.477 61.2262 113.346C61.2262 113.215 61.1196 113.108 60.9881 113.108C60.8566 113.108 60.7501 113.215 60.7501 113.346C60.7501 113.477 60.8566 113.584 60.9881 113.584Z" fill="black"/>
<path opacity="0.1" d="M60.9682 114.695C61.0997 114.695 61.2063 114.588 61.2063 114.457C61.2063 114.326 61.0997 114.219 60.9682 114.219C60.8368 114.219 60.7302 114.326 60.7302 114.457C60.7302 114.588 60.8368 114.695 60.9682 114.695Z" fill="black"/>
<path opacity="0.1" d="M67.8726 113.802C68.0041 113.802 68.1106 113.696 68.1106 113.564C68.1106 113.433 68.0041 113.326 67.8726 113.326C67.7411 113.326 67.6345 113.433 67.6345 113.564C67.6345 113.696 67.7411 113.802 67.8726 113.802Z" fill="black"/>
<path opacity="0.1" d="M62.3175 119.498C62.4489 119.498 62.5555 119.391 62.5555 119.26C62.5555 119.128 62.4489 119.022 62.3175 119.022C62.186 119.022 62.0794 119.128 62.0794 119.26C62.0794 119.391 62.186 119.498 62.3175 119.498Z" fill="black"/>
<path opacity="0.1" d="M67.3766 115.647C67.5081 115.647 67.6146 115.541 67.6146 115.409C67.6146 115.278 67.5081 115.171 67.3766 115.171C67.2451 115.171 67.1385 115.278 67.1385 115.409C67.1385 115.541 67.2451 115.647 67.3766 115.647Z" fill="black"/>
<path opacity="0.1" d="M64.9164 118.109C65.0479 118.109 65.1545 118.003 65.1545 117.871C65.1545 117.74 65.0479 117.633 64.9164 117.633C64.7849 117.633 64.6783 117.74 64.6783 117.871C64.6783 118.003 64.7849 118.109 64.9164 118.109Z" fill="black"/>
<path opacity="0.1" d="M61.8015 114.06C61.933 114.06 62.0396 113.954 62.0396 113.822C62.0396 113.691 61.933 113.584 61.8015 113.584C61.67 113.584 61.5634 113.691 61.5634 113.822C61.5634 113.954 61.67 114.06 61.8015 114.06Z" fill="black"/>
<path opacity="0.1" d="M67.2178 114.517C67.3493 114.517 67.4559 114.41 67.4559 114.278C67.4559 114.147 67.3493 114.04 67.2178 114.04C67.0863 114.04 66.9797 114.147 66.9797 114.278C66.9797 114.41 67.0863 114.517 67.2178 114.517Z" fill="black"/>
<path opacity="0.1" d="M66.4044 116.362C66.5359 116.362 66.6425 116.255 66.6425 116.124C66.6425 115.992 66.5359 115.885 66.4044 115.885C66.2729 115.885 66.1663 115.992 66.1663 116.124C66.1663 116.255 66.2729 116.362 66.4044 116.362Z" fill="black"/>
<path opacity="0.1" d="M63.9046 119.319C64.0361 119.319 64.1427 119.213 64.1427 119.081C64.1427 118.95 64.0361 118.843 63.9046 118.843C63.7731 118.843 63.6665 118.95 63.6665 119.081C63.6665 119.213 63.7731 119.319 63.9046 119.319Z" fill="black"/>
<path opacity="0.1" d="M63.3887 118.149C63.5202 118.149 63.6268 118.042 63.6268 117.911C63.6268 117.779 63.5202 117.673 63.3887 117.673C63.2573 117.673 63.1507 117.779 63.1507 117.911C63.1507 118.042 63.2573 118.149 63.3887 118.149Z" fill="black"/>
<path opacity="0.1" d="M62.1587 115.509C62.2902 115.509 62.3968 115.402 62.3968 115.27C62.3968 115.139 62.2902 115.032 62.1587 115.032C62.0272 115.032 61.9206 115.139 61.9206 115.27C61.9206 115.402 62.0272 115.509 62.1587 115.509Z" fill="black"/>
<path opacity="0.1" d="M66.4854 127.494H59.2422V128.19H66.4854V127.494Z" fill="black"/>
<path d="M67.5551 121.303H58.0914V127.95H67.5551V121.303Z" fill="#D4DFEC"/>
<path opacity="0.1" d="M64.2221 120.391C64.3536 120.391 64.4602 120.284 64.4602 120.153C64.4602 120.021 64.3536 119.915 64.2221 119.915C64.0906 119.915 63.984 120.021 63.984 120.153C63.984 120.284 64.0906 120.391 64.2221 120.391Z" fill="black"/>
<path opacity="0.1" d="M62.7935 120.688C62.925 120.688 63.0316 120.582 63.0316 120.45C63.0316 120.319 62.925 120.212 62.7935 120.212C62.662 120.212 62.5554 120.319 62.5554 120.45C62.5554 120.582 62.662 120.688 62.7935 120.688Z" fill="black"/>
</g>
<defs>
<linearGradient id="paint0_linear" x1="39.341" y1="127.93" x2="39.341" y2="39.7643" gradientUnits="userSpaceOnUse">
<stop stop-color="#808080" stop-opacity="0.25"/>
<stop offset="0.54" stop-color="#808080" stop-opacity="0.12"/>
<stop offset="1" stop-color="#808080" stop-opacity="0.1"/>
</linearGradient>
<linearGradient id="paint1_linear" x1="39224.3" y1="54940.5" x2="39224.3" y2="6127.73" gradientUnits="userSpaceOnUse">
<stop stop-color="#808080" stop-opacity="0.25"/>
<stop offset="0.54" stop-color="#808080" stop-opacity="0.12"/>
<stop offset="1" stop-color="#808080" stop-opacity="0.1"/>
</linearGradient>
<clipPath id="clip0">
<rect width="178.909" height="130" fill="white" transform="translate(0.545532)"/>
</clipPath>
</defs>
</svg>
